<?xml version="1.0" encoding="UTF-8"?>
<!-- Generator: Adobe Illustrator 17.1.0, SVG Export Plug-In . SVG Version: 6.00 Build 0)  -->
<!DOCTYPE svg PUBLIC "-//W3C//DTD SVG 1.1//EN" "http://www.w3.org/Graphics/SVG/1.1/DTD/svg11.dtd">
<svg version="1.1" id="Ebene_1" xmlns="http://www.w3.org/2000/svg" xmlns:xlink="http://www.w3.org/1999/xlink" x="0px" y="0px" viewBox="0 0 141.7 141.7" enable-background="new 0 0 141.7 141.7" xml:space="preserve">
<g>
	<circle fill="#FFFFFF" cx="71.3" cy="71.1" r="69"/>
	<path fill="#FFFFFF" d="M71.3,71.1"/>
</g>
<g>
	<circle fill="#004F9F" cx="71.3" cy="71.1" r="67.2"/>
	<path fill="#004F9F" d="M71.3,71.1"/>
</g>
<g>
	<circle fill="#FFFFFF" cx="71.3" cy="71.1" r="65.4"/>
	<path fill="#FFFFFF" d="M71.3,71.1"/>
</g>
<g>
	<path fill="#004F9F" d="M49.1,100.6c0.6,0.3,1.1-0.2,1.7-0.3c2.4-0.3,2.8,0.9,4.6,0.7c2.1-0.3,4.3-0.6,6.3-2.2   c0.9-0.7,1.4-1.2,2-2.2c0.9-1.3,1.1-2.4,1.5-3.7c0.4-1.2,0.2-4.1,1.2-4.1c1.1,0,0.9,2.7,0.8,4.4c-0.1,1.3-1,3.9-1.7,5.5   c-0.5,1.2-2.1,6.8,0.7,10c1.1,1.3,4.2,4.9,5.3,4.9c0.9,0,2.5-1.8,3.5-2.9c1.2-1.4,2.1-2.1,2.8-3.8c0.4-1.1,0.7-1.8,0.7-2.9   c-0.1-3.5-0.9-5.3-1.9-7.3c-0.5-1-0.7-2-0.8-3.3c-0.2-1.8-0.4-4.6,0.7-4.6c1.2,0,0.8,2.3,1.4,4.6c0.6,2.3,1.5,4.2,4.1,5.9   c1.6,1.1,3.9,1.6,5.8,1.7c1.3,0.1,1.8-0.6,3-0.7c1.1,0,2.1,0,2.9,0.3c0.9,0.4,0.7-2.8-0.5-4.4c-2.7-3.8-7-1.2-9.5-3.9   c-0.7-0.8-1.5-2.2-1-2.7c0.4-0.5,1.4,1,2.7-0.9c0.3-0.5,0.3-2.5-0.4-3.9c-1-1.9-2.3-1.7-2.2-2.4c0-0.3,1.1-2.9,2.7-5.4   c1.2-1.6,2.8-3.2,4.2-4.1c1.8-1.1,1.7-1.3,3.8-1.6c1.4-0.2,3.4,0,4.6,1.4c1.3,1.4,1.5,2.5,1.2,5c-0.2,1.9-1.2,3.4-0.9,5.1   c0.2,1,1,3.3,2.6,3.1c1-0.1-0.2-1.3,1.5-3.6c1.1-1.5,5.6-2.4,7.4-5.2c0.8-1.3,1.9-2.9,1.7-5.9c-0.2-3.6-1.5-5.9-4.3-8.2   c-2.8-2.4-7.7-3.8-13.1-2.4c-2,0.5-3,1-4.8,2c-3.5,2-5.3,3.5-7.6,7.1c-1.5,2.5-2.3,4.4-2.9,6.5c-0.9,3.1-0.8,6.9-2.5,6.7   c-1.4-0.1,0-5.6,0.3-8.7c0.3-2.8,1.4-6.5,3-9.8c1.7-3.3,3.3-5.7,4.3-9.7c0.5-2.1,1.1-3.7,0.8-6.2c-0.3-2.1-0.9-4.3-2.3-6.8   c-1.3-2.4-2.6-3.4-4.5-5.1c-2.4-2.3-3.7-4.3-5-6.1c-2.2-3-1.6-3-3.6-0.1c-1.4,1.9-2,2.7-3.3,4.3c-1.4,1.8-3.1,3-4.3,4.3   c-1,1.1-2.4,3-3.2,5.2c-0.9,2.5-1.1,4.9-0.9,6.6c0.1,1.7,1.1,5.4,2.4,8.4c0.4,0.9,2.8,4.6,4,7.7c1.3,3.5,1.7,5.4,2.2,9.2   c0.3,2.4,1.2,6.6,0,6.7c-1.9,0.3-1.1-2.6-2.5-6.7c-0.9-2.6-1.4-4.2-2.9-6.5c-2.7-4.1-4.6-5.7-9.6-8.1c-1.2-0.6-4.3-2.1-9.8-1.4   c-1.9,0.2-5.2,1.6-7.3,3.7c-1.5,1.5-2.2,2.9-2.7,5c-0.8,3.7-0.2,6.8,2.4,9.4c2.2,2.2,5.3,2.4,6.5,4.2c1.4,2.1,0.3,3.8,1.8,3.2   c0.6-0.2,1.1-0.7,1.5-1.4c0.7-1.1,0.6-2.1,0.6-3.4c-0.1-1.4-0.8-2-0.9-3.4c-0.1-1.7-0.3-3,0.8-4.4c1.4-1.9,3.4-2.3,5.7-1.9   c1.5,0.2,2.2,0.9,3.5,1.7c1.5,1,1.9,1.5,3.3,3.2c1.6,1.9,2.2,3.9,2.8,5.1c1,2-0.6,0.8-1.6,2.8c-0.5,1.1-1,2-0.8,3.2   c0.6,3.7,2.7,1.1,3,2.1c0,0.1,0,1.3-0.9,2.3c-2.3,2.8-5.3,1-8.3,2.9C48.9,96.2,48.4,100.2,49.1,100.6z M26.9,71   c0-24.7,20-44.7,44.7-44.7c24.7,0,44.7,20,44.7,44.7c0,24.7-20,44.7-44.7,44.7C46.9,115.8,26.9,95.7,26.9,71z"/>
	<g>
		<path fill-rule="evenodd" clip-rule="evenodd" fill="#004F9F" d="M22.8,75l-0.3-3.6l-11.8,1L11,76c0.3,2.9,3.3,4.9,6.6,4.5    C20.7,80.2,23.1,77.8,22.8,75z M20.1,74.2l0.1,1c0.1,1.5-1.2,2.6-2.9,2.8c-1.7,0.2-3.6-0.6-3.7-2.2l-0.1-1L20.1,74.2z"/>
		<path fill-rule="evenodd" clip-rule="evenodd" fill="#004F9F" d="M12.2,86l2.5-0.1l1,3.2l-2.1,1.3l1.4,2.3l10-7.1l-0.6-2.1    l-12.3-0.3L12.2,86z M21.1,85.7l-3.1,2l-0.6-1.8L21.1,85.7z"/>
		<path fill-rule="evenodd" clip-rule="evenodd" fill="#004F9F" d="M22.6,98.3c1.2,0.7,2.6,0.7,3.7,0.1c2.1-1.1,2.6-3.7,1.5-5.6    l-1.4-2.6l-10.5,5.6l1.2,2.3l3.5-1.8l0.2,0.3l-2.4,4.7l2.2,1.4L22.6,98.3z M23,94.9l2.3-1.2l0.2,0.4c0.6,1.1,0.4,1.6-0.4,2    c-0.8,0.4-1.6-0.1-1.9-0.8L23,94.9z"/>
		<polygon fill-rule="evenodd" clip-rule="evenodd" fill="#004F9F" points="24.2,109 25.7,110.8 32.6,107.4 27.1,113 29.1,114.7     36.8,105.6 35.3,103.7 27.9,107.4 32.9,100.8 31.3,99 21,105 22.2,107.3 28.7,102.8   "/>
		<path fill-rule="evenodd" clip-rule="evenodd" fill="#004F9F" d="M36.6,113.6l0.4,1.1c0.3,0.9,0.6,1.6,0.2,2.1    c-0.5,0.6-1.2,0.6-1.7,0.2c-0.6-0.4-0.8-1.3-0.8-2.1l-2.5,0.7c-0.1,1.6,0.7,2.7,1.7,3.4c1.5,1.2,4,1,5.3-0.8    c0.9-1.3,0.9-2.7,0.4-4.1l-0.4-1.1c-0.3-0.7-0.6-1.4-0.2-2c0.4-0.5,1-0.3,1.5,0.1c0.5,0.4,0.6,0.8,0.7,1.4l2.3-0.6    c-0.1-1.3-0.6-2.2-1.6-2.9c-1.3-1-3.7-1-4.9,0.6C35.9,111.1,36.2,112.5,36.6,113.6z"/>
		<polygon fill-rule="evenodd" clip-rule="evenodd" fill="#004F9F" points="44.1,125 48.4,116.8 50.8,118.1 52,115.8 45,112     43.8,114.4 46.1,115.6 41.8,123.8   "/>
		<path fill-rule="evenodd" clip-rule="evenodd" fill="#004F9F" d="M50.3,128.2l1.4-2.1l3.2,1l-0.1,2.5l2.6,0.2l0-12.3l-2.1-0.7    l-7.2,9.9L50.3,128.2z M55.2,120.7l-0.2,3.7l-1.8-0.6L55.2,120.7z"/>
		<path fill-rule="evenodd" clip-rule="evenodd" fill="#004F9F" d="M65.3,119.2l-3.6-0.4l-1.4,11.8l3.6,0.4c2.9,0.4,5.5-2.2,5.8-5.5    C70,122.4,68.1,119.6,65.3,119.2z M64,121.7l1,0.1c1.5,0.2,2.2,1.8,2.1,3.4c-0.2,1.7-1.4,3.3-2.9,3.2l-1-0.1L64,121.7z"/>
		<polygon fill-rule="evenodd" clip-rule="evenodd" fill="#004F9F" points="77.7,131.1 76.9,121.9 79.5,121.7 79.3,119 71.4,119.7     71.7,122.4 74.3,122.1 75.1,131.3   "/>
		
			<rect x="85.4" y="122.4" transform="matrix(0.3256 0.9455 -0.9455 0.3256 177.5535 -1.6194)" fill-rule="evenodd" clip-rule="evenodd" fill="#004F9F" width="9.1" height="2.5"/>
		<path fill-rule="evenodd" clip-rule="evenodd" fill="#004F9F" d="M94.5,119.7c-0.9,1.1-1.1,2.4-0.4,3.7c1.1,2,3.8,2.3,5.4,1.4    c1.8-1,2.9-3.2,1.9-5.3c-0.7-1.3-2-1.9-3.3-1.8c0.6-0.9,0.7-1.9,0.2-3c-0.9-1.8-3.1-2.1-4.7-1.2c-1.6,0.8-2.6,2.8-1.6,4.6    C92.6,119.2,93.5,119.6,94.5,119.7z M99.1,120.4c0.4,0.8,0,1.7-0.7,2.1c-0.7,0.4-1.7,0.2-2.1-0.6c-0.4-0.8,0-1.7,0.7-2.1    C97.7,119.5,98.7,119.6,99.1,120.4z M96.3,116.2c0.3,0.5,0,1.1-0.5,1.4c-0.5,0.3-1.1,0.1-1.4-0.4c-0.3-0.5,0-1.1,0.5-1.4    C95.3,115.6,96,115.7,96.3,116.2z"/>
		<path fill-rule="evenodd" clip-rule="evenodd" fill="#004F9F" d="M108.7,112.8c-2.1-2.8-4.5-2.9-6.3-1.6c-1.7,1.2-2.3,3.7-0.9,5.6    c1.5,2,3.5,2,5,0.9c0.7-0.5,0.9-1,1.2-1.5c0.2,0.9,0.1,2.2-0.1,2.9c-0.2,1-0.7,2.2-1.2,2.7l2.5,0.5    C110.7,119.6,110.9,115.7,108.7,112.8z M105.9,113.4c0.5,0.7,0.3,1.5-0.4,2c-0.6,0.5-1.5,0.5-2-0.2c-0.5-0.7-0.3-1.5,0.4-2    C104.5,112.7,105.4,112.7,105.9,113.4z"/>
		<path fill-rule="evenodd" clip-rule="evenodd" fill="#004F9F" d="M110.3,108.3c-0.4,1.3-0.2,2.6,0.9,3.6c1.7,1.6,4.3,0.8,5.6-0.5    c1.4-1.5,1.7-4-0.1-5.6c-1.1-1-2.5-1.1-3.7-0.5c0.2-1,0-2.1-0.8-2.9c-1.5-1.3-3.6-0.9-4.8,0.5c-1.2,1.3-1.5,3.5,0,4.9    C108.3,108.5,109.3,108.6,110.3,108.3z M114.8,107.4c0.7,0.6,0.6,1.6,0,2.2c-0.5,0.6-1.5,0.8-2.2,0.2c-0.7-0.6-0.6-1.6,0-2.2    C113.2,107,114.2,106.8,114.8,107.4z M110.7,104.5c0.4,0.4,0.4,1.1,0,1.5c-0.4,0.4-1,0.5-1.4,0.1c-0.4-0.4-0.4-1,0-1.4    C109.6,104.2,110.3,104.1,110.7,104.5z"/>
		<path fill-rule="evenodd" clip-rule="evenodd" fill="#004F9F" d="M124.6,94.6c-0.4,1-1.5,0.9-1.7,0.8c1-2.2,0.6-4.1-1-5.9    c-1.9-0.3-3.4,0.4-4.1,2c-0.9,2.1,0.7,4.5,3,5.5c2.3,1,5.2,0.6,6.1-1.5c0.9-2-0.3-3.8-0.3-3.8l-2,0.8    C124.6,92.6,125.2,93.3,124.6,94.6z M121.2,94.7c-0.3-0.1-1.5-1.1-1.1-2.1c0.4-0.9,1.2-0.8,1.2-0.8    C121.7,92.8,121.7,93.6,121.2,94.7z"/>
		<path fill-rule="evenodd" clip-rule="evenodd" fill="#004F9F" d="M128.2,86.8c-0.9-0.3-1.9,0.2-2.2,1c-0.3,0.8,0.3,1.7,1.2,2    c0.9,0.3,1.9-0.2,2.2-1C129.7,88,129.1,87.1,128.2,86.8z"/>
		<polygon fill-rule="evenodd" clip-rule="evenodd" fill="#004F9F" points="119.1,76 127,79.8 118.3,81 118.6,83.7 130.7,81.6     131.1,79.3 120.2,73.6   "/>
		<path fill-rule="evenodd" clip-rule="evenodd" fill="#004F9F" d="M130.3,70.8c-1,0-1.8,0.7-1.8,1.6c0,0.9,0.8,1.6,1.7,1.6    c1,0,1.8-0.7,1.8-1.6C132,71.6,131.3,70.8,130.3,70.8z"/>
	</g>
	<g>
		<path fill-rule="evenodd" clip-rule="evenodd" fill="#004F9F" d="M14,58.1c-0.3,1.3,0.5,2.6,1.7,2.9c1.3,0.3,2.6-0.5,2.9-1.7    c0.3-1.3-0.5-2.6-1.7-2.9C15.6,56,14.3,56.8,14,58.1z"/>
		<path fill-rule="evenodd" clip-rule="evenodd" fill="#004F9F" d="M23.7,45.9l1.1-0.6c0.9-0.5,1.6-0.9,2.2-0.5    c0.7,0.4,0.7,1.2,0.3,1.8c-0.4,0.7-1.2,1.1-2.1,1.2l0.9,2.5c1.6-0.2,2.7-1.2,3.4-2.4c1.1-1.8,0.8-4.4-1.1-5.5    c-1.3-0.8-2.8-0.6-4.2,0.3l-1.1,0.6c-0.7,0.4-1.4,0.9-2,0.5c-0.6-0.3-0.4-1,0-1.6c0.3-0.6,0.8-0.8,1.4-1l-0.8-2.3    c-1.3,0.3-2.2,1-2.9,2.2c-0.9,1.5-0.8,4.1,0.9,5.2C21.2,47,22.6,46.6,23.7,45.9z"/>
		<path fill-rule="evenodd" clip-rule="evenodd" fill="#004F9F" d="M25.8,31.9l-2.2,2.5l8.8,8l1.9-2.1l-2.5-2.3l0.3-0.3    c1.7-1.9,2.1-4.8,0.2-6.5C30.4,29.3,27.5,30,25.8,31.9z M27.5,34l0.3-0.3c0.7-0.8,1.8-1.1,2.6-0.5c0.8,0.7,0.5,1.9-0.2,2.6    l-0.3,0.3L27.5,34z"/>
		<path fill-rule="evenodd" clip-rule="evenodd" fill="#004F9F" d="M35.8,22.3c-2.6,1.9-2.4,5.6-0.5,8.2c1.9,2.6,5.4,3.9,8,2    c2.6-1.9,2.4-5.6,0.5-8.2C41.9,21.7,38.4,20.4,35.8,22.3z M37.6,28.8c-1.2-1.6-1.7-3.4-0.3-4.4c1.4-1,2.9,0,4.1,1.6    c1.2,1.6,1.7,3.4,0.3,4.4C40.3,31.4,38.7,30.4,37.6,28.8z"/>
		<path fill-rule="evenodd" clip-rule="evenodd" fill="#004F9F" d="M52.8,21.8c0.9-1.1,1.1-2.6,0.6-3.8c-0.9-2.2-3.6-2.8-5.8-1.9    l-3.1,1.2l4.5,11l2.6-1.1l-1.5-3.6l0.4-0.2l4.7,2.7l1.9-2.1L52.8,21.8z M49.2,21.2l-1-2.5l0.4-0.2c1.2-0.5,1.8-0.2,2.2,0.6    c0.3,0.8-0.3,1.6-1.2,1.9L49.2,21.2z"/>
		<polygon fill-rule="evenodd" clip-rule="evenodd" fill="#004F9F" points="63.2,23.8 61.5,14.7 64.4,14.2 63.9,11.6 55.2,13.2     55.8,15.9 58.7,15.3 60.4,24.4   "/>
		<polygon fill-rule="evenodd" clip-rule="evenodd" fill="#004F9F" points="75.3,11 72.4,19.3 69.7,10.9 66.8,11.5 71,23.2     73.6,23.3 78.2,11.7   "/>
		<polygon fill-rule="evenodd" clip-rule="evenodd" fill="#004F9F" points="82.6,21.8 83.1,19.7 86.5,20.5 87.2,17.9 83.8,17.1     84.2,15.5 88.1,16.4 88.8,13.9 82.1,12.2 79.2,23.7 86.1,25.5 86.7,22.9   "/>
		<path fill-rule="evenodd" clip-rule="evenodd" fill="#004F9F" d="M95.6,24.4c1.5-0.1,2.6-0.9,3.2-2.1c1-2.2-0.4-4.6-2.6-5.6    l-3-1.4l-5,10.8l2.6,1.2l1.7-3.6l0.4,0.2l1.2,5.3l2.8-0.1L95.6,24.4z M93.6,21.3l1.1-2.4l0.4,0.2c1.2,0.6,1.4,1.2,1.1,2    c-0.4,0.8-1.4,0.8-2.2,0.4L93.6,21.3z"/>
		<polygon fill-rule="evenodd" clip-rule="evenodd" fill="#004F9F" points="101.9,30.8 103.2,29 106,31.1 107.6,28.9 104.8,26.9     105.8,25.5 109.1,28 110.7,25.9 105.1,21.7 98,31.2 103.7,35.5 105.3,33.3   "/>
		
			<rect x="109.5" y="28.7" transform="matrix(0.682 0.7314 -0.7314 0.682 60.6339 -70.1525)" fill-rule="evenodd" clip-rule="evenodd" fill="#004F9F" width="2.9" height="11.9"/>
		<polygon fill-rule="evenodd" clip-rule="evenodd" fill="#004F9F" points="113.6,48 115.1,50.4 125.2,44.1 123.7,41.7 118,45.3     121.5,38.2 120,35.8 109.9,42.1 111.4,44.6 117.1,41   "/>
		<path fill-rule="evenodd" clip-rule="evenodd" fill="#004F9F" d="M128.5,59c-0.3-1.3-1.5-2.1-2.8-1.8c-1.3,0.3-2.1,1.5-1.8,2.8    c0.3,1.3,1.5,2.1,2.8,1.8C128,61.5,128.8,60.3,128.5,59z"/>
	</g>
</g>
<style xmlns="http://www.w3.org/1999/xhtml" charset="utf-8" type="text/css" class="firebugResetStyles">/* See license.txt for terms of usage */
/** reset styling **/
.firebugResetStyles {
    z-index: 2147483646 !important;
    top: 0 !important;
    left: 0 !important;
    display: block !important;
    border: 0 none !important;
    margin: 0 !important;
    padding: 0 !important;
    outline: 0 !important;
    min-width: 0 !important;
    max-width: none !important;
    min-height: 0 !important;
    max-height: none !important;
    position: fixed !important;
    transform: rotate(0deg) !important;
    transform-origin: 50% 50% !important;
    border-radius: 0 !important;
    box-shadow: none !important;
    background: transparent none !important;
    pointer-events: none !important;
    white-space: normal !important;
}
style.firebugResetStyles {
    display: none !important;
}

.firebugBlockBackgroundColor {
    background-color: transparent !important;
}

.firebugResetStyles:before, .firebugResetStyles:after {
    content: "" !important;
}
/**actual styling to be modified by firebug theme**/
.firebugCanvas {
    display: none !important;
}

/* * * * * * * * * * * * * * * * * * * * * * * * * * * * * * * * * * * * * * * * * * * * * * * * */
.firebugLayoutBox {
    width: auto !important;
    position: static !important;
}

.firebugLayoutBoxOffset {
    opacity: 0.8 !important;
    position: fixed !important;
}

.firebugLayoutLine {
    opacity: 0.4 !important;
    background-color: #000000 !important;
}

.firebugLayoutLineLeft, .firebugLayoutLineRight {
    width: 1px !important;
    height: 100% !important;
}

.firebugLayoutLineTop, .firebugLayoutLineBottom {
    width: 100% !important;
    height: 1px !important;
}

.firebugLayoutLineTop {
    margin-top: -1px !important;
    border-top: 1px solid #999999 !important;
}

.firebugLayoutLineRight {
    border-right: 1px solid #999999 !important;
}

.firebugLayoutLineBottom {
    border-bottom: 1px solid #999999 !important;
}

.firebugLayoutLineLeft {
    margin-left: -1px !important;
    border-left: 1px solid #999999 !important;
}

/* * * * * * * * * * * * * * * * * * * * * * * * * * * * * * * * * * * * * * * * * * * * * * * * */
.firebugLayoutBoxParent {
    border-top: 0 none !important;
    border-right: 1px dashed #E00 !important;
    border-bottom: 1px dashed #E00 !important;
    border-left: 0 none !important;
    position: fixed !important;
    width: auto !important;
}

.firebugRuler{
    position: absolute !important;
}

.firebugRulerH {
    top: -15px !important;
    left: 0 !important;
    width: 100% !important;
    height: 14px !important;
    background: url("data:image/png,%89PNG%0D%0A%1A%0A%00%00%00%0DIHDR%00%00%13%88%00%00%00%0E%08%02%00%00%00L%25a%0A%00%00%00%04gAMA%00%00%D6%D8%D4OX2%00%00%00%19tEXtSoftware%00Adobe%20ImageReadyq%C9e%3C%00%00%04%F8IDATx%DA%EC%DD%D1n%E2%3A%00E%D1%80%F8%FF%EF%E2%AF2%95%D0D4%0E%C1%14%B0%8Fa-%E9%3E%CC%9C%87n%B9%81%A6W0%1C%A6i%9A%E7y%0As8%1CT%A9R%A5J%95*U%AAT%A9R%A5J%95*U%AAT%A9R%A5J%95*U%AAT%A9R%A5J%95*U%AAT%A9R%A5J%95*U%AAT%A9R%A5J%95*U%AAT%A9R%A5J%95*U%AATE9%FE%FCw%3E%9F%AF%2B%2F%BA%97%FDT%1D~K(%5C%9D%D5%EA%1B%5C%86%B5%A9%BDU%B5y%80%ED%AB*%03%FAV9%AB%E1%CEj%E7%82%EF%FB%18%BC%AEJ8%AB%FA'%D2%BEU9%D7U%ECc0%E1%A2r%5DynwVi%CFW%7F%BB%17%7Dy%EACU%CD%0E%F0%FA%3BX%FEbV%FEM%9B%2B%AD%BE%AA%E5%95v%AB%AA%E3E5%DCu%15rV9%07%B5%7F%B5w%FCm%BA%BE%AA%FBY%3D%14%F0%EE%C7%60%0EU%AAT%A9R%A5J%95*U%AAT%A9R%A5J%95*U%AAT%A9R%A5J%95*U%AAT%A9R%A5J%95*U%AAT%A9R%A5JU%88%D3%F5%1F%AE%DF%3B%1B%F2%3E%DAUCNa%F92%D02%AC%7Dm%F9%3A%D4%F2%8B6%AE*%BF%5C%C2Ym~9g5%D0Y%95%17%7C%C8c%B0%7C%18%26%9CU%CD%13i%F7%AA%90%B3Z%7D%95%B4%C7%60%E6E%B5%BC%05%B4%FBY%95U%9E%DB%FD%1C%FC%E0%9F%83%7F%BE%17%7DkjMU%E3%03%AC%7CWj%DF%83%9An%BCG%AE%F1%95%96yQ%0Dq%5Dy%00%3Et%B5'%FC6%5DS%95pV%95%01%81%FF'%07%00%00%00%00%00%00%00%00%00%F8x%C7%F0%BE%9COp%5D%C9%7C%AD%E7%E6%EBV%FB%1E%E0(%07%E5%AC%C6%3A%ABi%9C%8F%C6%0E9%AB%C0'%D2%8E%9F%F99%D0E%B5%99%14%F5%0D%CD%7F%24%C6%DEH%B8%E9rV%DFs%DB%D0%F7%00k%FE%1D%84%84%83J%B8%E3%BA%FB%EF%20%84%1C%D7%AD%B0%8E%D7U%C8Y%05%1E%D4t%EF%AD%95Q%BF8w%BF%E9%0A%BF%EB%03%00%00%00%00%00%00%00%00%00%B8vJ%8E%BB%F5%B1u%8Cx%80%E1o%5E%CA9%AB%CB%CB%8E%03%DF%1D%B7T%25%9C%D5(%EFJM8%AB%CC'%D2%B2*%A4s%E7c6%FB%3E%FA%A2%1E%80~%0E%3E%DA%10x%5D%95Uig%15u%15%ED%7C%14%B6%87%A1%3B%FCo8%A8%D8o%D3%ADO%01%EDx%83%1A~%1B%9FpP%A3%DC%C6'%9C%95gK%00%00%00%00%00%00%00%00%00%20%D9%C9%11%D0%C0%40%AF%3F%EE%EE%92%94%D6%16X%B5%BCMH%15%2F%BF%D4%A7%C87%F1%8E%F2%81%AE%AAvzr%DA2%ABV%17%7C%E63%83%E7I%DC%C6%0Bs%1B%EF6%1E%00%00%00%00%00%00%00%00%00%80cr%9CW%FF%7F%C6%01%0E%F1%CE%A5%84%B3%CA%BC%E0%CB%AA%84%CE%F9%BF)%EC%13%08WU%AE%AB%B1%AE%2BO%EC%8E%CBYe%FE%8CN%ABr%5Dy%60~%CFA%0D%F4%AE%D4%BE%C75%CA%EDVB%EA(%B7%F1%09g%E5%D9%12%00%00%00%00%00%00%00%00%00H%F6%EB%13S%E7y%5E%5E%FB%98%F0%22%D1%B2'%A7%F0%92%B1%BC%24z3%AC%7Dm%60%D5%92%B4%7CEUO%5E%F0%AA*%3BU%B9%AE%3E%A0j%94%07%A0%C7%A0%AB%FD%B5%3F%A0%F7%03T%3Dy%D7%F7%D6%D4%C0%AAU%D2%E6%DFt%3F%A8%CC%AA%F2%86%B9%D7%F5%1F%18%E6%01%F8%CC%D5%9E%F0%F3z%88%AA%90%EF%20%00%00%00%00%00%00%00%00%00%C0%A6%D3%EA%CFi%AFb%2C%7BB%0A%2B%C3%1A%D7%06V%D5%07%A8r%5D%3D%D9%A6%CAu%F5%25%CF%A2%99%97zNX%60%95%AB%5DUZ%D5%FBR%03%AB%1C%D4k%9F%3F%BB%5C%FF%81a%AE%AB'%7F%F3%EA%FE%F3z%94%AA%D8%DF%5B%01%00%00%00%00%00%00%00%00%00%8E%FB%F3%F2%B1%1B%8DWU%AAT%A9R%A5J%95*U%AAT%A9R%A5J%95*U%AAT%A9R%A5J%95*U%AAT%A9R%A5J%95*U%AAT%A9R%A5J%95*U%AAT%A9R%A5J%95*U%AAT%A9R%A5J%95*UiU%C7%BBe%E7%F3%B9%CB%AAJ%95*U%AAT%A9R%A5J%95*U%AAT%A9R%A5J%95*U%AAT%A9R%A5J%95*U%AAT%A9R%A5J%95*U%AAT%A9R%A5J%95*U%AAT%A9R%A5J%95*U%AAT%A9R%A5*%AAj%FD%C6%D4%5Eo%90%B5Z%ADV%AB%D5j%B5Z%ADV%AB%D5j%B5Z%ADV%AB%D5j%B5Z%ADV%AB%D5j%B5Z%ADV%AB%D5j%B5Z%ADV%AB%D5j%B5Z%ADV%AB%D5j%B5%86%AF%1B%9F%98%DA%EBm%BBV%AB%D5j%B5Z%ADV%AB%D5j%B5Z%ADV%AB%D5j%B5Z%ADV%AB%D5j%B5Z%ADV%AB%D5j%B5Z%ADV%AB%D5j%B5Z%ADV%AB%D5j%B5Z%AD%D6%E4%F58%01%00%00%00%00%00%00%00%00%00%00%00%00%00%40%85%7F%02%0C%008%C2%D0H%16j%8FX%00%00%00%00IEND%AEB%60%82") repeat-x !important;
    border-top: 1px solid #BBBBBB !important;
    border-right: 1px dashed #BBBBBB !important;
    border-bottom: 1px solid #000000 !important;
}

.firebugRulerV {
    top: 0 !important;
    left: -15px !important;
    width: 14px !important;
    height: 100% !important;
    background: url("data:image/png,%89PNG%0D%0A%1A%0A%00%00%00%0DIHDR%00%00%00%0E%00%00%13%88%08%02%00%00%00%0E%F5%CB%10%00%00%00%04gAMA%00%00%D6%D8%D4OX2%00%00%00%19tEXtSoftware%00Adobe%20ImageReadyq%C9e%3C%00%00%06~IDATx%DA%EC%DD%D1v%A20%14%40Qt%F1%FF%FF%E4%97%D9%07%3BT%19%92%DC%40(%90%EEy%9A5%CB%B6%E8%F6%9Ac%A4%CC0%84%FF%DC%9E%CF%E7%E3%F1%88%DE4%F8%5D%C7%9F%2F%BA%DD%5E%7FI%7D%F18%DDn%BA%C5%FB%DF%97%BFk%F2%10%FF%FD%B4%F2M%A7%FB%FD%FD%B3%22%07p%8F%3F%AE%E3%F4S%8A%8F%40%EEq%9D%BE8D%F0%0EY%A1Uq%B7%EA%1F%81%88V%E8X%3F%B4%CEy%B7h%D1%A2E%EBohU%FC%D9%AF2fO%8BBeD%BE%F7X%0C%97%A4%D6b7%2Ck%A5%12%E3%9B%60v%B7r%C7%1AI%8C%BD%2B%23r%00c0%B2v%9B%AD%CA%26%0C%1Ek%05A%FD%93%D0%2B%A1u%8B%16-%95q%5Ce%DCSO%8E%E4M%23%8B%F7%C2%FE%40%BB%BD%8C%FC%8A%B5V%EBu%40%F9%3B%A72%FA%AE%8C%D4%01%CC%B5%DA%13%9CB%AB%E2I%18%24%B0n%A9%0CZ*Ce%9C%A22%8E%D8NJ%1E%EB%FF%8F%AE%CAP%19*%C3%BAEKe%AC%D1%AAX%8C*%DEH%8F%C5W%A1e%AD%D4%B7%5C%5B%19%C5%DB%0D%EF%9F%19%1D%7B%5E%86%BD%0C%95%A12%AC%5B*%83%96%CAP%19%F62T%86%CAP%19*%83%96%CA%B8Xe%BC%FE)T%19%A1%17xg%7F%DA%CBP%19*%C3%BA%A52T%86%CAP%19%F62T%86%CA%B0n%A9%0CZ%1DV%C6%3D%F3%FCH%DE%B4%B8~%7F%5CZc%F1%D6%1F%AF%84%F9%0F6%E6%EBVt9%0E~%BEr%AF%23%B0%97%A12T%86%CAP%19%B4T%86%CA%B8Re%D8%CBP%19*%C3%BA%A52huX%19%AE%CA%E5%BC%0C%7B%19*CeX%B7h%A9%0C%95%E1%BC%0C%7B%19*CeX%B7T%06%AD%CB%5E%95%2B%BF.%8F%C5%97%D5%E4%7B%EE%82%D6%FB%CF-%9C%FD%B9%CF%3By%7B%19%F62T%86%CA%B0n%D1R%19*%A3%D3%CA%B0%97%A12T%86uKe%D0%EA%B02*%3F1%99%5DB%2B%A4%B5%F8%3A%7C%BA%2B%8Co%7D%5C%EDe%A8%0C%95a%DDR%19%B4T%C66%82fA%B2%ED%DA%9FC%FC%17GZ%06%C9%E1%B3%E5%2C%1A%9FoiB%EB%96%CA%A0%D5qe4%7B%7D%FD%85%F7%5B%ED_%E0s%07%F0k%951%ECr%0D%B5C%D7-g%D1%A8%0C%EB%96%CA%A0%A52T%C6)*%C3%5E%86%CAP%19%D6-%95A%EB*%95q%F8%BB%E3%F9%AB%F6%E21%ACZ%B7%22%B7%9B%3F%02%85%CB%A2%5B%B7%BA%5E%B7%9C%97%E1%BC%0C%EB%16-%95%A12z%AC%0C%BFc%A22T%86uKe%D0%EA%B02V%DD%AD%8A%2B%8CWhe%5E%AF%CF%F5%3B%26%CE%CBh%5C%19%CE%CB%B0%F3%A4%095%A1%CAP%19*Ce%A8%0C%3BO*Ce%A8%0C%95%A12%3A%AD%8C%0A%82%7B%F0v%1F%2FD%A9%5B%9F%EE%EA%26%AF%03%CA%DF9%7B%19*Ce%A8%0C%95%A12T%86%CA%B8Ze%D8%CBP%19*Ce%A8%0C%95%D1ae%EC%F7%89I%E1%B4%D7M%D7P%8BjU%5C%BB%3E%F2%20%D8%CBP%19*Ce%A8%0C%95%A12T%C6%D5*%C3%5E%86%CAP%19*Ce%B4O%07%7B%F0W%7Bw%1C%7C%1A%8C%B3%3B%D1%EE%AA%5C%D6-%EBV%83%80%5E%D0%CA%10%5CU%2BD%E07YU%86%CAP%19*%E3%9A%95%91%D9%A0%C8%AD%5B%EDv%9E%82%FFKOee%E4%8FUe%A8%0C%95%A12T%C6%1F%A9%8C%C8%3D%5B%A5%15%FD%14%22r%E7B%9F%17l%F8%BF%ED%EAf%2B%7F%CF%ECe%D8%CBP%19*Ce%A8%0C%95%E1%93~%7B%19%F62T%86%CAP%19*Ce%A8%0C%E7%13%DA%CBP%19*Ce%A8%0CZf%8B%16-Z%B4h%D1R%19f%8B%16-Z%B4h%D1R%19%B4%CC%16-Z%B4h%D1R%19%B4%CC%16-Z%B4h%D1%A2%A52%CC%16-Z%B4h%D1%A2%A52h%99-Z%B4h%D1%A2%A52h%99-Z%B4h%D1%A2EKe%98-Z%B4h%D1%A2EKe%D02%5B%B4h%D1%A2EKe%D02%5B%B4h%D1%A2E%8B%96%CA0%5B%B4h%D1%A2E%8B%96%CA%A0e%B6h%D1%A2E%8B%96%CA%A0e%B6h%D1%A2E%8B%16-%95a%B6h%D1%A2E%8B%16-%95A%CBl%D1%A2E%8B%16-%95A%CBl%D1%A2E%8B%16-Z*%C3l%D1%A2E%8B%16-Z*%83%96%D9%A2E%8B%16-Z*%83%96%D9%A2E%8B%16-Z%B4T%86%D9%A2E%8B%16-Z%B4T%06-%B3E%8B%16-Z%B4T%06-%B3E%8B%16-Z%B4h%A9%0C%B3E%8B%16-Z%B4h%A9%0CZf%8B%16-Z%B4h%A9%0CZf%8B%16-Z%B4h%D1R%19f%8B%16-Z%B4h%D1R%19%B4%CC%16-Z%B4h%D1R%19%B4%CC%16-Z%B4h%D1%A2%A52%CC%16-Z%B4h%D1%A2%A52h%99-Z%B4h%D1%A2%A52h%99-Z%B4h%D1%A2EKe%98-Z%B4h%D1%A2EKe%D02%5B%B4h%D1%A2EKe%D02%5B%B4h%D1%A2E%8B%96%CA0%5B%B4h%D1%A2E%8B%96%CA%A0e%B6h%D1%A2E%8B%96%CA%A0e%B6h%D1%A2E%8B%16-%95a%B6h%D1%A2E%8B%16-%95A%CBl%D1%A2E%8B%16-%95A%CBl%D1%A2E%8B%16-Z*%C3l%D1%A2E%8B%16-Z*%83%96%D9%A2E%8B%16-Z*%83%96%D9%A2E%8B%16-Z%B4T%86%D9%A2E%8B%16-Z%B4T%06-%B3E%8B%16-Z%B4T%06-%B3E%8B%16-Z%B4h%A9%0C%B3E%8B%16-Z%B4h%A9%0CZf%8B%16-Z%B4h%A9%0CZf%8B%16-Z%B4h%D1R%19f%8B%16-Z%B4h%D1R%19%B4%CC%16-Z%B4h%D1R%19%B4%CC%16-Z%B4h%D1%A2%A52%CC%16-Z%B4h%D1%A2%A52h%99-Z%B4h%D1%A2%A52h%99-Z%B4h%D1%A2EKe%98-Z%B4h%D1%A2EKe%D02%5B%B4h%D1%A2EKe%D02%5B%B4h%D1%A2E%8B%96%CA0%5B%B4h%D1%A2E%8B%96%CA%A0e%B6h%D1%A2E%8B%96%CA%A0e%B6h%D1%A2E%8B%16-%95a%B6h%D1%A2E%8B%16-%95A%CBl%D1%A2E%8B%16-%95A%CBl%D1%A2E%8B%16-Z*%C3l%D1%A2E%8B%16-Z*%83%96%D9%A2E%8B%16-Z*%83%96%D9%A2E%8B%16-Z%B4T%86%D9%A2E%8B%16-Z%B4T%06-%B3E%8B%16-Z%B4%AE%A4%F5%25%C0%00%DE%BF%5C'%0F%DA%B8q%00%00%00%00IEND%AEB%60%82") repeat-y !important;
    border-left: 1px solid #BBBBBB !important;
    border-right: 1px solid #000000 !important;
    border-bottom: 1px dashed #BBBBBB !important;
}

.overflowRulerX &gt; .firebugRulerV {
    left: 0 !important;
}

.overflowRulerY &gt; .firebugRulerH {
    top: 0 !important;
}

/* * * * * * * * * * * * * * * * * * * * * * * * * * * * * * * * * * * * * * * * * * * * * * * * */
.fbProxyElement {
    position: fixed !important;
    pointer-events: auto !important;
}
</style><div xmlns="http://www.w3.org/1999/xhtml" class="firebugResetStyles firebugBlockBackgroundColor firebugLayoutBox firebugLayoutBoxOffset" style="left: 667.567px ! important; top: 7.75px ! important;"><div class="firebugResetStyles firebugLayoutBox" style="padding: 0px ! important; background-color: rgb(237, 255, 100) ! important;"><div class="firebugResetStyles firebugLayoutBox" style="padding: 0px ! important; background-color: rgb(68, 68, 68) ! important;"><div class="firebugResetStyles firebugLayoutBox" style="padding: 0px ! important; background-color: SlateBlue ! important;"><div class="firebugResetStyles firebugLayoutBox" style="width: 514.283px ! important; height: 514.367px ! important; background-color: SkyBlue ! important;"/></div></div></div></div></svg>