<?xml version="1.0" encoding="UTF-8"?>
<!-- Generator: Adobe Illustrator 15.1.0, SVG Export Plug-In . SVG Version: 6.00 Build 0)  -->
<!DOCTYPE svg PUBLIC "-//W3C//DTD SVG 1.1//EN" "http://www.w3.org/Graphics/SVG/1.1/DTD/svg11.dtd">
<svg version="1.1" id="Ebene_1" xmlns="http://www.w3.org/2000/svg" xmlns:xlink="http://www.w3.org/1999/xlink" x="0px" y="0px" width="141.732px" height="141.732px" viewBox="0 0 141.732 141.732" enable-background="new 0 0 141.732 141.732" xml:space="preserve">
<path fill="#D2242A" d="M124.207,91.938c0,0-4.917,47.41-52.111,48.597c0,0-45.346,4.871-54.566-47.238V39.867h2.999v0.283h101.028  v-0.283h2.651L124.207,91.938L124.207,91.938z"/>
<rect x="20.546" y="3.772" fill="#FFFFFF" width="101.007" height="36.664"/>
<polygon fill="#D2242A" points="99.704,9.527 113.562,35.475 105.672,35.475 101.062,25.867 88.625,25.884 83.892,35.473   78.773,35.473 78.773,31.291 89.984,9.527 "/>
<path fill="#FFFFFF" d="M121.41,42.838H72.361l-0.043,85.854l0.009,9.344c0,0,40.362,0.738,49.092-45.623L121.41,42.838z"/>
<path fill="#D2242A" d="M58.51,28.995c0,0,4.606,0.987,16.06,0.394c0,0,5.264-0.043,5.264-4.124v-3.772h-6.516v1.71  c0,0,0.047,1.237-0.877,1.237h-9.53c0,0-1.898-0.183-2.163-1.96v-6.317c0,0,0.134-1.404,1.842-1.513c0,0,2.744-0.396,8.755-0.066  c0,0,2.062-0.131,2.038,2.304h6.143l-0.041-3.641c0,0-0.31-3.531-4.651-3.796c0,0-10.134-0.396-14.609,0.065  c0,0-5.792,0.132-5.659,4.54v10.728C54.564,24.783,54.365,28.467,58.51,28.995z"/>
<path fill="#D2242A" d="M94.252,14.335h0.967l3.421,7.109h-7.896L94.252,14.335z"/>
<polygon fill="#D2242A" points="38.615,22.962 52.738,22.959 52.742,18.137 38.615,18.137 38.527,14.649 53.445,14.627   53.445,9.714 32.472,9.714 32.472,29.895 38.703,29.889 "/>
<rect x="47.953" y="31.092" fill="#016B45" stroke="#016B45" stroke-width="0.9697" width="15.215" height="4.13"/>
<rect x="63.521" y="31.092" fill="#FFFFFF" stroke="#D2242A" stroke-width="0.9697" width="15.217" height="4.13"/>
<rect x="32.404" y="31.092" fill="#D2242A" stroke="#D2242A" stroke-width="0.9697" width="15.218" height="4.13"/>
<polyline fill="#FFFFFF" points="98.639,21.444 95.219,14.335 94.252,14.335 90.745,21.444 "/>
<line fill="none" x1="90.745" y1="21.444" x2="98.639" y2="21.444"/>
<g>
	<path fill="#D2242A" d="M17.528,1.139v92.096c9.22,52.109,54.563,47.238,54.563,47.238c47.195-1.186,52.113-48.597,52.113-48.597   V1.139H17.528z M121.537,92.209c0,0-4.574,43.128-49.549,45.587c0,0-42.229,4.105-51.447-43.396V42.838h100.996V92.209z    M121.554,40.091H20.527V3.772h101.027V40.091z"/>
	<path fill="#FEDC00" d="M69.036,141.732L69.036,141.732c-10.343,0-44.699-3.482-52.628-48.301l-0.018-0.197V0h108.954   l-0.006,91.994c-0.051,0.494-1.338,12.241-8.514,24.317c-6.648,11.196-19.805,24.675-44.703,25.3l0,0   C72.156,141.611,70.998,141.732,69.036,141.732z M18.667,93.135c7.652,42.982,40.482,46.32,50.368,46.32l0,0   c1.835,0,2.924-0.113,2.935-0.114c45.057-1.135,50.881-45.714,51.098-47.528V2.278h-104.4V93.135z M69.478,139.023   c-9.722,0-42.058-3.202-50.055-44.407l-0.021-0.218V41.699h103.272l-0.006,50.63c-0.047,0.44-5.201,44.12-50.617,46.604   C72.058,138.933,71.107,139.023,69.478,139.023z M21.679,94.289c7.7,39.393,38.526,42.457,47.799,42.457   c1.506,0,2.393-0.082,2.401-0.083c42.832-2.343,48.308-42.786,48.519-44.521V43.976H21.679V94.289z M122.693,41.23H19.388V2.633   h103.305V41.23z M21.666,38.952h98.75V4.91h-98.75V38.952z"/>
</g>
<path fill="#D2242A" stroke="#010101" stroke-width="3.46" d="M70.654,86.365c0,0,15.733,0.821,17.144-8.22  c0,0,2.464-8.22-2.112-15.615c0,0-4.934-11.038-13.855-12.916c0,0-7.516-0.47-14.09,10.449c0,0-7.045,12.445-2.582,19.14  C55.156,79.203,57.973,87.071,70.654,86.365z"/>
<path fill="#016B45" stroke="#010101" stroke-width="2.0639" d="M70.431,86.198c0,0,15.733,0.822,17.146-8.221  c0,0,2.464-8.22-2.113-15.615c0,0-4.933-11.037-13.858-12.916c0,0-7.514-0.471-14.09,10.451c0,0-7.045,12.444-2.582,19.139  C54.93,79.036,57.749,86.902,70.431,86.198z"/>
<path fill="#FEDC00" stroke="#010101" stroke-width="2.0639" d="M56.799,98.927l-3.405-3.286l5.166-4.932  c0,0,13.739,2.467,26.067-0.117l5.521,4.699l-3.759,4.578L56.799,98.927z"/>
<path fill="#FEDC00" stroke="#010101" stroke-width="2.0639" d="M60.322,99.517c0,0,1.291,3.17-2.467,3.054  c0,0-3.758-1.06-2.23-4.697c0,0,1.292-2.114,4.346-2.349c3.051-0.232,22.896,0.233,22.896,0.233s4.462-0.233,5.52,4.11  c0,0,0.233,3.757-3.64,2.585c0,0-1.763-0.354-1.294-2.938c0,0-3.053,4.229-3.641,16.907l-15.498,0.586  C64.314,117.011,63.726,102.687,60.322,99.517z"/>
<polyline fill="none" stroke="#010101" stroke-width="2.0639" points="64.08,115.324 71.829,96.864 79.812,116.435 "/>
<path fill="none" stroke="#010101" stroke-width="2.0639" d="M59.969,95.492c0,0,5.636,0.331,11.39,19.869  c0,0,6.105-17.66,11.154-19.649"/>
<polygon fill="#FEDC00" stroke="#010101" stroke-width="2.0639" points="67.131,86.741 67.013,95.432 76.056,95.534 75.82,86.544   "/>
<line fill="none" stroke="#010101" stroke-width="2.0534" stroke-linecap="round" x1="55.777" y1="64.628" x2="75.911" y2="50.833"/>
<line fill="none" stroke="#010101" stroke-width="2.0534" stroke-linecap="round" x1="53.689" y1="72.031" x2="79.954" y2="54.464"/>
<line fill="none" stroke="#010101" stroke-width="2.0534" stroke-linecap="round" x1="54.663" y1="78.253" x2="83.633" y2="58.887"/>
<line fill="none" stroke="#010101" stroke-width="2.0534" stroke-linecap="round" x1="57.896" y1="83.268" x2="86.667" y2="64.036"/>
<line fill="none" stroke="#010101" stroke-width="2.0534" stroke-linecap="round" x1="63.398" y1="85.688" x2="88.187" y2="69.579"/>
<line fill="none" stroke="#010101" stroke-width="2.0534" stroke-linecap="round" x1="74.286" y1="85.904" x2="88.187" y2="76.773"/>
<line fill="none" stroke="#010101" stroke-width="2.0534" stroke-linecap="round" x1="66.013" y1="51.239" x2="85.658" y2="62.706"/>
<line fill="none" stroke="#010101" stroke-width="2.0534" stroke-linecap="round" x1="54.346" y1="77.395" x2="69.392" y2="86.095"/>
<line fill="none" stroke="#010101" stroke-width="2.0534" stroke-linecap="round" x1="61.26" y1="55.529" x2="88.361" y2="71.881"/>
<line fill="none" stroke="#010101" stroke-width="2.0534" stroke-linecap="round" x1="57.812" y1="60.084" x2="87.906" y2="77.829"/>
<line fill="none" stroke="#010101" stroke-width="2.0534" stroke-linecap="round" x1="55.484" y1="65.364" x2="85.529" y2="82.844"/>
<line fill="none" stroke="#010101" stroke-width="2.0534" stroke-linecap="round" x1="53.964" y1="71.124" x2="78.93" y2="85.37"/>
<path fill="#FFFFFF" d="M56.253,127.817v-0.604l1.289-0.369v-4.63l-1.289-0.399v-0.587h4.098v0.587l-1.287,0.384v4.646l1.287,0.369  v0.604H56.253L56.253,127.817z"/>
<path fill="#FFFFFF" d="M68.07,124.489c0.017,0.77-0.084,1.371-0.17,1.723c-0.367,0.133-1.053,0.367-1.621,0.367  c-1.021,0-1.588-1.07-1.621-2.339c-0.034-1.338,0.535-2.208,1.506-2.242C67.181,121.948,68.035,123.1,68.07,124.489z M69.591,124.79  c-0.033-2.056-1.121-3.777-3.263-3.777c-1.923,0-3.142,1.487-3.142,3.276c0,2.188,1.303,3.261,2.992,3.261  c0.469,0,1.021-0.185,1.372-0.317c-0.637,1.438-1.839,2.508-3.646,3.212l0.4,0.851C67.8,130.307,69.64,127.465,69.591,124.79z"/>
<path fill="#D2242A" d="M79.56,124.489c0,1.354-0.887,2.424-2.24,2.424c-1.354,0-2.224-1.071-2.224-2.424  c0-1.338,0.869-2.406,2.224-2.406S79.56,123.151,79.56,124.489z M81.031,124.489c0-1.956-1.67-3.544-3.711-3.544  s-3.694,1.588-3.694,3.544c0,1.974,1.653,3.562,3.694,3.562S81.031,126.463,81.031,124.489z"/>
<path fill="#D2242A" d="M84.14,130.86h-1.253c0.435-2.157,1.638-5.316,3.544-8.41h-4.382v-1.222h6.037v0.952  C86.75,124.155,84.76,128.186,84.14,130.86z"/>
<style xmlns="http://www.w3.org/1999/xhtml" charset="utf-8" type="text/css" class="firebugResetStyles">/* See license.txt for terms of usage */
/** reset styling **/
.firebugResetStyles {
    z-index: 2147483646 !important;
    top: 0 !important;
    left: 0 !important;
    display: block !important;
    border: 0 none !important;
    margin: 0 !important;
    padding: 0 !important;
    outline: 0 !important;
    min-width: 0 !important;
    max-width: none !important;
    min-height: 0 !important;
    max-height: none !important;
    position: fixed !important;
    transform: rotate(0deg) !important;
    transform-origin: 50% 50% !important;
    border-radius: 0 !important;
    box-shadow: none !important;
    background: transparent none !important;
    pointer-events: none !important;
    white-space: normal !important;
}
style.firebugResetStyles {
    display: none !important;
}

.firebugBlockBackgroundColor {
    background-color: transparent !important;
}

.firebugResetStyles:before, .firebugResetStyles:after {
    content: "" !important;
}
/**actual styling to be modified by firebug theme**/
.firebugCanvas {
    display: none !important;
}

/* * * * * * * * * * * * * * * * * * * * * * * * * * * * * * * * * * * * * * * * * * * * * * * * */
.firebugLayoutBox {
    width: auto !important;
    position: static !important;
}

.firebugLayoutBoxOffset {
    opacity: 0.8 !important;
    position: fixed !important;
}

.firebugLayoutLine {
    opacity: 0.4 !important;
    background-color: #000000 !important;
}

.firebugLayoutLineLeft, .firebugLayoutLineRight {
    width: 1px !important;
    height: 100% !important;
}

.firebugLayoutLineTop, .firebugLayoutLineBottom {
    width: 100% !important;
    height: 1px !important;
}

.firebugLayoutLineTop {
    margin-top: -1px !important;
    border-top: 1px solid #999999 !important;
}

.firebugLayoutLineRight {
    border-right: 1px solid #999999 !important;
}

.firebugLayoutLineBottom {
    border-bottom: 1px solid #999999 !important;
}

.firebugLayoutLineLeft {
    margin-left: -1px !important;
    border-left: 1px solid #999999 !important;
}

/* * * * * * * * * * * * * * * * * * * * * * * * * * * * * * * * * * * * * * * * * * * * * * * * */
.firebugLayoutBoxParent {
    border-top: 0 none !important;
    border-right: 1px dashed #E00 !important;
    border-bottom: 1px dashed #E00 !important;
    border-left: 0 none !important;
    position: fixed !important;
    width: auto !important;
}

.firebugRuler{
    position: absolute !important;
}

.firebugRulerH {
    top: -15px !important;
    left: 0 !important;
    width: 100% !important;
    height: 14px !important;
    background: url("data:image/png,%89PNG%0D%0A%1A%0A%00%00%00%0DIHDR%00%00%13%88%00%00%00%0E%08%02%00%00%00L%25a%0A%00%00%00%04gAMA%00%00%D6%D8%D4OX2%00%00%00%19tEXtSoftware%00Adobe%20ImageReadyq%C9e%3C%00%00%04%F8IDATx%DA%EC%DD%D1n%E2%3A%00E%D1%80%F8%FF%EF%E2%AF2%95%D0D4%0E%C1%14%B0%8Fa-%E9%3E%CC%9C%87n%B9%81%A6W0%1C%A6i%9A%E7y%0As8%1CT%A9R%A5J%95*U%AAT%A9R%A5J%95*U%AAT%A9R%A5J%95*U%AAT%A9R%A5J%95*U%AAT%A9R%A5J%95*U%AAT%A9R%A5J%95*U%AAT%A9R%A5J%95*U%AATE9%FE%FCw%3E%9F%AF%2B%2F%BA%97%FDT%1D~K(%5C%9D%D5%EA%1B%5C%86%B5%A9%BDU%B5y%80%ED%AB*%03%FAV9%AB%E1%CEj%E7%82%EF%FB%18%BC%AEJ8%AB%FA'%D2%BEU9%D7U%ECc0%E1%A2r%5DynwVi%CFW%7F%BB%17%7Dy%EACU%CD%0E%F0%FA%3BX%FEbV%FEM%9B%2B%AD%BE%AA%E5%95v%AB%AA%E3E5%DCu%15rV9%07%B5%7F%B5w%FCm%BA%BE%AA%FBY%3D%14%F0%EE%C7%60%0EU%AAT%A9R%A5J%95*U%AAT%A9R%A5J%95*U%AAT%A9R%A5J%95*U%AAT%A9R%A5J%95*U%AAT%A9R%A5JU%88%D3%F5%1F%AE%DF%3B%1B%F2%3E%DAUCNa%F92%D02%AC%7Dm%F9%3A%D4%F2%8B6%AE*%BF%5C%C2Ym~9g5%D0Y%95%17%7C%C8c%B0%7C%18%26%9CU%CD%13i%F7%AA%90%B3Z%7D%95%B4%C7%60%E6E%B5%BC%05%B4%FBY%95U%9E%DB%FD%1C%FC%E0%9F%83%7F%BE%17%7DkjMU%E3%03%AC%7CWj%DF%83%9An%BCG%AE%F1%95%96yQ%0Dq%5Dy%00%3Et%B5'%FC6%5DS%95pV%95%01%81%FF'%07%00%00%00%00%00%00%00%00%00%F8x%C7%F0%BE%9COp%5D%C9%7C%AD%E7%E6%EBV%FB%1E%E0(%07%E5%AC%C6%3A%ABi%9C%8F%C6%0E9%AB%C0'%D2%8E%9F%F99%D0E%B5%99%14%F5%0D%CD%7F%24%C6%DEH%B8%E9rV%DFs%DB%D0%F7%00k%FE%1D%84%84%83J%B8%E3%BA%FB%EF%20%84%1C%D7%AD%B0%8E%D7U%C8Y%05%1E%D4t%EF%AD%95Q%BF8w%BF%E9%0A%BF%EB%03%00%00%00%00%00%00%00%00%00%B8vJ%8E%BB%F5%B1u%8Cx%80%E1o%5E%CA9%AB%CB%CB%8E%03%DF%1D%B7T%25%9C%D5(%EFJM8%AB%CC'%D2%B2*%A4s%E7c6%FB%3E%FA%A2%1E%80~%0E%3E%DA%10x%5D%95Uig%15u%15%ED%7C%14%B6%87%A1%3B%FCo8%A8%D8o%D3%ADO%01%EDx%83%1A~%1B%9FpP%A3%DC%C6'%9C%95gK%00%00%00%00%00%00%00%00%00%20%D9%C9%11%D0%C0%40%AF%3F%EE%EE%92%94%D6%16X%B5%BCMH%15%2F%BF%D4%A7%C87%F1%8E%F2%81%AE%AAvzr%DA2%ABV%17%7C%E63%83%E7I%DC%C6%0Bs%1B%EF6%1E%00%00%00%00%00%00%00%00%00%80cr%9CW%FF%7F%C6%01%0E%F1%CE%A5%84%B3%CA%BC%E0%CB%AA%84%CE%F9%BF)%EC%13%08WU%AE%AB%B1%AE%2BO%EC%8E%CBYe%FE%8CN%ABr%5Dy%60~%CFA%0D%F4%AE%D4%BE%C75%CA%EDVB%EA(%B7%F1%09g%E5%D9%12%00%00%00%00%00%00%00%00%00H%F6%EB%13S%E7y%5E%5E%FB%98%F0%22%D1%B2'%A7%F0%92%B1%BC%24z3%AC%7Dm%60%D5%92%B4%7CEUO%5E%F0%AA*%3BU%B9%AE%3E%A0j%94%07%A0%C7%A0%AB%FD%B5%3F%A0%F7%03T%3Dy%D7%F7%D6%D4%C0%AAU%D2%E6%DFt%3F%A8%CC%AA%F2%86%B9%D7%F5%1F%18%E6%01%F8%CC%D5%9E%F0%F3z%88%AA%90%EF%20%00%00%00%00%00%00%00%00%00%C0%A6%D3%EA%CFi%AFb%2C%7BB%0A%2B%C3%1A%D7%06V%D5%07%A8r%5D%3D%D9%A6%CAu%F5%25%CF%A2%99%97zNX%60%95%AB%5DUZ%D5%FBR%03%AB%1C%D4k%9F%3F%BB%5C%FF%81a%AE%AB'%7F%F3%EA%FE%F3z%94%AA%D8%DF%5B%01%00%00%00%00%00%00%00%00%00%8E%FB%F3%F2%B1%1B%8DWU%AAT%A9R%A5J%95*U%AAT%A9R%A5J%95*U%AAT%A9R%A5J%95*U%AAT%A9R%A5J%95*U%AAT%A9R%A5J%95*U%AAT%A9R%A5J%95*U%AAT%A9R%A5J%95*UiU%C7%BBe%E7%F3%B9%CB%AAJ%95*U%AAT%A9R%A5J%95*U%AAT%A9R%A5J%95*U%AAT%A9R%A5J%95*U%AAT%A9R%A5J%95*U%AAT%A9R%A5J%95*U%AAT%A9R%A5J%95*U%AAT%A9R%A5*%AAj%FD%C6%D4%5Eo%90%B5Z%ADV%AB%D5j%B5Z%ADV%AB%D5j%B5Z%ADV%AB%D5j%B5Z%ADV%AB%D5j%B5Z%ADV%AB%D5j%B5Z%ADV%AB%D5j%B5Z%ADV%AB%D5j%B5%86%AF%1B%9F%98%DA%EBm%BBV%AB%D5j%B5Z%ADV%AB%D5j%B5Z%ADV%AB%D5j%B5Z%ADV%AB%D5j%B5Z%ADV%AB%D5j%B5Z%ADV%AB%D5j%B5Z%ADV%AB%D5j%B5Z%AD%D6%E4%F58%01%00%00%00%00%00%00%00%00%00%00%00%00%00%40%85%7F%02%0C%008%C2%D0H%16j%8FX%00%00%00%00IEND%AEB%60%82") repeat-x !important;
    border-top: 1px solid #BBBBBB !important;
    border-right: 1px dashed #BBBBBB !important;
    border-bottom: 1px solid #000000 !important;
}

.firebugRulerV {
    top: 0 !important;
    left: -15px !important;
    width: 14px !important;
    height: 100% !important;
    background: url("data:image/png,%89PNG%0D%0A%1A%0A%00%00%00%0DIHDR%00%00%00%0E%00%00%13%88%08%02%00%00%00%0E%F5%CB%10%00%00%00%04gAMA%00%00%D6%D8%D4OX2%00%00%00%19tEXtSoftware%00Adobe%20ImageReadyq%C9e%3C%00%00%06~IDATx%DA%EC%DD%D1v%A20%14%40Qt%F1%FF%FF%E4%97%D9%07%3BT%19%92%DC%40(%90%EEy%9A5%CB%B6%E8%F6%9Ac%A4%CC0%84%FF%DC%9E%CF%E7%E3%F1%88%DE4%F8%5D%C7%9F%2F%BA%DD%5E%7FI%7D%F18%DDn%BA%C5%FB%DF%97%BFk%F2%10%FF%FD%B4%F2M%A7%FB%FD%FD%B3%22%07p%8F%3F%AE%E3%F4S%8A%8F%40%EEq%9D%BE8D%F0%0EY%A1Uq%B7%EA%1F%81%88V%E8X%3F%B4%CEy%B7h%D1%A2E%EBohU%FC%D9%AF2fO%8BBeD%BE%F7X%0C%97%A4%D6b7%2Ck%A5%12%E3%9B%60v%B7r%C7%1AI%8C%BD%2B%23r%00c0%B2v%9B%AD%CA%26%0C%1Ek%05A%FD%93%D0%2B%A1u%8B%16-%95q%5Ce%DCSO%8E%E4M%23%8B%F7%C2%FE%40%BB%BD%8C%FC%8A%B5V%EBu%40%F9%3B%A72%FA%AE%8C%D4%01%CC%B5%DA%13%9CB%AB%E2I%18%24%B0n%A9%0CZ*Ce%9C%A22%8E%D8NJ%1E%EB%FF%8F%AE%CAP%19*%C3%BAEKe%AC%D1%AAX%8C*%DEH%8F%C5W%A1e%AD%D4%B7%5C%5B%19%C5%DB%0D%EF%9F%19%1D%7B%5E%86%BD%0C%95%A12%AC%5B*%83%96%CAP%19%F62T%86%CAP%19*%83%96%CA%B8Xe%BC%FE)T%19%A1%17xg%7F%DA%CBP%19*%C3%BA%A52T%86%CAP%19%F62T%86%CA%B0n%A9%0CZ%1DV%C6%3D%F3%FCH%DE%B4%B8~%7F%5CZc%F1%D6%1F%AF%84%F9%0F6%E6%EBVt9%0E~%BEr%AF%23%B0%97%A12T%86%CAP%19%B4T%86%CA%B8Re%D8%CBP%19*%C3%BA%A52huX%19%AE%CA%E5%BC%0C%7B%19*CeX%B7h%A9%0C%95%E1%BC%0C%7B%19*CeX%B7T%06%AD%CB%5E%95%2B%BF.%8F%C5%97%D5%E4%7B%EE%82%D6%FB%CF-%9C%FD%B9%CF%3By%7B%19%F62T%86%CA%B0n%D1R%19*%A3%D3%CA%B0%97%A12T%86uKe%D0%EA%B02*%3F1%99%5DB%2B%A4%B5%F8%3A%7C%BA%2B%8Co%7D%5C%EDe%A8%0C%95a%DDR%19%B4T%C66%82fA%B2%ED%DA%9FC%FC%17GZ%06%C9%E1%B3%E5%2C%1A%9FoiB%EB%96%CA%A0%D5qe4%7B%7D%FD%85%F7%5B%ED_%E0s%07%F0k%951%ECr%0D%B5C%D7-g%D1%A8%0C%EB%96%CA%A0%A52T%C6)*%C3%5E%86%CAP%19%D6-%95A%EB*%95q%F8%BB%E3%F9%AB%F6%E21%ACZ%B7%22%B7%9B%3F%02%85%CB%A2%5B%B7%BA%5E%B7%9C%97%E1%BC%0C%EB%16-%95%A12z%AC%0C%BFc%A22T%86uKe%D0%EA%B02V%DD%AD%8A%2B%8CWhe%5E%AF%CF%F5%3B%26%CE%CBh%5C%19%CE%CB%B0%F3%A4%095%A1%CAP%19*Ce%A8%0C%3BO*Ce%A8%0C%95%A12%3A%AD%8C%0A%82%7B%F0v%1F%2FD%A9%5B%9F%EE%EA%26%AF%03%CA%DF9%7B%19*Ce%A8%0C%95%A12T%86%CA%B8Ze%D8%CBP%19*Ce%A8%0C%95%D1ae%EC%F7%89I%E1%B4%D7M%D7P%8BjU%5C%BB%3E%F2%20%D8%CBP%19*Ce%A8%0C%95%A12T%C6%D5*%C3%5E%86%CAP%19*Ce%B4O%07%7B%F0W%7Bw%1C%7C%1A%8C%B3%3B%D1%EE%AA%5C%D6-%EBV%83%80%5E%D0%CA%10%5CU%2BD%E07YU%86%CAP%19*%E3%9A%95%91%D9%A0%C8%AD%5B%EDv%9E%82%FFKOee%E4%8FUe%A8%0C%95%A12T%C6%1F%A9%8C%C8%3D%5B%A5%15%FD%14%22r%E7B%9F%17l%F8%BF%ED%EAf%2B%7F%CF%ECe%D8%CBP%19*Ce%A8%0C%95%E1%93~%7B%19%F62T%86%CAP%19*Ce%A8%0C%E7%13%DA%CBP%19*Ce%A8%0CZf%8B%16-Z%B4h%D1R%19f%8B%16-Z%B4h%D1R%19%B4%CC%16-Z%B4h%D1R%19%B4%CC%16-Z%B4h%D1%A2%A52%CC%16-Z%B4h%D1%A2%A52h%99-Z%B4h%D1%A2%A52h%99-Z%B4h%D1%A2EKe%98-Z%B4h%D1%A2EKe%D02%5B%B4h%D1%A2EKe%D02%5B%B4h%D1%A2E%8B%96%CA0%5B%B4h%D1%A2E%8B%96%CA%A0e%B6h%D1%A2E%8B%96%CA%A0e%B6h%D1%A2E%8B%16-%95a%B6h%D1%A2E%8B%16-%95A%CBl%D1%A2E%8B%16-%95A%CBl%D1%A2E%8B%16-Z*%C3l%D1%A2E%8B%16-Z*%83%96%D9%A2E%8B%16-Z*%83%96%D9%A2E%8B%16-Z%B4T%86%D9%A2E%8B%16-Z%B4T%06-%B3E%8B%16-Z%B4T%06-%B3E%8B%16-Z%B4h%A9%0C%B3E%8B%16-Z%B4h%A9%0CZf%8B%16-Z%B4h%A9%0CZf%8B%16-Z%B4h%D1R%19f%8B%16-Z%B4h%D1R%19%B4%CC%16-Z%B4h%D1R%19%B4%CC%16-Z%B4h%D1%A2%A52%CC%16-Z%B4h%D1%A2%A52h%99-Z%B4h%D1%A2%A52h%99-Z%B4h%D1%A2EKe%98-Z%B4h%D1%A2EKe%D02%5B%B4h%D1%A2EKe%D02%5B%B4h%D1%A2E%8B%96%CA0%5B%B4h%D1%A2E%8B%96%CA%A0e%B6h%D1%A2E%8B%96%CA%A0e%B6h%D1%A2E%8B%16-%95a%B6h%D1%A2E%8B%16-%95A%CBl%D1%A2E%8B%16-%95A%CBl%D1%A2E%8B%16-Z*%C3l%D1%A2E%8B%16-Z*%83%96%D9%A2E%8B%16-Z*%83%96%D9%A2E%8B%16-Z%B4T%86%D9%A2E%8B%16-Z%B4T%06-%B3E%8B%16-Z%B4T%06-%B3E%8B%16-Z%B4h%A9%0C%B3E%8B%16-Z%B4h%A9%0CZf%8B%16-Z%B4h%A9%0CZf%8B%16-Z%B4h%D1R%19f%8B%16-Z%B4h%D1R%19%B4%CC%16-Z%B4h%D1R%19%B4%CC%16-Z%B4h%D1%A2%A52%CC%16-Z%B4h%D1%A2%A52h%99-Z%B4h%D1%A2%A52h%99-Z%B4h%D1%A2EKe%98-Z%B4h%D1%A2EKe%D02%5B%B4h%D1%A2EKe%D02%5B%B4h%D1%A2E%8B%96%CA0%5B%B4h%D1%A2E%8B%96%CA%A0e%B6h%D1%A2E%8B%96%CA%A0e%B6h%D1%A2E%8B%16-%95a%B6h%D1%A2E%8B%16-%95A%CBl%D1%A2E%8B%16-%95A%CBl%D1%A2E%8B%16-Z*%C3l%D1%A2E%8B%16-Z*%83%96%D9%A2E%8B%16-Z*%83%96%D9%A2E%8B%16-Z%B4T%86%D9%A2E%8B%16-Z%B4T%06-%B3E%8B%16-Z%B4%AE%A4%F5%25%C0%00%DE%BF%5C'%0F%DA%B8q%00%00%00%00IEND%AEB%60%82") repeat-y !important;
    border-left: 1px solid #BBBBBB !important;
    border-right: 1px solid #000000 !important;
    border-bottom: 1px dashed #BBBBBB !important;
}

.overflowRulerX &gt; .firebugRulerV {
    left: 0 !important;
}

.overflowRulerY &gt; .firebugRulerH {
    top: 0 !important;
}

/* * * * * * * * * * * * * * * * * * * * * * * * * * * * * * * * * * * * * * * * * * * * * * * * */
.fbProxyElement {
    position: fixed !important;
    pointer-events: auto !important;
}
</style><div xmlns="http://www.w3.org/1999/xhtml" class="firebugResetStyles firebugBlockBackgroundColor firebugLayoutBox firebugLayoutBoxOffset" style="left: 52.65px ! important; top: 53.4333px ! important;"><div class="firebugResetStyles firebugLayoutBox" style="padding: 0px ! important; background-color: rgb(237, 255, 100) ! important;"><div class="firebugResetStyles firebugLayoutBox" style="padding: 0px ! important; background-color: rgb(68, 68, 68) ! important;"><div class="firebugResetStyles firebugLayoutBox" style="padding: 0px ! important; background-color: SlateBlue ! important;"><div class="firebugResetStyles firebugLayoutBox" style="width: 28.35px ! important; height: 19.65px ! important; background-color: SkyBlue ! important;"/></div></div></div></div></svg>