<?xml version="1.0" encoding="UTF-8"?>
<!-- Generator: Adobe Illustrator 17.1.0, SVG Export Plug-In . SVG Version: 6.00 Build 0)  -->
<!DOCTYPE svg PUBLIC "-//W3C//DTD SVG 1.1//EN" "http://www.w3.org/Graphics/SVG/1.1/DTD/svg11.dtd">
<svg version="1.1" id="svg2" xmlns:svg="http://www.w3.org/2000/svg" xmlns:inkscape="http://www.inkscape.org/namespaces/inkscape" xmlns="http://www.w3.org/2000/svg" xmlns:xlink="http://www.w3.org/1999/xlink" x="0px" y="0px" viewBox="-21 -20.9 141.7 141.7" enable-background="new -21 -20.9 141.7 141.7" xml:space="preserve">
<g id="path755">
	<path fill="#231F20" d="M49.9,120.3L49.9,120.3c-10.7-3.1-21.3-10-30.5-19.7C10,90.5,2.6,78-1.9,64.4C-12,34.3-13.6,17.4-13.3-9   v-0.1h0.1c16.2-7.4,36.8-11.1,63.2-11.4c26.2,0.3,46.9,4,63.1,11.4h0.1V-9c0.2,26.3-1.4,43.2-11.4,73.5   C97.3,78,89.9,90.5,80.3,100.6C71.2,110.4,60.7,117.2,49.9,120.3L49.9,120.3z M-13-8.8c-0.2,26.2,1.4,43.1,11.4,73.2   c4.5,13.5,11.9,26,21.4,36c9.1,9.7,19.6,16.5,30.1,19.6c10.6-3.1,21-9.9,30.1-19.6c9.5-10,16.9-22.5,21.4-36   c9.9-30.1,11.5-46.9,11.4-73.2c-16.2-7.3-36.7-11.1-62.8-11.3C23.7-19.9,3.2-16.2-13-8.8z"/>
</g>
<path id="path759" fill="#231F20" d="M-8.7,1.9c0-0.3,0-0.7,0-0.9c0-1.2,0-2.4,0-3.6c0-2.8,0-2.8,0.1-3.6C-6.9-7-5-7.7-3.2-8.3  c15-5.2,31.1-7.6,47-7.6c0.3,0,0.7,0,1,0s0.8-0.1,1.2-0.1c0.9,0,1.7,0,2.7,0c0.3,0,0.8,0,1.2,0.1c0.3,0,0.8,0,1.3,0  c1.2,0,2.3,0,3.5,0c0.3,0,0.7,0,1,0c0.5,0,0.9,0,1.4,0c0.3,0,0.7,0,1,0c6.4,0.1,12.6,0.7,18.9,1.4c10.7,1.4,21.7,3.8,31.6,8.4  c0,0.3,0.1,0.8,0.1,1.3c0,0.3,0,0.7,0,1.2c0,0.2,0,0.3,0,0.6c0,1.2,0,2.3,0,3.5c0,0.3,0,0.6,0,0.9c0,0.2,0,0.3,0,0.6  c0,0.3,0,0.7,0,1c-0.3,10.2-1.3,20.4-3,30.5c-1,5.2-2.2,10.5-3.6,15.7c-0.9,2.9-1.8,5.9-2.8,8.9c-0.7,1.8-1.3,3.6-2,5.4  c-2.2,5.2-4.6,10.3-7.3,15.2c-1,1.5-2,3.1-2.9,4.7c-0.7,1-1.3,2-2,3c-2.4,3.2-2.9,3.7-3,3.9c-1.8,2.1-3.7,4-5.4,6.1  c-3.5,3.3-7.2,6.5-11.1,9.2c-1.5,0.9-2.9,1.8-4.3,2.8c-3.6,1.8-7.3,3.6-11,5.1c-0.2,0.1-0.5,0.1-0.7,0.2c-2.8-1-5.5-2.3-8.2-3.6  c-5.5-2.9-10.6-6.5-15.4-10.6c-1.5-1.4-2.9-2.8-4.3-4.2c-1.3-1.4-2.4-2.8-3.6-4.2c-3.3-4.4-3.9-5.3-4-5.4c-1.5-2.4-3-4.7-4.5-7.2  C2.6,65.6-1.9,51.6-4.8,37c-1.3-7.4-1.3-8-1.4-8C-7,23-7.6,16.9-8.1,10.8C-8.6,7.8-8.7,4.9-8.7,1.9"/>
<path id="path763" fill="#D71920" d="M49.6,60c0,17.2-0.1,34.5-0.1,51.7c-1.8-0.8-3.7-1.6-5.5-2.3c-5.9-2.9-11.2-6.4-16.2-10.6  c-1-0.9-2-1.8-2.9-2.7c-1.5-1.6-3-3.2-4.5-4.9c-3-3.8-5.9-7.7-8.4-11.9c0-0.1,0-0.1,0-0.1C24.4,72.8,37,66.4,49.6,60"/>
<path id="path767" fill="#FFFFFF" d="M66.1,65c-0.5,0-0.9,0-1.3,0c-0.7-0.2-1.3-0.9-1.5-1.5c0.2,0,0.3,0,0.6,0c0.3,0,0.7,0,1,0  c0.8,0,1.8-0.1,2.2-0.8c0-0.6,0-0.6-0.1-0.7c-1.4-0.3-2.8,0.2-4.3,0c0-0.3,0-0.6,0.1-0.9c0.2-0.1,0.5-0.2,0.8-0.3  c0.3,0,0.8,0.1,1.3,0.1c1.3-0.3,2.5-0.7,3.8-1c1.3,0,2.2,0.2,3.5,0.5c1.4-0.3,3.2-1.2,4.7-0.5c0,1-0.9,0.9-1.7,1.4  c0,0.2,0,0.3,0,0.6c0.8,0.3,1.8,0,2.5,0.6c0,0.1,0,0.3,0,0.6c-0.3,0.3-0.9,0.6-1.5,0.7c-0.1,0.2-0.1,0.2,0,0.8  c0.6,0.3,1.4,0.1,2,0.6c0,1-1.2,0.7-1.8,1.2c0,0.8,0.3,0.9,0.9,1.4c0,1-1,0.6-1.8,0.6c-0.1,0.1-0.1,0.1-0.1,0.2  c0.2,0.7,0.7,1.4,0.8,2c-0.3,0.7-1.4,0-1.7-0.2c-0.1,0-0.3,0-0.5,0c-0.3,0.7,0.6,1.5-0.1,2.2c-0.8-0.1-1.5-1-2.2-0.3  c0,0.1,0,0.1,0,0.2c1.4,1.3,2.9,2.7,4.3,4c0,0.3,2.5,2.3,3,2.7c1.2,0,2-0.5,2.7-1.4c0.6-1.4,0.5-2.5-0.9-3.3c-1.3,0-1.5,0-2.4,0.9  c-0.2,0.3-0.6,0.7-0.8,1c-0.9,0.1-1-0.6-0.9-1.3c0.6-0.9,1.2-1.6,2.1-2.1c0-0.1,0-0.1,0.1-0.1c-1.5,0-2.2,1.2-3,2.2  c-0.9,0-1-0.7-0.8-1.5c1-1,2.2-1.7,3.3-2.4c0-0.1,0-0.3,0-0.5c-0.5-1.5-0.3-2.8,0.6-4c0.2-0.3,0.6-0.6,0.8-0.8  c1.3-0.8,2.2-1,3.7-0.9c0.1,0.3,0.2,0.7,0.2,1c-3,1.3-3,1.3-3.2,1.4c0.7,0,1.4-0.1,2.1-0.2c1,0.2,2.2,0.8,0.8,1.6  c-1.7-0.2-2.4-0.7-3.3,1c0.1,2.2,2.1,2.8,3.3,4.3c0.1,0.5,0.3,0.8,0.6,1.3c0,0.3,0,0.7,0.1,1.2c-0.1,0.6-0.3,1.2-0.5,1.7  c-1,1.8-3,2.7-5.1,2.4c-0.1,0.8-0.2,1.6-0.2,2.4c0.1,0.5,0.2,0.8,0.3,1.3c0.1,0,0.2,0,0.3,0.1c0.5-0.2,0.6-0.6,1.2-0.6  c1.7,3.2-1.2,7-3.5,9c0,0.3,0.1,0.7,0.2,1c-0.2,0.8-0.8,1.3-1.5,0.6c0-0.3,0-0.6,0-0.8l0.1-0.1c-0.1-1.2-2.7-0.3-3.2,0  c-0.1,0.3-0.3,0.6-0.5,0.9c-1.8,0,0.2-2.3,0.5-2.7c0-1.4-1.3-0.2-2-0.9c0-0.2,0-0.3,0-0.6c0.6-0.6,2.4,0.2,2.2-0.9  c-0.7-0.3-1.2-0.3-1-1.2c0.6-0.3,1-0.5,1.7-0.1c0.6,0.9,0.8,2,2.1,1.7c0.8-0.5,1.5-1.7,1.7-2.7c-1-1.2-2.2-2.2-3-3.6  c0-0.9,0.2-1.7,0.3-2.7c-1.3,0.6-2.4,1.3-3.7,1.8c-1.3,1-0.8,1.5,0.1,2.7c0,0.2,0,0.5,0.1,0.7c-1,2-3.3,3.1-4.7,4.7  c0,0.3,0.1,0.7,0.2,1c-0.1,0.3-0.7,0.9-1,0.9c-0.6-0.6-0.3-0.9-0.3-1.6c-0.6-0.6-2.7-0.3-3.3,0.2c-0.1,0.3-0.2,0.7-0.3,1  c-1.5-0.3-0.1-2.1,0.6-2.5c0.1-1.3-1.2-0.6-2-1c0-0.7-0.1-0.6,0.5-0.8c0.5,0,2,0.3,1.7-0.6c-0.3-0.2-0.8-0.6-1.2-0.8  c0-0.1,0-0.2,0-0.3c1.5-1.3,2,0.3,2.9,1.5c0.3,0,0.6,0.1,0.8,0.1c0.6-0.6,1.3-1.2,1.7-1.8h0.1c0.1-0.3,0.3-0.6,0.5-0.8  c0-1.3-1.2-2.7-1.5-4c0-2.8,3.2-2.2,5-3.1c0-1.2-2-2.8-3.1-3c-1.7,0.8-3.5,1.7-4.7,3.1c0.2,0.7,0.5,1.8-0.7,1.8  c-0.1-0.1-0.2-0.2-0.3-0.3c0-0.3,0.1-0.8-0.1-1.3c-0.9-0.3-2-0.3-2.9,0.1c-0.2,0.3-0.5,0.9-0.7,1.3c-0.1,0-0.2,0-0.3,0  c-1.3-1.3,1.7-2.3,0.6-3.3c-0.6,0-1-0.1-1.5-0.1c-0.1-0.1-0.2-0.3-0.2-0.6c0.3-0.3,1.6-0.2,2.2-0.2c0.3-0.9-0.3-0.9-1-1.4  c0-1.2,1.3-0.9,1.8-0.3c0.3,0.6,0.8,2,1.7,1.7c1.4-1,2.7-2.1,4-3.1c0-0.1,0-0.1,0-0.1c-1.7-1-3.7-1.7-5.5-2.4  c-0.8-0.1-0.9,0.1-1.5,0.7c-0.5,0-0.9-0.1-1.3-0.3c0-0.8,0.8-0.7,1.2-1.2c-0.1-1.2-0.8-1.7-1.7-2.5c-0.3,0-0.6,0.1-1.4,0.1  c0-0.8,0.2-0.7,1-1c0.6,0.1,1.3,0.3,1.8,0c0-0.1,0.1-0.3,0.1-0.5c-0.3-0.5-0.7-1-0.7-1.6c0.2,0,0.5,0,0.7,0c0.3,0.6,0.6,1.4,1.5,1.4  c0.2-0.5,0.1-0.8,0.1-1.3c0.1-0.1,0.2-0.2,0.5-0.3c1.6,0.3,0.6,2,0.2,2.9c0,0.2,0,0.5,0,0.7c1.7,1,4,1.5,5.9,2.2  c1.8-1.5,4.5-2.2,6.6-3.3C73.6,62.9,66.3,65,66.1,65"/>
<path id="path771" fill="#FFFFFF" d="M31.2,73.5c-0.3,0.3-0.7,0.7-1,1.2c0,3.2,0,6.5,0,9.7c0.3,0.3,0.6,0.6,0.9,0.9c1.6,0,3.3,0,5,0  c0.3-0.3,0.7-0.7,1-1c0-3.2,0-6.4,0-9.6c-0.3-0.3-0.7-0.7-1-1C34.4,73.5,32.9,73.5,31.2,73.5z M32.4,75.7c0.8,0,1.6,0,2.4,0  c0,2.4,0,5,0,7.5c-0.8,0-1.6,0-2.4,0C32.4,80.7,32.4,78.2,32.4,75.7z"/>
<path id="path779" fill="#FFFFFF" d="M11,77.9c-2.3-4.2-4.4-8.4-6.4-12.8C3.9,63,3.1,61,2.3,58.9c0-0.1,0-0.2,0-0.3  C37.1,40.9,71.9,23.1,106.8,5.3c0.1,5.7-0.7,11.4-1.3,17.1c-0.3,2.7-0.8,5.3-1.2,8C73.3,46.3,42.2,62.1,11,77.9"/>
<path id="path787" fill="#231F20" d="M15.2,74c-0.8-0.3-1.7-0.6-2.5-0.9c-0.5-1-1-2-1.5-3c3-1.5,3-1.5,3.1-1.5  c0.3,0.6,0.6,1.3,0.9,1.8c1.2-0.6,2.3-1.2,3.6-1.7c-0.6-1.3-1.3-2.4-1.8-3.7c-1.3,0-3.8,2-5.4,2.4c-0.7-0.2-1.4-0.5-2.1-0.7  c-3-5.9-3-5.9-3.2-6.5c0.2-0.7,0.5-1.4,0.7-2c2.2-1.2,4.4-2.3,6.7-3.3c0.8,0.2,1.7,0.5,2.5,0.8c0.5,1,1,2,1.5,3  c-1,0.5-2.1,1-3.1,1.5c-0.2-0.5-0.6-1.4-1-1.7c-1.2,0.6-2.3,1.3-3.5,1.8c0.6,1.2,1.2,2.2,1.7,3.3c0.1,0,0.1,0,0.2,0  c1.6-0.8,3.3-1.7,5-2.5c0.7,0.2,1.5,0.5,2.2,0.7c1,2.1,2.2,4.3,3.2,6.4c-0.2,0.8-0.6,1.5-0.8,2.3C19.6,71.7,17.3,72.8,15.2,74"/>
<path id="path791" fill="#231F20" d="M25.8,68.5c-0.7-0.2-1.4-0.5-2.1-0.7c-2.2-4.3-4.4-8.7-6.6-12.9c0.2-0.7,0.5-1.4,0.7-2.1  c2.3-1.2,4.7-2.3,7-3.5c0.7,0.2,1.4,0.5,2.1,0.6c0.5,1,1,2,1.5,3c-1,0.5-2.1,1-3,1.5c-0.2-0.3-0.7-1.2-0.8-1.5  c-1.2,0.6-2.3,1.2-3.5,1.7c0,0.1,0,0.2,0,0.3c1.6,3.2,3.3,6.5,5,9.8c0.6,0,3.3-1.4,3.6-1.7c-1-2.2-1-2.2-1.3-2.8c1-0.6,2-1,3-1.5  c0.7,1.4,1.4,2.7,2.1,4C33,64.6,33,64.6,32.7,65C26.3,68.3,26.3,68.3,25.8,68.5"/>
<path id="path795" fill="#231F20" d="M35.5,63.6c-0.5-0.9-0.9-1.8-1.3-2.8c0.3-0.2,0.7-0.3,1-0.6c-1.7-3.3-3.5-6.8-5.1-10.2  c-0.5,0.1-0.8,0.3-1.3,0.5c-0.5-0.9-0.8-1.8-1.3-2.8c1.7-0.9,3.6-1.7,5.3-2.7c0.5,0.8,0.8,1.7,1.3,2.7c0,0.2-0.9,0.6-1,0.7  c0.6,1.2,1.2,2.3,1.7,3.5c0.9-0.5,1.7-0.9,2.7-1.4c0-0.8-1.3-2.7-1.6-3.6c-0.2,0.1-1,0.6-1.3,0.5c-0.5-0.9-0.9-1.8-1.4-2.8  c1.7-0.9,3.6-1.7,5.3-2.7c0.3,0.8,1.2,1.8,1.3,2.8c-0.3,0.1-0.7,0.3-0.9,0.5c1.7,3.3,3.3,6.7,5.1,10c0.5,0,0.8-0.3,1.3-0.3  c0.3,0.8,0.8,1.7,1.3,2.7c-0.1,0.1-0.1,0.1-0.2,0.2c-4.9,2.4-4.9,2.4-5.1,2.4c-0.5-0.9-1-1.8-1.3-2.8c0.3-0.1,0.7-0.3,1-0.5  c-0.6-1.2-1.2-2.3-1.7-3.5c-0.1-0.1-0.2-0.2-0.2-0.3c-0.9,0.5-1.7,0.9-2.7,1.4c0.3,1.3,1.2,2.5,1.7,3.7c0.3,0,0.8-0.3,1.2-0.5  c0.5,0.9,0.9,1.7,1.4,2.7C39.1,61.8,37.4,62.7,35.5,63.6"/>
<path id="path799" fill="#FFFFFF" d="M59.4,61.3L59.4,61.3c0.3,0.6,1.5,0.9,2.1,1.2c-0.8,0-1.6-0.1-2.4-0.3v0.1c1,0.7,3,0.5,4.2,0.6  c0.2,0,0.5,0.1,0.7,0.1c-0.1,0.1-0.1,0.1-2.5,0.2C61,63,60.8,63,60.5,63c-0.7,0-1.3,0-2,0c-1.4,0.2-2.7,0.1-3.8-0.7  c0.1-0.8,0.3-0.8,0.9-1.4c0-0.1,0-0.3,0.1-0.5c-0.2-0.5-0.2-0.5-0.8-1.3c1.3,0.1,1.7,0.1,2.1,1.3c0.1,0.1,0.2,0.2,0.3,0.5l0.1-0.1  c0-0.7-0.3-1-0.8-1.6c1.2,0,2,0.2,2.2,1.4C59,60.8,59.2,61.1,59.4,61.3"/>
<path id="path803" fill="#FFFFFF" d="M63.8,63c-0.2-0.1-0.5-0.1-0.7-0.1c0-0.1-1-0.3-2.9-1.2c-0.2-0.1-0.5-0.3-0.7-0.5l-0.1,0.1  h-0.1c-0.2-0.9-0.8-1.7-1.3-2.5c1.6,0.3,1.8,0.5,2.4,2c0.6,0.7,1.5,1,2.3,1.5c0.6,0.2,1.2,0.3,1.6,0.6C64.2,62.9,64,62.9,63.8,63"/>
<path id="path807" fill="#484749" d="M59.4,61.3C59.4,61.3,59.5,61.3,59.4,61.3c0.2,0,0.5,0.2,0.7,0.3c1.8,0.8,2.9,1,2.9,1.2  c-1.2-0.1-3.1,0.1-4.2-0.6c0-0.1,0-0.1,0-0.1c0.8,0.1,1.6,0.3,2.4,0.3C60.8,62.2,59.8,61.9,59.4,61.3"/>
<path id="path811" fill="#231F20" d="M68.9,61.5c0.1-0.9,1.3-1.3,1.8-0.6C70.2,61.2,69.5,61.3,68.9,61.5"/>
<path id="path815" fill="#231F20" d="M47.1,37.9c-1.5,0.8-3.1,1.5-4.6,2.3c0.2,0.9,0.8,1.8,1.3,2.8c0.2,0,0.2,0,0.8-0.2  c0.9,3.8,1.8,7.6,2.9,11.3c-0.3,0.1-0.3,0.1-0.5,0.5c0.5,0.8,0.9,1.7,1.3,2.5c1.3-0.7,2.7-1.4,3.9-2.1c0-0.7-1-2.1-1.4-2.8  c-0.2,0.1-0.5,0.2-0.6,0.2c-0.1-0.3-0.1-0.3-0.2-1c0.7-0.3,1.4-0.7,2.1-1c0.2,0.2,0.3,0.3,0.6,0.6c-0.1,0.3-0.5,0.3-0.5,0.7  c0.3,0.8,0.8,1.7,1.3,2.5c1.4-0.7,2.8-1.4,4.3-2.1c-0.5-0.9-0.9-1.7-1.3-2.7c-0.3,0-0.3,0.1-0.8,0c-2.4-2.9-5-5.7-7.4-8.4  c-0.1-0.1-0.1-0.2-0.2-0.3c0.1-0.1,0.2-0.2,0.3-0.3C48,39.7,47.5,38.8,47.1,37.9z M48.9,46.9c0.6,0.6,1,1.3,1.5,1.8  c-0.5,0.3-0.5,0.3-1,0.7C49.3,48.7,48.8,47.4,48.9,46.9z"/>
<path id="path819" fill="#FFFFFF" d="M8.4,54c0.1-1.7,0.1-3.3,0.2-5.1c2.9-1.3,5.7-2.5,8.5-3.8c-0.1,3.9-0.1,3.9-0.3,4.6  C14,51.1,11.1,52.5,8.4,54"/>
<path id="path823" fill="#FFFFFF" d="M0.3,52.3c-0.5-1.7-0.5-1.7-0.6-2.4c0.2-6.8,0.2-6.8,0.3-7.4c2.8-1.3,5.7-2.5,8.4-3.8  c-0.1,3.3-0.2,6.7-0.3,10C5.5,49.9,2.9,51.1,0.3,52.3"/>
<path id="path827" fill="#231F20" d="M58.7,51.7c-0.5-0.9-1-1.8-1.3-2.9c0.8-0.3,0.8-0.3,1-0.6c-1.7-3.3-3.5-6.8-5.2-10.2  c-1,0.6-1,0.6-1.2,0.5c-0.2-0.3-1.5-2.4-1.3-2.7c0.6-0.2,4.2-2.4,4.5-2.2c1.7,1.7,3.5,3.5,5.3,5.2h0.1c-0.6-1.3-1.2-2.4-1.7-3.6  c-1,0.5-1,0.5-1.3,0.3c-0.5-0.9-0.9-1.7-1.3-2.7c0.7-0.2,0.7-0.2,5.4-2.7c0.5,0.9,0.8,1.7,1.3,2.7c-0.3,0.2-0.7,0.5-1,0.7  c1.7,3.3,3.5,6.8,5.2,10.2c0.9-0.5,0.9-0.5,1.2-0.5c0.5,0.8,0.8,1.7,1.3,2.7c0,0.2-3.8,2.3-4.3,2.2c-2.2-2.2-4.3-4.3-6.4-6.4  c0,0.2,2.2,4.5,2.3,4.9c0.3,0,0.7-0.2,1-0.3c1.3,2.4,1.3,2.4,1.4,2.9C62.2,50,60.5,50.8,58.7,51.7"/>
<path id="path835" fill="#231F20" d="M70.3,29.7c-0.1,0-0.1,0-2.5,1.3c0.1,0.3,0.1,0.3,0.9,2.1c-1,0.5-2,0.9-2.9,1.4  c-0.8-1.6-1.6-3.2-2.4-4.7c3-1.6,6.1-3.1,9.1-4.7c0.5,0.9,1,2,1.5,2.9c0,0.6,0,12.8,0.1,12.8c0.7-0.3,1.4-0.7,2.1-1  c-0.1-0.3-0.1-0.3-1.2-2.4c2.7-1.4,2.7-1.4,3-1.5c0.8,1.7,1.7,3.3,2.5,5.1c-3,1.5-6.1,3.1-9.1,4.6c-0.3,0-1.3-2.2-1.5-2.7  C70,42,70.2,33,70.3,29.7"/>
<path id="path839" fill="#FFFFFF" d="M26.3,44.9c0-1.5,0.1-2.9,0.1-4.3c2.8-1.3,5.7-2.7,8.4-3.9c0,1.3-0.1,2.5-0.1,3.8  C31.9,42,29,43.4,26.3,44.9"/>
<path id="path843" fill="#FFFFFF" d="M17.5,44.3c0.3-9.8,0.3-9.8,0.5-10.2c2.8-1.3,5.7-2.7,8.4-3.9c-0.1,3.3-0.3,6.7-0.5,10  C23.2,41.7,20.3,42.9,17.5,44.3"/>
<path id="path847" fill="#FFFFFF" d="M-2.1,43.2c-0.6-2.9-1.3-5.9-1.8-8.8c0-0.1,0-0.2,0-0.3c1.3-0.6,2.7-1.2,3.9-1.7  c-0.1,3.3-0.2,6.7-0.3,10.2C-1,42.6-1.6,42.8-2.1,43.2"/>
<path id="path851" fill="#D9DBDC" d="M74,40.5C74,40.5,74,40.2,74,40.5"/>
<path id="path855" fill="#231F20" d="M81.8,39.9c-1.2-2.3-1.2-2.3-1.3-2.8c0.3-0.1,0.7-0.3,1-0.5c-1.2-2.4-5.1-10-5.2-10.3  c-0.3,0.1-0.7,0.3-1,0.6c-0.5-0.2-1.4-2.1-1.5-2.8c3.3-1.7,6.7-3.5,10.2-5.2c0.1,0,0.1,0,0.2,0c0.3,0.7,2.3,3.9,2.1,4.5  c-0.9,0.5-2,0.9-2.9,1.4c-0.3-0.2-0.7-1.3-0.8-1.6c-0.2,0-0.2,0-3,1.5c-0.2,0.6,1.4,3.1,1.6,3.7c0.8-0.3,1.6-0.8,2.4-1.2  c0.5,0.9,0.9,1.7,1.4,2.7c-0.6,0.2-2.1,0.8-2.3,1.3c0.6,1.3,1.3,2.4,2,3.7c1-0.6,2-1,3-1.5c-0.3-0.7-0.7-1.5-1-2.2  c0.3-0.2,2.7-1.5,3-1.4c2,3.6,2,3.6,2.4,4.7C88.6,36.5,85.3,38.2,81.8,39.9"/>
<path id="path859" fill="#FFFFFF" d="M8.9,37.9c0.1-3.3,0.2-6.7,0.3-10c2.8-1.3,5.5-2.7,8.4-3.9c0,0.6,0,1.3,0.1,1.8  c-0.3,8-0.3,8-0.5,8.2C14.6,35.3,11.7,36.6,8.9,37.9"/>
<path id="path863" fill="#FFFFFF" d="M35.4,35.9c0.1-3.3,0.1-6.7,0.5-10c2.8-1.3,5.7-2.7,8.4-3.9c-0.1,3.3-0.2,6.7-0.3,10  C41.1,33.2,38.3,34.5,35.4,35.9"/>
<path id="path867" fill="#FFFFFF" d="M49.6,29.9c0,1,0,2.1,0,3.1c-1.7,0.9-3.6,1.8-5.3,2.8c0-1.2,0.1-2.4,0.1-3.6  C46.1,31.4,47.8,30.7,49.6,29.9"/>
<path id="path871" fill="#231F20" d="M94.2,13.9c-0.5,0.1-0.5,0.1-8.8,4.4c0.1,0.5,1,2.8,1.5,2.8c0.3-0.2,0.7-0.3,0.9-0.5  c1.7,3.3,3.5,6.8,5.2,10.2c-0.3,0.1-0.7,0.3-1,0.6c0.5,0.9,0.9,1.8,1.4,2.9c1.7-0.9,3.5-1.8,5.2-2.7c-0.1-0.9-0.8-1.8-1.3-2.7  c-0.5,0-0.8,0.2-1.2,0.2c-0.5-0.9-1.6-2.7-1.6-3.7c1.3,0.8,2.4,1.7,3.7,2.5v0.1c-0.1,0.1-0.2,0.1-0.3,0.2c-0.1,0.5,1,2.7,1.4,2.8  c3.6-1.8,3.6-1.8,4.3-2.3c-1-2.2-1-2.2-1.4-2.7c-0.3,0.1-0.3,0.2-0.7,0.2c-3.7-2.4-3.7-2.4-3.8-2.7c0.3-0.2,0.6-0.3,0.9-0.6  c0.2-0.7,0.8-1.7,0.8-2.5c-1-2-2-3.8-3-5.8C95.6,14.5,94.9,14.3,94.2,13.9z M93.7,17.8c0.6,1,1.2,2.2,1.6,3.2c0,0.5-2,1.2-2.4,1.4  c-0.6-1.2-1.2-2.2-1.7-3.3C91.5,18.4,93,18,93.7,17.8z"/>
<path id="path875" fill="#D71920" d="M51,8.6c1.4,0,2.9,0,4.3,0c0.5,0,0.9,0,1.5,0c0.3,0,0.7,0,1.2,0C68.7,9,79.5,9.8,90,12.3  c-13.1,6.6-26.1,13.3-39.2,20c0-8-0.1-15.8-0.1-23.7C50.8,8.6,50.9,8.6,51,8.6"/>
<path id="path879" fill="#FFFFFF" d="M0.4,31.5c0.1-3.3,0.2-6.7,0.3-10c2.8-1.3,5.7-2.7,8.4-3.9c-0.1,3.2-0.2,6.4-0.3,9.6  c-0.1,0.1-0.1,0.3-0.1,0.6C5.9,28.8,3.2,30.2,0.4,31.5"/>
<path id="path883" fill="#FFFFFF" d="M27,29.5c0-3.3-0.1-6.8,0.3-10.2c2.8-1.3,5.7-2.7,8.4-3.9c0.1,0.1,0.1,0.1-0.3,10  C32.5,26.9,29.7,28.3,27,29.5"/>
<path id="path887" fill="#FFFFFF" d="M-5.6,24c-0.2-2.2-0.5-4.3-0.7-6.4c2.7-1,2.7-1,6.8-2.5c-0.1,2.1-0.2,4-0.3,6.1  C-1.7,22.1-3.6,23.1-5.6,24"/>
<path id="path891" fill="#FFFFFF" d="M18.3,23.1c0.1-3.3,0.2-6.8,0.3-10.2c2.3-1,4.5-2.1,6.8-3.1c0.6-0.1,1-0.1,1.6-0.1  c-0.1,3.1-0.3,6.4-0.5,9.6C24,20.5,21.2,21.8,18.3,23.1"/>
<path id="path899" fill="#FFFFFF" d="M49.6,9.1c0,3.3,0,6.6,0,9.9c-1.6,0.7-3.2,1.5-4.9,2.2c0.1-3.3,0.2-6.7,0.3-10  C46.6,10.4,48.1,9.8,49.6,9.1"/>
<path id="path903" fill="#FFFFFF" d="M9.8,16.7c0.1-1.4,0.1-2.9,0.2-4.3c5-1,5-1,8.4-1.6c0,1.7,0,1.7-0.1,2  C15.4,14.1,12.5,15.4,9.8,16.7"/>
<path id="path907" fill="#FFFFFF" d="M-7.1,1.5c0-1.4,0-2.7,0-4c0-2.1,0-2.1,0.1-2.4c3.6-1.4,7-2.7,10.7-3.8c1.4-0.3,2.8-0.7,4.2-1  c6.1-1.3,6.1-1.3,6.2-1.4c6.5-1.2,6.5-1.2,10.7-1.7c2.9-0.3,5.7-0.6,8.5-0.8c5.4-0.2,11-0.3,16.4-0.3c0.3,0,0.6,0,0.8,0  c3.9,0,3.9,0,11.4,0.1c5.7,0.3,11.3,0.8,17,1.6c3,0.6,5.9,1,8.9,1.6c6.6,1.5,12.8,3.5,19.1,6c0,1,0,2.1,0,3.1c0,0.5,0,0.9,0,1.4  c0,0.6,0,1.3,0,2c0,0.3,0,2,0,2.2c0,0-9.9,5-14.8,7.5c-4.9-1-9.7-2-14.6-2.7c-3-0.3-5.9-0.7-8.9-0.9C49,6.4,28.7,6.4,9.1,10.9  C5.3,12,1.6,13-2.3,14.3c-1.4,0.6-2.8,1-4,1.6c-0.3-1.7-0.3-3.8-0.5-5.5C-7,7.4-7,4.4-7.1,1.5"/>
<path id="path911" fill="#FFFFFF" d="M42,8.7c0.3,0,0.6,0,0.9,0c0.6,0,1.3-0.1,1.8-0.1c0,0.7-0.1,1.5-0.1,2.2  c-0.5,0.3-0.5,0.3-8.3,3.9c0-2,0.1-3.9,0.1-5.9C38.3,8.9,40.1,8.7,42,8.7"/>
<path id="path915" fill="#D71920" d="M-1,0.1c0-0.6,0-1,0-1.5c-0.3,0.1-0.6,0.1-0.8,0.2c0-0.7,0-1.4,0-2.1c2.5-0.5,5.2-1.3,7.7-1.6  c0,1,0,2.2,0,3.2C5.1-1.5,4.4-1.3,3.8-1.2c0-0.5-0.1-0.8-0.1-1.3C2.8-2.3,2-2.1,1.3-2c0,0.8,0,1.7,0,2.5c0.6-0.1,1.2-0.2,1.7-0.3  c0,0.7,0,1.3,0,2C2.5,2.3,1.9,2.4,1.3,2.5c0,0.9,0,1.7,0,2.7c0.2-0.1,0.6-0.1,0.8-0.1c0,0.7,0,1.3,0,2c-1.4,0.2-2.7,0.6-4,0.8  c0-0.7,0-1.3,0-2c0.2-0.1,0.6-0.1,0.8-0.1C-1,4-1,2-1,0.1"/>
<path id="path919" fill="#D71920" d="M93.5,6.8c0-0.7,0-1.3,0.1-2c0.2,0,0.3,0.1,0.6,0.1c0-2.4,0-4.9,0-7.3  c-0.2-0.1-0.5-0.1-0.7-0.1c0,0.5-0.1,0.9-0.1,1.4c-0.6-0.1-1.3-0.2-1.8-0.3c0-0.3,0-2.7,0-3.3c2.5,0.5,5.1,1,7.6,1.5  c0,1,0,2.2,0,3.3c-0.6-0.1-1.3-0.2-1.8-0.3c0-0.5-0.1-0.9-0.1-1.4c-0.2-0.1-0.3-0.1-0.6-0.1c0,2.4-0.1,4.9-0.1,7.4  c0.2,0,0.6,0.1,0.8,0.1c0,0.7-0.1,1.3-0.1,2C96,7.2,94.8,7,93.5,6.8"/>
<path id="path923" fill="#D71920" d="M6.6,5.4c0-1.4,0-7.6,0-9.5c0.5-0.6,0.7-0.8,1-1.2c1.6-0.2,3.2-0.6,4.9-0.8  c0.6,0,0.9,0.3,1.4,0.8c0,0.7,0,1.5,0,2.2c-0.7,0.1-1.5,0.2-2.2,0.3c-0.1-0.3-0.1-0.7-0.1-1c-0.9,0.1-1.7,0.2-2.7,0.3  c0,2.1-0.1,4.3-0.1,6.4c0,0.3,0,0.6,0,0.9c0.9-0.1,1.7-0.3,2.7-0.5c0-0.7,0-1.3,0-2c0.8-0.1,1.5-0.2,2.3-0.3c0,0.9,0,2,0,2.9  c-0.3,0.3-0.8,0.8-1.2,1.3c-1.7,0.2-3.3,0.6-5.1,0.8C7.2,5.9,6.9,5.6,6.6,5.4"/>
<path id="path927" fill="#D71920" d="M82.9,4.9c0-0.3,0-1.6,0-2c0.2,0,0.6,0.1,0.8,0.1c0-0.8,0-5.7,0-7.3c-0.3-0.1-0.6-0.1-0.8-0.1  c0-0.7,0-1.4,0-2.1c2.2,0.3,4.3,0.7,6.5,1c0.5,0.5,0.9,0.8,1.4,1.3c0,3.1,0,6.1,0,9.2c-0.6,0.3-1,0.7-1.6,0.8  C87.1,5.6,84.9,5.3,82.9,4.9"/>
<path id="path931" fill="#DF725A" d="M6.6,5.4C6.5,4,6.6,4,6.6,5.4"/>
<path id="path935" fill="#F2CABA" d="M82.9,4.9C82.9,4.6,82.9,4.6,82.9,4.9"/>
<path id="path939" fill="#D71920" d="M77.9,2.3c0,0.7,0,1.3,0,2c-1-0.1-2.1-0.2-3.1-0.3c0-0.7,0-1.3,0-2c0.1,0,0.2,0,0.5,0  c0.6-2.4,1.2-4.7,1.7-7.2c-0.1,0-0.2,0-0.3,0c0-0.3,0-1.7,0-2.1c1.2,0.1,2.3,0.3,3.6,0.5c0,0.7,0,1.3,0,2c-0.1,0-0.2,0-0.3,0.1  c0.6,2.4,1.3,5,2,7.5c0.1,0,0.2,0.1,0.5,0.1c0,0.6,0,1.3,0,2c-1-0.1-2.1-0.2-3.1-0.3c0-0.7,0-1.4,0-2c0.1,0,0.3,0,0.6,0.1  c-0.1-0.2-0.1-0.5-0.2-0.7c-0.6-0.1-1-0.1-1.5-0.2c-0.1,0.2-0.1,0.3-0.2,0.6C77.7,2.3,77.8,2.3,77.9,2.3"/>
<path id="path943" fill="#D71920" d="M19.5,4.4c0-0.7,0-1.3,0-2c0.2,0,0.6-0.1,0.8-0.1c0-2.4,0-4.9,0-7.3c-0.3,0-0.6,0-0.8,0.1  c0-0.1,0-0.3,0-0.5c0-0.6,0-1,0-1.5c1.3-0.1,2.7-0.3,4-0.5c0,0.7,0,1.4,0,2.1c-0.2,0-0.6,0.1-0.8,0.1c0,2.4,0,4.9,0,7.3  c0.2,0,0.5-0.1,0.8-0.1c0,0.7,0,1.4,0,2.1C22.1,4,20.7,4.1,19.5,4.4"/>
<path id="path947" fill="#E89C84" d="M82.9,3C82.9,3.3,82.9,3.3,82.9,3"/>
<path id="path951" fill="#D71920" d="M25.1,1.7c0-0.7,0-1.4,0.1-2.1c0-1.7,0-3.5,0-5.2c-0.3,0-0.6,0-0.9,0.1c0-0.7,0-1.4,0.1-2  c2.8-0.3,2.8-0.3,3.5-0.2c0.6,1.5,1,2.9,1.6,4.4c0,0,0.1,0.1,0.1-2.7c-0.1,0-0.2,0-0.2,0c-0.2,0-0.3,0-0.6,0.1c0-0.7,0-1.3,0-2  c1.4-0.1,2.7-0.2,4-0.3c0,0.7,0,1.3,0,2c-0.3,0-0.6,0-0.8,0.1c0,2.4,0,4.9,0,7.3c0.2,0,0.6,0,0.8,0c0,0.7,0,1.4,0,2.1  c-3,0.2-3,0.2-3.3,0.1c-0.7-1.7-1.3-3.6-2-5.3c0,1.2,0,2.3,0.1,3.5c0.2,0,0.3,0,0.6,0c0,0.7,0,1.3,0,2c-1.3,0.1-2.7,0.2-3.9,0.3  c0-0.7,0-1.4,0-2.1C24.5,1.7,24.8,1.7,25.1,1.7"/>
<path id="path955" fill="#FFFFFF" d="M86.1,3.4c0-2.4,0-4.9,0-7.3c0.7,0.1,1.4,0.2,2.1,0.3c0,1.2,0,6,0,7.3  C87.5,3.7,86.8,3.5,86.1,3.4"/>
<path id="path959" fill="#D71920" d="M68.2,3.2c0-0.7,0-1.3,0-2c0.2,0,0.5,0,0.7,0.1c0-2.4,0-5,0-7.4c-0.2,0-0.5,0-0.6,0  c0,0.5-0.1,0.8-0.1,1.3c-0.7-0.1-1.3-0.1-2-0.1c0-1.2,0-2.2,0-3.3c2.5,0.2,5.1,0.5,7.6,0.7c0,1.2,0.1,2.2,0.1,3.3  c-0.7-0.1-1.3-0.1-2-0.1c0-0.5-0.1-0.9-0.1-1.4c-0.2,0-0.5,0-0.7,0c0,2.4,0,4.9,0,7.3c0.2,0,0.5,0,0.8,0.1c0,0.7,0,1.4,0,2.1  C70.9,3.5,69.6,3.3,68.2,3.2"/>
<path id="path963" fill="#D71920" d="M58.3,1.5c0-0.8,0-1.5,0-2.2c0.8,0,1.5,0.1,2.3,0.1c0,0.5,0,0.9,0.1,1.4c0.9,0,1.7,0.1,2.7,0.1  c0-0.9,0-1.8-0.1-2.8C62-2,60.7-2,59.4-2.1c-0.3-0.3-0.7-0.7-1-1c0-1.5,0-3.1,0-4.6c0.3-0.3,0.7-0.6,1-0.8C64-8.5,64-8.5,64.6-8.3  C65-8,65.4-7.5,65.8-7.2c0,0.7,0,1.5,0,2.2c-0.8-0.1-1.6-0.1-2.4-0.1c0-0.5,0-0.9,0-1.3c-0.9-0.1-1.7-0.1-2.7-0.1c0,0.8,0,1.6,0,2.5  c1.4,0,2.7,0.1,4,0.3c0.3,0.3,0.7,0.7,1,1c0,1.5,0,3.1,0,4.7c-0.3,0.3-0.7,0.6-1,0.9C63,3,61.3,2.9,59.5,2.7  C59.1,2.2,58.7,1.8,58.3,1.5"/>
<path id="path967" fill="#D71920" d="M33.3,1.9c0-3.1,0-6.4,0-9.5c0.3-0.3,0.6-0.7,0.9-0.9c1.8-0.1,4-0.5,5.8-0.2  c0.3,0.3,0.7,0.6,1,0.9c0,0.7,0,1.5,0,2.2c-0.8,0-1.6,0.1-2.3,0.1c0-0.3,0-0.8,0-1.2c-1,0-2,0.1-3,0.1c0,2.4,0,4.9,0,7.3  c1-0.1,2-0.1,3-0.1c0-0.7,0-1.3,0-2c-0.7,0-1.3,0-2,0.1c0-0.7,0-1.4,0-2.1c1-0.1,2.1-0.1,3.1-0.1c0.3,0.3,0.8,0.7,1.2,1  c0,1.3,0,2.5,0,3.9c-0.3,0.3-0.7,0.7-1,1c-1.8,0.1-3.8,0.1-5.7,0.2C34,2.6,33.7,2.3,33.3,1.9"/>
<path id="path971" fill="#D71920" d="M53.3,2.5c-0.3,0-2.2-0.1-2.8,0c-0.2,0-0.3,0-0.6,0c0-0.7,0-1.4,0-2c0.2,0,0.5,0,0.8,0  c0-2.4,0-4.9,0-7.3c-0.3,0-0.6,0-0.8,0c0-0.7,0-1.4,0-2.1c0.6,0,1.2,0,1.7,0c0.3,0,2,0,2.2,0.1c0,0.7,0,1.4,0,2.1  c-0.2,0-0.6,0-0.8,0c0,2.4,0,4.9,0,7.3c0.7,0,1.5,0,2.2,0c0-0.5,0.1-1,0.1-1.5c0.7,0,1.5,0,2.2,0.1c0,1.2,0,2.3,0,3.5  C56.2,2.6,54.7,2.5,53.3,2.5"/>
<path id="path975" fill="#D71920" d="M44.3-8.9c0.3,0,0.6,0,0.9,0c0,0,0,0,0.1,0c0.3,0,0.8,0,1.3,0c0.5,0,0.8,0,1.3,0  c0.3,0.3,0.8,0.7,1.2,1c0,3.1,0,6.1,0,9.2c-0.3,0.3-0.8,0.9-1.3,1c-0.6,0-2.5,0-2.9,0c-0.8,0-1.5,0-2.2,0c-0.3-0.2-0.6-0.6-0.8-0.8  c0-3.1,0-6.4,0-9.5c0.3-0.3,0.7-0.7,1-1C43.4-8.8,43.8-8.9,44.3-8.9"/>
<path id="path979" fill="#E89C84" d="M6.6-4.1C6.6-2.3,6.5-2.3,6.6-4.1"/>
<path id="path983" fill="#FFFFFF" d="M44.2,0.5c0-2.4,0-5,0-7.4c0.1,0,0.2,0,0.3,0c0.3,0,0.7,0,1,0c0.3,0,0.7,0,1,0  c0,2.4,0,4.9,0,7.3c-0.1,0-0.2,0-0.2,0c-0.3,0-0.8,0-1.2,0C44.9,0.5,44.5,0.5,44.2,0.5"/>
<path id="path987" fill="#FFFFFF" d="M78.5,0.2c-0.2,0-0.3-0.1-0.6-0.1c0.2-0.9,0.2-0.9,0.5-1.5c0.1,0.5,0.2,1,0.3,1.5  C78.7,0.1,78.6,0.2,78.5,0.2"/>
<path id="path991" fill="#FFFFFF" d="M43.7,73.7c-0.8,0-1.5,0-2.2,0c-1.3,2-2.8,3.9-3.9,6c0.2,0.7,0.5,1.3,0.8,2c0.9,0,2,0,2.9,0  c0,0.5,0,1,0,1.5c-0.2,0-0.6,0-0.8,0c0,0.7,0,1.4,0,2.1c1.3,0,2.7,0,4,0c0-0.7,0-1.4,0-2.1h-0.7c0-0.6,0-1,0-1.5c0.2,0,0.5,0,0.7,0  c0-0.7,0-1.3,0-2c-0.2,0-0.6,0-0.8,0C43.7,77.7,43.7,75.6,43.7,73.7z M41.5,77.2v2.4h-1.7L41.5,77.2z"/>
<style xmlns="http://www.w3.org/1999/xhtml" charset="utf-8" type="text/css" class="firebugResetStyles">/* See license.txt for terms of usage */
/** reset styling **/
.firebugResetStyles {
    z-index: 2147483646 !important;
    top: 0 !important;
    left: 0 !important;
    display: block !important;
    border: 0 none !important;
    margin: 0 !important;
    padding: 0 !important;
    outline: 0 !important;
    min-width: 0 !important;
    max-width: none !important;
    min-height: 0 !important;
    max-height: none !important;
    position: fixed !important;
    transform: rotate(0deg) !important;
    transform-origin: 50% 50% !important;
    border-radius: 0 !important;
    box-shadow: none !important;
    background: transparent none !important;
    pointer-events: none !important;
    white-space: normal !important;
}
style.firebugResetStyles {
    display: none !important;
}

.firebugBlockBackgroundColor {
    background-color: transparent !important;
}

.firebugResetStyles:before, .firebugResetStyles:after {
    content: "" !important;
}
/**actual styling to be modified by firebug theme**/
.firebugCanvas {
    display: none !important;
}

/* * * * * * * * * * * * * * * * * * * * * * * * * * * * * * * * * * * * * * * * * * * * * * * * */
.firebugLayoutBox {
    width: auto !important;
    position: static !important;
}

.firebugLayoutBoxOffset {
    opacity: 0.8 !important;
    position: fixed !important;
}

.firebugLayoutLine {
    opacity: 0.4 !important;
    background-color: #000000 !important;
}

.firebugLayoutLineLeft, .firebugLayoutLineRight {
    width: 1px !important;
    height: 100% !important;
}

.firebugLayoutLineTop, .firebugLayoutLineBottom {
    width: 100% !important;
    height: 1px !important;
}

.firebugLayoutLineTop {
    margin-top: -1px !important;
    border-top: 1px solid #999999 !important;
}

.firebugLayoutLineRight {
    border-right: 1px solid #999999 !important;
}

.firebugLayoutLineBottom {
    border-bottom: 1px solid #999999 !important;
}

.firebugLayoutLineLeft {
    margin-left: -1px !important;
    border-left: 1px solid #999999 !important;
}

/* * * * * * * * * * * * * * * * * * * * * * * * * * * * * * * * * * * * * * * * * * * * * * * * */
.firebugLayoutBoxParent {
    border-top: 0 none !important;
    border-right: 1px dashed #E00 !important;
    border-bottom: 1px dashed #E00 !important;
    border-left: 0 none !important;
    position: fixed !important;
    width: auto !important;
}

.firebugRuler{
    position: absolute !important;
}

.firebugRulerH {
    top: -15px !important;
    left: 0 !important;
    width: 100% !important;
    height: 14px !important;
    background: url("data:image/png,%89PNG%0D%0A%1A%0A%00%00%00%0DIHDR%00%00%13%88%00%00%00%0E%08%02%00%00%00L%25a%0A%00%00%00%04gAMA%00%00%D6%D8%D4OX2%00%00%00%19tEXtSoftware%00Adobe%20ImageReadyq%C9e%3C%00%00%04%F8IDATx%DA%EC%DD%D1n%E2%3A%00E%D1%80%F8%FF%EF%E2%AF2%95%D0D4%0E%C1%14%B0%8Fa-%E9%3E%CC%9C%87n%B9%81%A6W0%1C%A6i%9A%E7y%0As8%1CT%A9R%A5J%95*U%AAT%A9R%A5J%95*U%AAT%A9R%A5J%95*U%AAT%A9R%A5J%95*U%AAT%A9R%A5J%95*U%AAT%A9R%A5J%95*U%AAT%A9R%A5J%95*U%AATE9%FE%FCw%3E%9F%AF%2B%2F%BA%97%FDT%1D~K(%5C%9D%D5%EA%1B%5C%86%B5%A9%BDU%B5y%80%ED%AB*%03%FAV9%AB%E1%CEj%E7%82%EF%FB%18%BC%AEJ8%AB%FA'%D2%BEU9%D7U%ECc0%E1%A2r%5DynwVi%CFW%7F%BB%17%7Dy%EACU%CD%0E%F0%FA%3BX%FEbV%FEM%9B%2B%AD%BE%AA%E5%95v%AB%AA%E3E5%DCu%15rV9%07%B5%7F%B5w%FCm%BA%BE%AA%FBY%3D%14%F0%EE%C7%60%0EU%AAT%A9R%A5J%95*U%AAT%A9R%A5J%95*U%AAT%A9R%A5J%95*U%AAT%A9R%A5J%95*U%AAT%A9R%A5JU%88%D3%F5%1F%AE%DF%3B%1B%F2%3E%DAUCNa%F92%D02%AC%7Dm%F9%3A%D4%F2%8B6%AE*%BF%5C%C2Ym~9g5%D0Y%95%17%7C%C8c%B0%7C%18%26%9CU%CD%13i%F7%AA%90%B3Z%7D%95%B4%C7%60%E6E%B5%BC%05%B4%FBY%95U%9E%DB%FD%1C%FC%E0%9F%83%7F%BE%17%7DkjMU%E3%03%AC%7CWj%DF%83%9An%BCG%AE%F1%95%96yQ%0Dq%5Dy%00%3Et%B5'%FC6%5DS%95pV%95%01%81%FF'%07%00%00%00%00%00%00%00%00%00%F8x%C7%F0%BE%9COp%5D%C9%7C%AD%E7%E6%EBV%FB%1E%E0(%07%E5%AC%C6%3A%ABi%9C%8F%C6%0E9%AB%C0'%D2%8E%9F%F99%D0E%B5%99%14%F5%0D%CD%7F%24%C6%DEH%B8%E9rV%DFs%DB%D0%F7%00k%FE%1D%84%84%83J%B8%E3%BA%FB%EF%20%84%1C%D7%AD%B0%8E%D7U%C8Y%05%1E%D4t%EF%AD%95Q%BF8w%BF%E9%0A%BF%EB%03%00%00%00%00%00%00%00%00%00%B8vJ%8E%BB%F5%B1u%8Cx%80%E1o%5E%CA9%AB%CB%CB%8E%03%DF%1D%B7T%25%9C%D5(%EFJM8%AB%CC'%D2%B2*%A4s%E7c6%FB%3E%FA%A2%1E%80~%0E%3E%DA%10x%5D%95Uig%15u%15%ED%7C%14%B6%87%A1%3B%FCo8%A8%D8o%D3%ADO%01%EDx%83%1A~%1B%9FpP%A3%DC%C6'%9C%95gK%00%00%00%00%00%00%00%00%00%20%D9%C9%11%D0%C0%40%AF%3F%EE%EE%92%94%D6%16X%B5%BCMH%15%2F%BF%D4%A7%C87%F1%8E%F2%81%AE%AAvzr%DA2%ABV%17%7C%E63%83%E7I%DC%C6%0Bs%1B%EF6%1E%00%00%00%00%00%00%00%00%00%80cr%9CW%FF%7F%C6%01%0E%F1%CE%A5%84%B3%CA%BC%E0%CB%AA%84%CE%F9%BF)%EC%13%08WU%AE%AB%B1%AE%2BO%EC%8E%CBYe%FE%8CN%ABr%5Dy%60~%CFA%0D%F4%AE%D4%BE%C75%CA%EDVB%EA(%B7%F1%09g%E5%D9%12%00%00%00%00%00%00%00%00%00H%F6%EB%13S%E7y%5E%5E%FB%98%F0%22%D1%B2'%A7%F0%92%B1%BC%24z3%AC%7Dm%60%D5%92%B4%7CEUO%5E%F0%AA*%3BU%B9%AE%3E%A0j%94%07%A0%C7%A0%AB%FD%B5%3F%A0%F7%03T%3Dy%D7%F7%D6%D4%C0%AAU%D2%E6%DFt%3F%A8%CC%AA%F2%86%B9%D7%F5%1F%18%E6%01%F8%CC%D5%9E%F0%F3z%88%AA%90%EF%20%00%00%00%00%00%00%00%00%00%C0%A6%D3%EA%CFi%AFb%2C%7BB%0A%2B%C3%1A%D7%06V%D5%07%A8r%5D%3D%D9%A6%CAu%F5%25%CF%A2%99%97zNX%60%95%AB%5DUZ%D5%FBR%03%AB%1C%D4k%9F%3F%BB%5C%FF%81a%AE%AB'%7F%F3%EA%FE%F3z%94%AA%D8%DF%5B%01%00%00%00%00%00%00%00%00%00%8E%FB%F3%F2%B1%1B%8DWU%AAT%A9R%A5J%95*U%AAT%A9R%A5J%95*U%AAT%A9R%A5J%95*U%AAT%A9R%A5J%95*U%AAT%A9R%A5J%95*U%AAT%A9R%A5J%95*U%AAT%A9R%A5J%95*UiU%C7%BBe%E7%F3%B9%CB%AAJ%95*U%AAT%A9R%A5J%95*U%AAT%A9R%A5J%95*U%AAT%A9R%A5J%95*U%AAT%A9R%A5J%95*U%AAT%A9R%A5J%95*U%AAT%A9R%A5J%95*U%AAT%A9R%A5*%AAj%FD%C6%D4%5Eo%90%B5Z%ADV%AB%D5j%B5Z%ADV%AB%D5j%B5Z%ADV%AB%D5j%B5Z%ADV%AB%D5j%B5Z%ADV%AB%D5j%B5Z%ADV%AB%D5j%B5Z%ADV%AB%D5j%B5%86%AF%1B%9F%98%DA%EBm%BBV%AB%D5j%B5Z%ADV%AB%D5j%B5Z%ADV%AB%D5j%B5Z%ADV%AB%D5j%B5Z%ADV%AB%D5j%B5Z%ADV%AB%D5j%B5Z%ADV%AB%D5j%B5Z%AD%D6%E4%F58%01%00%00%00%00%00%00%00%00%00%00%00%00%00%40%85%7F%02%0C%008%C2%D0H%16j%8FX%00%00%00%00IEND%AEB%60%82") repeat-x !important;
    border-top: 1px solid #BBBBBB !important;
    border-right: 1px dashed #BBBBBB !important;
    border-bottom: 1px solid #000000 !important;
}

.firebugRulerV {
    top: 0 !important;
    left: -15px !important;
    width: 14px !important;
    height: 100% !important;
    background: url("data:image/png,%89PNG%0D%0A%1A%0A%00%00%00%0DIHDR%00%00%00%0E%00%00%13%88%08%02%00%00%00%0E%F5%CB%10%00%00%00%04gAMA%00%00%D6%D8%D4OX2%00%00%00%19tEXtSoftware%00Adobe%20ImageReadyq%C9e%3C%00%00%06~IDATx%DA%EC%DD%D1v%A20%14%40Qt%F1%FF%FF%E4%97%D9%07%3BT%19%92%DC%40(%90%EEy%9A5%CB%B6%E8%F6%9Ac%A4%CC0%84%FF%DC%9E%CF%E7%E3%F1%88%DE4%F8%5D%C7%9F%2F%BA%DD%5E%7FI%7D%F18%DDn%BA%C5%FB%DF%97%BFk%F2%10%FF%FD%B4%F2M%A7%FB%FD%FD%B3%22%07p%8F%3F%AE%E3%F4S%8A%8F%40%EEq%9D%BE8D%F0%0EY%A1Uq%B7%EA%1F%81%88V%E8X%3F%B4%CEy%B7h%D1%A2E%EBohU%FC%D9%AF2fO%8BBeD%BE%F7X%0C%97%A4%D6b7%2Ck%A5%12%E3%9B%60v%B7r%C7%1AI%8C%BD%2B%23r%00c0%B2v%9B%AD%CA%26%0C%1Ek%05A%FD%93%D0%2B%A1u%8B%16-%95q%5Ce%DCSO%8E%E4M%23%8B%F7%C2%FE%40%BB%BD%8C%FC%8A%B5V%EBu%40%F9%3B%A72%FA%AE%8C%D4%01%CC%B5%DA%13%9CB%AB%E2I%18%24%B0n%A9%0CZ*Ce%9C%A22%8E%D8NJ%1E%EB%FF%8F%AE%CAP%19*%C3%BAEKe%AC%D1%AAX%8C*%DEH%8F%C5W%A1e%AD%D4%B7%5C%5B%19%C5%DB%0D%EF%9F%19%1D%7B%5E%86%BD%0C%95%A12%AC%5B*%83%96%CAP%19%F62T%86%CAP%19*%83%96%CA%B8Xe%BC%FE)T%19%A1%17xg%7F%DA%CBP%19*%C3%BA%A52T%86%CAP%19%F62T%86%CA%B0n%A9%0CZ%1DV%C6%3D%F3%FCH%DE%B4%B8~%7F%5CZc%F1%D6%1F%AF%84%F9%0F6%E6%EBVt9%0E~%BEr%AF%23%B0%97%A12T%86%CAP%19%B4T%86%CA%B8Re%D8%CBP%19*%C3%BA%A52huX%19%AE%CA%E5%BC%0C%7B%19*CeX%B7h%A9%0C%95%E1%BC%0C%7B%19*CeX%B7T%06%AD%CB%5E%95%2B%BF.%8F%C5%97%D5%E4%7B%EE%82%D6%FB%CF-%9C%FD%B9%CF%3By%7B%19%F62T%86%CA%B0n%D1R%19*%A3%D3%CA%B0%97%A12T%86uKe%D0%EA%B02*%3F1%99%5DB%2B%A4%B5%F8%3A%7C%BA%2B%8Co%7D%5C%EDe%A8%0C%95a%DDR%19%B4T%C66%82fA%B2%ED%DA%9FC%FC%17GZ%06%C9%E1%B3%E5%2C%1A%9FoiB%EB%96%CA%A0%D5qe4%7B%7D%FD%85%F7%5B%ED_%E0s%07%F0k%951%ECr%0D%B5C%D7-g%D1%A8%0C%EB%96%CA%A0%A52T%C6)*%C3%5E%86%CAP%19%D6-%95A%EB*%95q%F8%BB%E3%F9%AB%F6%E21%ACZ%B7%22%B7%9B%3F%02%85%CB%A2%5B%B7%BA%5E%B7%9C%97%E1%BC%0C%EB%16-%95%A12z%AC%0C%BFc%A22T%86uKe%D0%EA%B02V%DD%AD%8A%2B%8CWhe%5E%AF%CF%F5%3B%26%CE%CBh%5C%19%CE%CB%B0%F3%A4%095%A1%CAP%19*Ce%A8%0C%3BO*Ce%A8%0C%95%A12%3A%AD%8C%0A%82%7B%F0v%1F%2FD%A9%5B%9F%EE%EA%26%AF%03%CA%DF9%7B%19*Ce%A8%0C%95%A12T%86%CA%B8Ze%D8%CBP%19*Ce%A8%0C%95%D1ae%EC%F7%89I%E1%B4%D7M%D7P%8BjU%5C%BB%3E%F2%20%D8%CBP%19*Ce%A8%0C%95%A12T%C6%D5*%C3%5E%86%CAP%19*Ce%B4O%07%7B%F0W%7Bw%1C%7C%1A%8C%B3%3B%D1%EE%AA%5C%D6-%EBV%83%80%5E%D0%CA%10%5CU%2BD%E07YU%86%CAP%19*%E3%9A%95%91%D9%A0%C8%AD%5B%EDv%9E%82%FFKOee%E4%8FUe%A8%0C%95%A12T%C6%1F%A9%8C%C8%3D%5B%A5%15%FD%14%22r%E7B%9F%17l%F8%BF%ED%EAf%2B%7F%CF%ECe%D8%CBP%19*Ce%A8%0C%95%E1%93~%7B%19%F62T%86%CAP%19*Ce%A8%0C%E7%13%DA%CBP%19*Ce%A8%0CZf%8B%16-Z%B4h%D1R%19f%8B%16-Z%B4h%D1R%19%B4%CC%16-Z%B4h%D1R%19%B4%CC%16-Z%B4h%D1%A2%A52%CC%16-Z%B4h%D1%A2%A52h%99-Z%B4h%D1%A2%A52h%99-Z%B4h%D1%A2EKe%98-Z%B4h%D1%A2EKe%D02%5B%B4h%D1%A2EKe%D02%5B%B4h%D1%A2E%8B%96%CA0%5B%B4h%D1%A2E%8B%96%CA%A0e%B6h%D1%A2E%8B%96%CA%A0e%B6h%D1%A2E%8B%16-%95a%B6h%D1%A2E%8B%16-%95A%CBl%D1%A2E%8B%16-%95A%CBl%D1%A2E%8B%16-Z*%C3l%D1%A2E%8B%16-Z*%83%96%D9%A2E%8B%16-Z*%83%96%D9%A2E%8B%16-Z%B4T%86%D9%A2E%8B%16-Z%B4T%06-%B3E%8B%16-Z%B4T%06-%B3E%8B%16-Z%B4h%A9%0C%B3E%8B%16-Z%B4h%A9%0CZf%8B%16-Z%B4h%A9%0CZf%8B%16-Z%B4h%D1R%19f%8B%16-Z%B4h%D1R%19%B4%CC%16-Z%B4h%D1R%19%B4%CC%16-Z%B4h%D1%A2%A52%CC%16-Z%B4h%D1%A2%A52h%99-Z%B4h%D1%A2%A52h%99-Z%B4h%D1%A2EKe%98-Z%B4h%D1%A2EKe%D02%5B%B4h%D1%A2EKe%D02%5B%B4h%D1%A2E%8B%96%CA0%5B%B4h%D1%A2E%8B%96%CA%A0e%B6h%D1%A2E%8B%96%CA%A0e%B6h%D1%A2E%8B%16-%95a%B6h%D1%A2E%8B%16-%95A%CBl%D1%A2E%8B%16-%95A%CBl%D1%A2E%8B%16-Z*%C3l%D1%A2E%8B%16-Z*%83%96%D9%A2E%8B%16-Z*%83%96%D9%A2E%8B%16-Z%B4T%86%D9%A2E%8B%16-Z%B4T%06-%B3E%8B%16-Z%B4T%06-%B3E%8B%16-Z%B4h%A9%0C%B3E%8B%16-Z%B4h%A9%0CZf%8B%16-Z%B4h%A9%0CZf%8B%16-Z%B4h%D1R%19f%8B%16-Z%B4h%D1R%19%B4%CC%16-Z%B4h%D1R%19%B4%CC%16-Z%B4h%D1%A2%A52%CC%16-Z%B4h%D1%A2%A52h%99-Z%B4h%D1%A2%A52h%99-Z%B4h%D1%A2EKe%98-Z%B4h%D1%A2EKe%D02%5B%B4h%D1%A2EKe%D02%5B%B4h%D1%A2E%8B%96%CA0%5B%B4h%D1%A2E%8B%96%CA%A0e%B6h%D1%A2E%8B%96%CA%A0e%B6h%D1%A2E%8B%16-%95a%B6h%D1%A2E%8B%16-%95A%CBl%D1%A2E%8B%16-%95A%CBl%D1%A2E%8B%16-Z*%C3l%D1%A2E%8B%16-Z*%83%96%D9%A2E%8B%16-Z*%83%96%D9%A2E%8B%16-Z%B4T%86%D9%A2E%8B%16-Z%B4T%06-%B3E%8B%16-Z%B4%AE%A4%F5%25%C0%00%DE%BF%5C'%0F%DA%B8q%00%00%00%00IEND%AEB%60%82") repeat-y !important;
    border-left: 1px solid #BBBBBB !important;
    border-right: 1px solid #000000 !important;
    border-bottom: 1px dashed #BBBBBB !important;
}

.overflowRulerX &gt; .firebugRulerV {
    left: 0 !important;
}

.overflowRulerY &gt; .firebugRulerH {
    top: 0 !important;
}

/* * * * * * * * * * * * * * * * * * * * * * * * * * * * * * * * * * * * * * * * * * * * * * * * */
.fbProxyElement {
    position: fixed !important;
    pointer-events: auto !important;
}
</style><div xmlns="http://www.w3.org/1999/xhtml" class="firebugResetStyles firebugBlockBackgroundColor firebugLayoutBox firebugLayoutBoxOffset" style="left: 983.85px ! important; top: 47.3167px ! important;"><div class="firebugResetStyles firebugLayoutBox" style="padding: 0px ! important; background-color: rgb(237, 255, 100) ! important;"><div class="firebugResetStyles firebugLayoutBox" style="padding: 0px ! important; background-color: rgb(68, 68, 68) ! important;"><div class="firebugResetStyles firebugLayoutBox" style="padding: 0px ! important; background-color: SlateBlue ! important;"><div class="firebugResetStyles firebugLayoutBox" style="width: 28.7667px ! important; height: 44.7833px ! important; background-color: SkyBlue ! important;"/></div></div></div></div></svg>