<?xml version="1.0" encoding="UTF-8"?>
<!-- Generator: Adobe Illustrator 15.1.0, SVG Export Plug-In . SVG Version: 6.00 Build 0)  -->
<!DOCTYPE svg PUBLIC "-//W3C//DTD SVG 1.1//EN" "http://www.w3.org/Graphics/SVG/1.1/DTD/svg11.dtd">
<svg version="1.1" id="Ebene_1" xmlns="http://www.w3.org/2000/svg" xmlns:xlink="http://www.w3.org/1999/xlink" x="0px" y="0px" width="141.732px" height="141.733px" viewBox="0 0 141.732 141.733" enable-background="new 0 0 141.732 141.733" xml:space="preserve">
<path fill="#FFFFFF" d="M132.747,70.896c0.026-0.05,0.021-0.075,0.05-0.13c0.142-0.295,0.234-0.65,0.234-1.02  c0-0.284-0.059-0.577-0.199-0.859c-0.071-0.148-0.197-0.254-0.307-0.374c0.117-0.336,0.293-0.85,0.293-0.85  c0.04-0.163,0.061-0.327,0.061-0.487c0-0.598-0.283-1.157-0.79-1.505c-0.667-0.458-1.567-0.445-2.237,0.031  c-0.521,0.334-0.886,0.942-1.228,1.548c-0.219-0.234-0.446-0.387-0.919-0.271c-0.589,0.146-0.512,0.258-0.991,0.951  c-1.699,2.479-3.96,6.382-6.563,6.517c-0.562-0.066-0.735-0.231-1.41-1.293c-5.625-8.959-12.535-14.268-21.688-20.785  c-0.532-0.454-1.694-2.263-2.818-4.009c-1.939-3.021-4.141-6.443-6.368-8.011c-1.699-1.228-3.517-1.882-5.27-2.515  c-2.122-0.766-4.134-1.488-5.937-3.21c-0.72-0.706-1.37-1.652-2.119-2.75c-1.526-2.23-3.481-4.957-7.195-7.363  c0.091-0.54,0.208-1.271,0.208-2.167c0-1.098-0.305-2.818-0.8-3.732c-0.376-0.697-0.965-1.103-1.519-1.235  c-1.015-0.246-2.646,0.127-3.739,0.62c2.168-6.398,7.239-10.625,9.885-12.812c1.467-1.214,2.304-1.906,2.304-2.843  c0-0.151-0.021-0.309-0.064-0.476c-0.383-1.728-2.297-1.816-3.12-1.855l-0.155-0.008c-1.118-0.029-4.691,0.094-7.281,2.067  c-0.763,0.203-1.436,0.518-2.046,0.903c-0.031-0.108-0.026-0.223-0.077-0.329c-0.311-0.673-1.13-1.334-2.498-1.161  c-2.562,0.392-4.004,1.058-4.978,1.593c-0.063,0.037-0.258,0.154-0.258,0.154c-0.895,0.536-2.341,1.461-3.418,3.616  c-1.024,0.759-2.171,1.921-2.604,3.666c-1.104,0.757-2.012,2.037-2.077,3.689c-0.684,0.805-1.099,1.658-1.29,2.552  c-1.093-0.958-2.392-1.609-3.93-1.867l-0.109-0.018l-0.112-0.002c-0.481-0.01-1.484-0.029-2.247,0.738l-0.193,0.196l-0.114,0.25  c-0.117,0.26-0.161,0.507-0.161,0.737c0,0.616,0.328,1.093,0.459,1.284l0.086,0.129c0.021,0.046,0.27,1.25,0.27,1.25l0.157,1.32  c0.403,2.176,1.338,3.311,2.527,4.321c-0.255,0.768-0.397,1.477-0.397,2.094c0,1.052,0.276,1.912,0.522,2.667  c0,0,0.065,0.204,0.108,0.347c0.014,0.122,0.026,0.25,0.026,0.403c0,1.494-0.575,4.405-1.027,6.125  c-0.001,0.007-0.177,0.571-0.177,0.571c-0.336,1.049-0.94,2.938-0.94,5.02c0,0.75,0.08,1.525,0.274,2.295  c0.393,1.313,1.403,2.885,2.813,3.559c0.051,0.023,0.792,0.319,0.792,0.319c0.708,0.269,0.923,0.349,1.223,0.834  c0.262,0.404,0.37,1.705,0.37,3.062c0,1.003-0.059,2.039-0.161,2.766l-0.014,0.1c0,0-0.001,0.109-0.001,0.112  c0,0.729,0.461,1.4,1.155,1.673c0.595,0.237,1.496,0.204,2.23-0.594c0.481-0.489,0.895-1.034,1.259-1.612  c0.096,0.143,0.117,0.335,0.256,0.454l0.062,0.056l0.07,0.048c0.255,0.178,0.556,0.243,0.858,0.269  c-0.91,0.618-2.018,1.316-3.51,2.209c-8.586,1.351-14.273,4.477-15.342,8.306C17.255,72.817,8.457,86.749,8.457,101.938  c0,21.943,17.85,39.795,39.785,39.795c21.953,0,39.812-17.852,39.812-39.795c0-5.198-1.06-10.232-2.955-14.92  c0.144-0.065,0.328-0.152,0.512-0.241c0.133,0.145,0.267,0.286,0.267,0.286c0.501,0.601,1.489,1.322,2.291,1.343  c0.801,0.021,1.304-0.084,1.304-0.084s0.051-0.015,0.091-0.025c0.066,0.117,0.444,0.771,0.444,0.771  c0.786,1.206,2.058,1.174,2.741,1.156c0.424-0.012,0.729-0.02,1.102,0.146c0.388,0.179,0.531,0.723,0.72,1.938l0.152,0.892  c0.223,0.968,0.786,1.422,1.092,1.665c0,0,0.008,0.011,0.011,0.014c0.062,0.303,0.253,1.28,0.253,1.28  c0.145,1.056,0.304,2.254,1.417,2.728c-0.026-0.011,0.029-0.011,0.104-0.01c0.178,0.886,0.216,1.961,1.249,2.582  c0.236,0.145,0.539,0.17,0.843,0.199c0.013,0.046,0.029,0.099,0.029,0.099c0.268,1.358,1.347,1.702,1.754,1.833  c0,0,0.016,0.006,0.021,0.006c0.062,0.103,0.676,1.105,0.676,1.105c0.434,0.778,0.837,1.517,1.378,1.961l0.246,0.205l0.309,0.089  c0.158,0.042,0.314,0.062,0.468,0.065c1.311,1.672,4.907,7.035,4.907,12.016c0,0.235-0.008,0.474-0.026,0.705  c-0.231,3.39-1.62,5.123-2.537,6.268c-1.05,1.312-1.097,2.846-1.097,3.447c0,0.031,0,0.058,0,0.087  c0.129,1.46,0.895,1.944,1.454,2.297c0.594,0.319,2.268,1.02,4.615,0.038c1.937-0.807,2.351-2.263,2.62-3.222  c0.128-0.438,0.211-0.715,0.351-0.852c0.895-0.871,1.938-2.129,2.075-4.179c0.014-0.167,0.021-0.338,0.021-0.517  c0-1.729-0.557-3.904-1.089-5.841c-0.22-0.822-0.515-2.762-0.576-4.527c0.757,1.047,1.396,2.102,1.771,2.746l0.19,0.319  c0.502,0.854,1.934,3.288,1.934,5.662c0,0.261-0.018,0.52-0.056,0.777c-0.264,1.594-0.764,2.517-1.347,3.581  c-0.604,1.104-1.29,2.354-1.668,4.378c-0.046,0.275-0.07,0.549-0.07,0.809c0,1.104,0.416,2.067,1.191,2.727  c1.089,0.923,2.718,1.102,4.474,0.489c2.173-0.782,3.664-3.249,4.138-6.597c0.278-0.199,0.564-0.407,0.564-0.407  c0.565-0.633,0.718-1.351,0.718-1.955c0-0.508-0.107-0.933-0.165-1.153c-1.159-4.67-1.362-6.951-1.362-8.786  c0-0.494,0.015-0.957,0.028-1.423l-0.074-3.988c-0.14-1.22-0.716-2.153-1.229-2.666c-0.232-0.27-0.86-0.982-0.86-0.982  c-0.629-0.645-1.409-1.444-1.579-2.149c-0.22-0.918-0.308-2.06-0.308-3.338c0-2.23,0.261-4.868,0.512-7.456  c0.271-2.777,0.538-5.467,0.538-7.847c0-1.027-0.071-1.974-0.188-2.868c6.47,0.201,9.408-6.464,10.406-8.737l0.169-0.384  c0.186-0.487,0.261-0.903,0.261-1.259C133.272,71.59,133.019,71.174,132.747,70.896z M54.211,48.067  c0.089-0.689,0.17-1.161,0.251-1.684c0.149,0.071,0.352,0.094,0.538,0.132c0.197,1.094,0.863,1.669,1.332,1.979  c0,0.003,0.322,1.268,0.322,1.268c0.018,0.038,0.059,0.087,0.079,0.126c-0.428,0.342-0.899,0.741-1.499,1.274l-0.89,0.792  c-0.816,0.729-1.478,1.311-2.133,1.857C53.198,52.177,53.98,49.817,54.211,48.067z"/>
<path fill="#EC2227" d="M9.983,101.938c0-21.137,17.141-38.271,38.26-38.271c21.145,0,38.287,17.136,38.287,38.271  c0,21.141-17.143,38.27-38.287,38.27C27.124,140.207,9.983,123.079,9.983,101.938z"/>
<path fill="#FFFFFF" d="M14.617,101.938c0-18.588,15.083-33.653,33.67-33.653c18.58,0,33.659,15.068,33.659,33.653  c0,18.583-15.079,33.646-33.659,33.646C29.698,135.583,14.617,120.523,14.617,101.938z"/>
<path fill="#EC2227" d="M48.287,70.764c-17.212,0-31.173,13.958-31.173,31.171c0,17.219,13.962,31.167,31.173,31.167  c17.203,0,31.162-13.949,31.162-31.167C79.449,84.722,65.489,70.764,48.287,70.764z"/>
<path fill="#010101" stroke="#010101" stroke-width="0.127" d="M81.032,81.823c-0.643-0.664-1.22-1.566-1.22-1.566  c-6.901-9.998-18.452-16.583-31.539-16.583l-0.068,0.085c-0.506,0.104-1.034,0.42-1.754,0.83c-1.162,0.611-2.391,0.651-3.593,0.712  c-0.964-0.061-0.294-1.258-0.881-1.059c-0.682,0.187-2.18,0.703-2.827,1.11c-0.062,1.481-4.545,3.026-6.959,1.86  c0.283-3.546,6.171-6.624,14.603-7.893c5.255-3.133,5.997-3.952,9.456-7.016c1.556-1.379,2.27-1.946,2.77-2.05  c0.223-0.094,0.067-0.231-0.113-0.24c-0.475-0.202-0.695-0.526-0.871-0.903c-0.273-0.583-0.09-1.274-0.485-1.639  c-0.457-0.318-1.029-0.549-1.089-1.313c-0.028-0.391-0.055-1.009-0.616-1.053c-0.785,0.026-1.065,0.192-1.156-1.417  c-0.038-0.701-0.016-1.837-0.38-1.867c-0.527-0.052-1.045,1.712-1.612,6.046c-0.413,3.152-2.289,6.721-2.938,6.27  c-0.625-0.545-0.096-3.799-1.053-5.249c-0.148-0.263,0.31,3.57-2.583,6.521c-0.396,0.431-0.742,0.177-0.739-0.042  c0.11-0.798,0.498-5.432-0.427-6.849c-0.727-1.164-1.51-1.225-2.647-1.721c-0.943-0.451-1.721-1.648-1.993-2.562  c-0.763-2.963,0.582-6.11,0.843-7.119c0.255-0.977,1.289-5.378,1.032-7.213c-0.42-1.398-1.062-2.667-0.139-4.829  c0.139-0.227,0.25-0.392,0.066-0.582c-1.381-1.062-2.303-1.899-2.695-4c-0.229-1.237-0.038-1.787-0.51-2.858  c-0.165-0.429-0.538-0.671-0.409-0.952c0.293-0.294,0.735-0.294,1.135-0.288c2.289,0.382,3.659,1.663,4.525,3.06  c0.297-0.588,0.537-0.945,0.954-1.355c-0.09-1.415,0.565-2.486,1.505-3.41c-0.159-1.757,1.039-2.828,1.883-3.215  c0.133-1.501,1.032-2.604,2.459-3.604c0.97-2.223,2.4-2.94,3.24-3.456c0.894-0.491,2.166-1.068,4.434-1.417  c0.977-0.123,1.184,0.484,0.73,0.901c-1.471,1.19-4.905,4.854-6.301,8.917c0.445-0.788,1.513-2.129,2.842-2.761  c0.749-1.957,2.574-2.965,3.675-3.507c0.645-1.179,2.064-2.659,4.126-3.099c2.315-1.985,6.097-1.935,6.559-1.922  c0.764,0.041,1.727,0.03,1.883,0.732c0.268,1.007-11.228,6.924-12.991,18.854c-0.063,0.53,2.821-2.722,5.835-2.229  c0.17,0.075,0.301,0.199,0.381,0.371c1.401,3.032,0.069,5.818,0.41,6.026c5.964,3.506,7.261,7.939,9.827,10.448  c3.61,3.446,7.843,3.314,11.384,5.866c3.365,2.375,7.22,10.367,9.181,12.017c8.476,6.036,15.617,11.329,21.279,20.358  c0.751,1.178,1.224,1.883,2.677,2.016c3.157-0.084,5.76-3.819,7.868-7.226c0.117-0.179,0.268-0.229,0.394-0.13  c0.252,0.194,0.11,0.698,0.375,0.728c0.689,0.097,1.275-1.963,1.978-2.415c0.277-0.2,0.697-0.029,0.606,0.326  c-0.209,0.787-0.7,1.702-0.734,2.301c0,0.147,0.128,0.113,0.204,0.021c0.132-0.153,0.311-0.209,0.454-0.182  c0.295,0.063,0.269,0.445,0.181,0.63c-0.261,0.484-0.481,0.981-0.515,1.547c-0.015,0.482,0.371,0.137,0.603,0.27  c0.325,0.149,0.262,0.537,0.085,1.001c-0.881,1.948-3.585,9.093-10.009,8.167c-0.82-0.146-1.243-0.742-0.994,0.18  c1.642,5.534-1.592,17.55-0.22,23.271c0.394,1.639,2.25,2.958,2.823,3.812c0.337,0.325,0.724,1.005,0.809,1.764  c0.434,4.881-0.809,5.341,1.448,14.438c0.19,0.742,0.167,1.292-0.22,1.729c-0.4,0.463-0.702,0.263-0.825,0.691  c-0.296,2.935-1.504,5.253-3.228,5.873c-2.383,0.828-3.939-0.296-3.595-2.304c0.674-3.631,2.417-4.325,3.023-8.019  c0.456-3.128-1.438-6.345-2.078-7.439c-0.597-1.001-2.112-3.729-3.988-5.467c-0.25-0.304-0.452-0.23-0.538,0.029  c-0.715,2.26,0.034,6.891,0.356,8.086c0.525,1.924,1.133,4.284,1.019,5.851c-0.101,1.534-0.885,2.476-1.611,3.184  c-1.116,1.079-0.404,2.887-2.499,3.76c-1.534,0.639-2.667,0.364-3.187,0.093c-0.481-0.305-0.714-0.44-0.766-1.032  c-0.003-0.702,0.072-1.71,0.76-2.569c1.119-1.399,2.608-3.38,2.869-7.108c0.488-6.755-5.521-14.449-5.9-14.535  c-0.387-0.089-0.252,0.251-0.556,0.163c-0.597-0.492-1.308-2.308-1.944-2.987c-0.342-0.477-1.205-0.27-1.339-0.947  c-0.073-0.523-0.287-1.048-0.711-1.273c-0.276-0.162-0.477,0.114-0.729-0.02c-0.737-0.574-0.765-2.646-1.008-2.775  c-0.264-0.114-0.505,0.099-0.692,0c-0.535-0.229-0.404-1.961-0.834-3.187c-0.202-0.646-0.857-0.623-1.039-1.398  c-0.287-1.402-0.249-3.23-1.756-3.925c-1.545-0.674-2.534,0.251-3.27-0.863c-0.39-0.479-0.325-1.271-1.329-1.374  c-0.527-0.265-0.742-0.918-1.221-0.769c-0.259,0.077-0.043,0.579-0.576,0.919c-0.719,0.047-1.439-1.895-2.438-1.81  c-0.327,0.126-0.456,0.505-0.831,0.524c-0.431,0.02-0.465-2.171-1.87-2.701c-0.251-0.094-0.438,0.368-0.652,0.062  C82.273,82.962,81.699,82.525,81.032,81.823z"/>
<path fill="#FFFFFF" d="M47.226,15.347c0.602-0.754,1.816-1.101,1.764-1.341c-0.104-0.22-0.558-0.023-0.896,0  c-0.145,0.022-0.333-0.013-0.312-0.18c0.568-1.994,2.516-2.352,3.107-2.982c0.067-0.123,0-0.123-0.152-0.208  c-0.308-0.012-0.802,0.324-0.802,0.03c0.229-1.986,2.649-2.941,3.104-3.1c0.117-0.103,0.014-0.24-0.139-0.266  c-0.208,0.024-0.375,0.15-0.402-0.103c0.234-0.984,1.548-1.774,2.397-2.195c0.862-0.354,2.575-0.88,2.575-0.619  c0,0.104-1.341,0.756-1.785,1.418c-0.368,0.545-0.702,0.902-0.731,1.762c-1.375,0.677-2.054,2.195-2.145,3.646  c-0.976,0.501-1.722,2.266-1.399,2.993c-1.123,1.091-1.675,2.664-1.613,4.243c-2.428,3.179-1.708,4.388,0.97,5.374  c0.396,0.128,0.773,0.15,0.849-0.04c0.094-0.189-0.231-0.307-0.352-0.58c-1.457-3.245,0.379-4.87,2.943-5.963  c0.202-0.096,0.049-0.325-0.252-0.318c-0.689-0.007-1.313,0.171-1.398-0.051c-0.374-1.061,2.379-3.254,3.734-3.671  c0.573-0.17,0.331-0.462,0.093-0.421c-0.361-0.033-0.923,0.177-1.103-0.296c0.345-1.196,3.646-2.781,4.132-3.065  c0.298-0.188,0.424-0.528-1.036-0.229c-0.138,0.021-0.287,0.021-0.223-0.18c0.276-0.862,3.362-2.068,4.934-2.613  c0.25-0.115,0.319-0.503-0.421-0.356c-0.268,0.04-0.757,0.218-0.854,0.021c0.095-1.167,3.506-2.066,4.726-2.334  c0.275-0.091,0.328-0.25,0.088-0.365c-0.388-0.116-1.001,0.188-0.767-0.219c0.919-0.58,3.349-0.588,4.19-0.451  c0.234,0.042,0.29,0.095,0.314,0.146c-0.264,0.611-4.346,1.807-4.851,4.261c-1.224,0.505-2.422,1.671-2.562,2.669  c-0.644,0.348-1.933,1.406-2.008,2.867c-0.701,0.524-2.545,2.163-1.933,4.147c-0.983,0.923-1.746,1.867-1.706,4.46  c0.014,0.893-1.147,2.343-2.345,2.679c-0.336,0.135-0.205,0.409,0.038,0.473c2.005,0.591,3.869-0.498,4.599-1.188  c2.314-2.204,3.856-3,4.897-3.129c0.191-0.051,0.191,0.087,0.22,0.191c0.148,0.577,0.507,1.984,0.007,3.956  c-0.658,2.469-2.548,3.613-3.082,4.287c-0.095,0.094,0.268,1.145,0.073,1.681c-0.216,0.682,0.029,1.104,0.277,1.207  c0.684,0.253,1.169-2.299,1.578-2.234c0.328,0.019,0.271,0.575,0.668,0.776c0.208,0.073,0.512,0.011,0.549-0.223  c0.05-0.713,0.317-2.457,0.49-2.644c0.125-0.158,0.512,0.631,0.536,1.11c0.028,1.987-1.089,3.673-0.435,5.042  c0.146,0.293,0.475,0.271,0.703,0.053c0.601-0.643,1.01-2.974,2.343-3.268c1.799-0.396,3.573,4.525,2.308,5.84  c-0.615,0.521-1.389,0.062-2.147,0.484c-0.819,0.479-0.75,2.307-1.311,3.063c-0.331,0.334-0.729,0.391-1.499,0.451  c-1.629,0.126-1.133,4.779-0.88,5.608c0.161,0.493,0.506,0.396,0.735,0.229c0.234-0.198,0.413-1.156,0.46-2.051  c0.067-0.282,0.562-0.395,0.916-0.743c0.385-0.297,0.183-0.623,0.413-0.913c0.331-0.372,0.658-0.044,0.928-0.457  c0.702-0.583,0.204-1.5,0.77-1.886c0.834-0.548,1.576-0.273,2.312-1.082c0.448-0.503,0.508-1.564,1.144-1.746  c3.371-0.083,6.728,3.804,7.301,4.959c1.668,3.452-1,8.663,0.822,9.661c2.295,1.335,1.8,3.926,1.549,4.577  c-0.498,1.324-4.17,3.005-4.645,6.068c-0.237,2.942,1.296,2.334,1.403,1.966c0.117-0.37,0.222-0.852,0.402-1.217  c0.145-0.327,0.594-0.185,0.646,0.134c0.089,0.273,0.718,1.062,1.651-0.671c0.587-1.103,2.173-2.522,3.362-3.339  c1.167-0.828,1.446-3.423,1.648-4.016c0.152-0.51,0.583-0.51,0.647-1.059c0.043-0.565-1.021-2.445-0.387-3.791  c0.296-0.448,1.007-0.768,1.54-0.148c0.558,0.645-0.347,2.756,0.663,2.805c0.861,0.025,0.956-0.985,1.7-0.922  c0.762,0.147-0.607,2.931,0.145,3.36c0.46,0.188,1.039-0.032,1.271,0.428c0.211,0.77-1.161,2.167,0.024,2.167  c12.56-0.222,17.147,9.661,16.341,11.465c-0.378,0.684-1.892-0.336-2.11,0.356c-1.146,3.866,1.445,6.796,2.195,7.298  c0.219,0.127,0.616-0.052,0.584-0.536c-0.125-1.103-0.736-1.691-0.613-2.781c0.211-1.924,4.5-0.737,4.721,0.726  c0.085,0.548,0.113,0.997,0.598,1.457c0.611,0.578,2.074-0.072,2.218,1.208c0.188,2.479-2.909,2.625-5.052,4.162  c-1.021,0.785-0.789,1.336,0.077,1.614c1.03,0.272,2.678-0.021,3.509,1.199c1.182,1.692-0.372,5.229-0.46,6.72  c-0.088,1.515,2.623,5.93,2.678,8.188c0.196,1.124-0.579,1.735-1.536,0.807c-0.923-0.966-1.888-2.454-2.604-3.57  c-0.209-0.352-0.755-0.376-0.745,0.348c-0.011,1.955,9.245,13.998,9.479,15.974c0.211,1.042-0.367,1.922-0.12,2.929  c0.081,0.296,0.459,0.13,0.49,0.365c0.051,0.67-0.629,1.684,0.338,2.17c0.479,1.321,0,1.873,0.252,2.971  c0.125,1.094,0.641,2.604,0.758,3.71c-0.261,3.107-1.451,4.315-2.399,4.779c-0.816,0.409-1.156-0.325-1.081-0.961  c0.215-1.877,2.298-5.213,1.467-8.971c-2.137-9.665-12.479-16.523-14.204-20.196c-0.557-1.388-2.537-1.543-2.651-3.169  c-0.2-0.527-0.72-0.371-1.162-0.854c-0.374-0.421-0.359-1.693-0.762-2.619c-0.117-0.291-0.479-0.146-0.744-0.425  c-1.47-1.935-1.158-11.388-2.469-12.676c-0.969-0.542-1.718,0.961-2.924,1.088c-0.922,0.092-2.442-2.192-3.003-1.615  c-0.449,0.449-0.257,1.615-0.219,1.796c0.047,0.159,0.274,0.969-0.035,0.969c-0.28,0.012-0.685-0.566-1.854-1.042  c-0.778-0.281-1.516,0-1.873-0.232c-0.796-0.859,0.028-2.661-1.309-3.18c-0.376-0.146-0.441-1.102-0.634-1.481  c-0.184-0.271-0.565-0.251-0.738-0.46c-0.363-0.55-0.617-1.219-0.779-1.988c-0.137-0.526-1.354,0.128-1.452-0.703  c-0.117-0.556-0.769-0.73-1.274-0.815c-0.617-0.076-0.356-1.426-0.893-1.649c-0.229-0.104-0.313,0.157-0.554,0.034  c-0.245-0.308-0.202-0.6-0.513-0.82c-0.267-0.18-0.523,0.123-0.717-0.094c-0.778-0.946-0.159-2.533-0.563-3.003  c-0.27-0.293-0.729,0.031-1.134-0.319c-0.396-0.301-0.46-0.797-0.696-0.867c-0.69-0.013-0.934-0.14-1.219-0.484  c-1.261-1.762-1.116-3.791-1.551-4.514c-0.279-0.475-0.705-0.77-1.022,0.124c-0.633,1.533-0.566,7.256-2.403,8.034  c-1.413,0.693-2.675-1.743-3.371-2.175c-0.313-0.165-0.37,0.35-0.591,0.371c-0.646-0.253-0.5-1.019-1.021-1.323  c-0.506-0.221-0.29,0.493-0.579,0.432c-0.504-0.462-0.504-1.7-0.948-1.921c-0.36-0.139-0.57,0.282-0.778,0.104  c-0.725-0.63-0.216-2.038-1.095-2.48c-0.381-0.123-0.325,0.518-0.714,0.336c-0.374-0.139-0.311-2.131-1.475-1.94  c-0.173,0.021-0.117-0.254-0.236-0.356c-0.347-0.044-0.586,0.438-0.945,0.126c-0.493-0.65-0.866-0.968-1.187-1.211  c-0.49-0.417-1.22,0.108-1.822-0.344c-2.131-0.935-7.016,2.792-9.216,4.978c-0.803-0.749-1.884,0.04-2.797,0.134  c-0.325,0.076-1.353,0.031-0.549-1.078c1.996-2.114,3.456-2.01,7.216-4.697c2.751-2.015,5.215-3.979,6.103-4.557  c0.731-0.377,1.894-0.692,2.872,0.591c1.375,1.795,4.443,4.808,5.753,5.397c2.688,1.164,2.824-0.896,3.152-1.61  c0.286-0.722,0.466-0.124,0.446,0.562c-0.005,0.446,0.161,1.076,0.527,1.14c0.738,0.087,0.745-0.469,0.851-0.827  c0.842-3.308,4.096-7.287,5.383-6.468c0.938,0.6,1.498,0.6,1.721-0.536c0.245-1.459-0.882-2.802-1.187-4.338  c-0.314-1.784-0.12-4.125-0.802-4.45c-0.395-0.17-0.94,0.217-1.25,0.649c-0.408,0.547-0.408,1.124-0.549,1.787  c-0.067,0.364-1.551,0.766-1.719,2.688c-0.015,0.346-0.575-0.348-0.98,0c-0.825,0.626-0.679,3.747-0.941,3.926  c-0.311,0.03-0.682-0.315-0.804,0.137c0.067,0.505-0.212,1.722-0.455,1.815c-0.205,0.062-0.418-0.187-0.706-0.02  c-0.709,0.597-0.424,1.425-1.107,2.215c-0.418,0.516-0.705,0.155-0.752-0.297c-0.101-0.771-0.717-1.93-1.258-2.477  c-1.584-1.637-0.607-4.367-2.846-5.502c-0.673-0.334-0.711-0.661-0.787-1.266c-0.025-0.665-0.406-1.125-0.753-1.213  c-0.615-0.179-0.723-0.514-0.746-0.945c0.057-1.164-0.811-1.216-1.275-1.312c-1.093-0.104-1.129-0.314-0.786-3.047  c0.099-0.658,0.104-1.418-0.106-2.036c-0.569-0.843-1.822-0.305-1.648-1.68c0.131-0.904,1.75-2.08,2.439-2.825  c0.418-0.471,0.686-1.69-0.759-1.396c-3.28,0.872-5.896,6.686-6.514,7.8c-2.373,4.349-4.436,6.082-6.367,6.752  c-0.902,0.317-4.026,0.608-4.667-2.455c-0.329-1.608,0.067-3.122,0.798-5.64c3.17-11.015-0.371-8.916,1.361-12.584  c1.116-1.247,2.701-1.077,4.308-1.271c0.355-0.047,0.229-0.51,0.145-0.646c-0.064-0.127-0.439-0.284-0.933-0.376  c-0.49-0.084-1.545-1.021-1.636-2.029c-0.092-1.104,0.62-1.788,1.091-2.268c0.674-0.664,1.158-0.736,1.166-0.881  c-0.039-0.589-1.278,0.236-1.388,0C45.966,16.779,46.724,15.938,47.226,15.347z"/>
<path fill="#FFFFFF" d="M43.803,21.083c-0.041,0.398-0.041,1.019,0.491,2.301c-0.532,0.074-0.857,0.543-1.324,0.284  c-1.457-0.798-2.277-2.282-2.749-3.783c-0.308-0.862-0.276-1.886-0.758-2.664C41.985,17.388,43.833,20.787,43.803,21.083z"/>
<path fill="#010101" d="M64.153,21.481c0.136-0.041,0.182,0.052,0.182,0.105c-0.104,1.797-2.01,5.387-4.491,6.028  c-0.146,0.029-0.237,0.011-0.287-0.125c-0.226-1.25,0.562-3.372,2.579-4.147C63.135,22.954,63.605,22.29,64.153,21.481z"/>
<path fill="#010101" d="M55.807,28.538c0.116,0.461,0.028,0.494-0.363,0.23c-1.295-1.356-2.401-1.008-3.188-0.597  c-0.383,0.157-0.5,0.146-0.386-0.201C53.062,26.145,55.236,27.047,55.807,28.538z"/>
<path fill="#010101" d="M49.07,28.789c0.654,0.937,0.369,2.396-0.198,3.489c-0.448,0.838-1.184,2.183-1.471,2.771  c-0.12,0.353-0.378,0.377-0.591,0.279c-0.213-0.041,0.795-1.723,1.081-3.691c0.115-0.808-0.099-1.989,0.49-2.87  C48.585,28.477,48.887,28.572,49.07,28.789z"/>
<path fill="#010101" d="M54.557,29.671c0.474,1.095-0.686,1.631-1.363,1.763c-0.474,0.086-0.831-0.049-1.233-0.312  c-0.222-0.159-0.102-0.274-0.276-0.357c-0.363-0.022-0.275,0.208-0.668,0.301c-0.27,0.033-0.292-0.091-0.11-0.364  c0.441-0.734,0.682-1.251,1.406-1.544C52.986,28.886,53.974,28.601,54.557,29.671z"/>
<path fill="#010101" d="M50.753,34.271c0.565,2.196,0.149,3.046-0.356,3.57c-0.188,0.17-1.368,0.381-1.523-1.132  c0.59-0.713,0.953-1.796,1.308-2.563C50.43,33.653,50.583,33.621,50.753,34.271z"/>
<path fill="#010101" d="M46.378,40.342c-0.256,1.378-0.819,2.078-1.8,2.298c-1.141,0.14-1.629-1.124-1.48-1.115  c1.111,0.202,2.285-0.43,2.985-1.33C46.248,39.955,46.419,40.121,46.378,40.342z"/>
<path fill="#010101" d="M102.373,61.681c0.629,0.201,0.894,0.85,0.672,1.218c-0.261,0.6-0.796,1.008-0.805,1.583  c-0.011,0.484-0.096,0.778-0.482,0.904c-0.708,0.075-1.12-1.398-1.756-0.376c-0.346,0.524-1.06,0.166-1.152-0.127  c-0.125-0.453-0.397-0.916-0.854-0.934c-1.478-0.042-1.844-2.355-1.605-2.982C97.525,58.287,100.328,60.973,102.373,61.681z"/>
<path fill="#FFFFFF" d="M44.232,61.237c-0.778,0.579-1.301,1.312-1.732,2.111c-0.93,0.147-2.438,0.776-3.516,1.261  c-0.396,0.208-1.912,0.324-3.279,0.482c-0.208-0.021-0.261-0.147-0.261-0.316c-0.108-1.039,6.322-3.662,8.785-3.917  C44.456,60.859,44.594,60.966,44.232,61.237z"/>
<path fill="#FFFFFF" d="M129.076,74.535c0.202,0.523-0.354,1.186-0.931,1.823c-0.567,0.663-3.023,2.396-5.072,2.302  c-0.563-0.087-1.178-0.706-0.985-1.459c0.199-0.643,2.172-0.81,3.689-1.333c1.106-0.381,1.634-0.613,2.508-1.283  C128.836,74.167,128.962,74.415,129.076,74.535z"/>
<path fill="#FFFFFF" d="M111.614,112.87c0.372,0.015,0.319-0.114,0.642,0c0.285,0.015,0.277,1.253,0.239,1.891  c-0.071,0.397-0.164,1.072,0.257,1.377c0.378,0.325-0.496,1.515,0.136,2.088c0.349,0.482-0.39,1.749,0.176,2.449  c0.274,0,0.484,0.081,0.629,0.31c-0.239,1.466,0.416,3.776,0.185,4.443c-0.641,1.01-1.124,0.906-1.671,2.566  c-0.825,1.604-3.153,0.604-2.697-0.689c1.646-2.786,2.251-5.887,2.339-7.239c0.271-3.515-1.578-9.104-1.782-9.883  c-0.044-0.701,0.104-1.124,0.66-0.495C111.541,110.969,111.246,112.795,111.614,112.87z"/>
<path fill="#010101" d="M65.525,127.811l-3.821-48.134l-2.201,3.274l-4.044-18.563l-4.03,18.563l-2.199-3.274l-0.941,11.645  l-0.917-11.645l-2.202,3.274l-4.032-18.563l-4.035,18.564l-2.202-3.274l-3.835,48.134l0,0v0.15  c4.924,3.267,10.857,5.178,17.207,5.178h0.044c6.371,0,12.29-1.911,17.21-5.178V127.811L65.525,127.811z"/>
<polygon fill="#FFFFFF" points="80.81,100.231 75.897,83.24 15.268,100.291 19.019,117.594 "/>
<path fill="#EC2227" d="M26.672,99.284l7.949-2.47l-1.399,14.966l-5.556,1.551l0.949-10.173l-2.389,0.827L26.672,99.284z"/>
<path fill="#EC2227" d="M41.495,107.286c-0.142,1.554-1.788,2.873-3.27,3.328c-1.514,0.392-2.97-0.042-2.824-1.606  c0.148-1.628,1.795-2.996,3.289-3.384C40.171,105.197,41.639,105.681,41.495,107.286z"/>
<path fill="#EC2227" d="M45.156,93.855l10.304-2.918l-0.384,4.32l-4.696,1.283l-0.134,1.576l4.117-1.145l-0.375,3.854l-4.107,1.166  l-0.5,5.234l-5.644,1.594L45.156,93.855z"/>
<path fill="#EC2227" d="M68.731,93.149c-0.823-0.553-1.892-0.915-3.16-0.565c-1.68,0.475-3.175,2.134-3.333,3.769  c-0.149,1.636,1.184,2.502,2.856,2.027c1.29-0.353,2.36-1.171,3.342-2.29l-0.693,5.645c-0.929,0.672-3.032,1.429-4.03,1.711  c-4.4,1.23-7.527-1.114-7.125-5.368c0.403-4.369,4.281-8.853,8.809-10.135c1.258-0.355,2.537-0.513,3.696-0.418L68.731,93.149z"/>
<path fill="#FFFFFF" d="M44.456,113.071c-0.057,0.594-0.478,1.172-0.938,1.343c-0.439,0.104-0.754-0.291-0.71-0.895  c0.027-0.61,0.445-1.183,0.9-1.279C44.171,112.06,44.505,112.473,44.456,113.071z M46.849,112.378  c-0.041,0.607-0.456,1.184-0.918,1.339c-0.458,0.149-0.762-0.268-0.722-0.849c0.061-0.598,0.445-1.174,0.912-1.317  C46.572,111.396,46.909,111.789,46.849,112.378z M48.424,118.679c-0.262,3.169-2.275,5.614-4.563,6.239  c-2.29,0.645-3.993-0.771-3.722-3.937c0.255-3.093,2.29-5.619,4.57-6.262C46.975,114.08,48.674,115.59,48.424,118.679z   M42.868,120.272c-0.099,1.145,0.428,1.743,1.237,1.537c0.818-0.23,1.469-1.178,1.568-2.279c0.089-1.085-0.382-1.811-1.238-1.557  C43.585,118.213,42.964,119.247,42.868,120.272z"/>
<path fill="#FFFFFF" d="M49.788,113.457l2.718-0.734l-0.556,6.688l2.276-0.636l-0.263,3.183l-5.002,1.362L49.788,113.457z"/>
<path fill="#FFFFFF" d="M55.496,111.863l2.616-0.694l1.987,4.791h0.062c-0.025-0.824-0.08-1.634-0.013-2.487l0.264-2.949  l2.596-0.721l-0.821,9.853l-2.605,0.717l-1.948-4.505l-0.105,0.021c0.032,0.664,0.061,1.271,0,1.94l-0.267,3.216l-2.577,0.7  L55.496,111.863z"/>
<path fill="#FFFFFF" d="M33.499,117.997l2.64-0.736l-0.434,4.304l0.063-0.018c0.106-0.422,0.297-0.821,0.479-1.229l1.574-3.53  l2.969-0.817l-2.747,5.445l2.179,4.359l-3.149,0.882l-1.062-2.648c-0.125-0.323-0.326-0.625-0.332-1.004l-0.077,0.021l-0.294,4.128  l-2.64,0.717L33.499,117.997z"/>
<style xmlns="http://www.w3.org/1999/xhtml" charset="utf-8" type="text/css" class="firebugResetStyles">/* See license.txt for terms of usage */
/** reset styling **/
.firebugResetStyles {
    z-index: 2147483646 !important;
    top: 0 !important;
    left: 0 !important;
    display: block !important;
    border: 0 none !important;
    margin: 0 !important;
    padding: 0 !important;
    outline: 0 !important;
    min-width: 0 !important;
    max-width: none !important;
    min-height: 0 !important;
    max-height: none !important;
    position: fixed !important;
    transform: rotate(0deg) !important;
    transform-origin: 50% 50% !important;
    border-radius: 0 !important;
    box-shadow: none !important;
    background: transparent none !important;
    pointer-events: none !important;
    white-space: normal !important;
}
style.firebugResetStyles {
    display: none !important;
}

.firebugBlockBackgroundColor {
    background-color: transparent !important;
}

.firebugResetStyles:before, .firebugResetStyles:after {
    content: "" !important;
}
/**actual styling to be modified by firebug theme**/
.firebugCanvas {
    display: none !important;
}

/* * * * * * * * * * * * * * * * * * * * * * * * * * * * * * * * * * * * * * * * * * * * * * * * */
.firebugLayoutBox {
    width: auto !important;
    position: static !important;
}

.firebugLayoutBoxOffset {
    opacity: 0.8 !important;
    position: fixed !important;
}

.firebugLayoutLine {
    opacity: 0.4 !important;
    background-color: #000000 !important;
}

.firebugLayoutLineLeft, .firebugLayoutLineRight {
    width: 1px !important;
    height: 100% !important;
}

.firebugLayoutLineTop, .firebugLayoutLineBottom {
    width: 100% !important;
    height: 1px !important;
}

.firebugLayoutLineTop {
    margin-top: -1px !important;
    border-top: 1px solid #999999 !important;
}

.firebugLayoutLineRight {
    border-right: 1px solid #999999 !important;
}

.firebugLayoutLineBottom {
    border-bottom: 1px solid #999999 !important;
}

.firebugLayoutLineLeft {
    margin-left: -1px !important;
    border-left: 1px solid #999999 !important;
}

/* * * * * * * * * * * * * * * * * * * * * * * * * * * * * * * * * * * * * * * * * * * * * * * * */
.firebugLayoutBoxParent {
    border-top: 0 none !important;
    border-right: 1px dashed #E00 !important;
    border-bottom: 1px dashed #E00 !important;
    border-left: 0 none !important;
    position: fixed !important;
    width: auto !important;
}

.firebugRuler{
    position: absolute !important;
}

.firebugRulerH {
    top: -15px !important;
    left: 0 !important;
    width: 100% !important;
    height: 14px !important;
    background: url("data:image/png,%89PNG%0D%0A%1A%0A%00%00%00%0DIHDR%00%00%13%88%00%00%00%0E%08%02%00%00%00L%25a%0A%00%00%00%04gAMA%00%00%D6%D8%D4OX2%00%00%00%19tEXtSoftware%00Adobe%20ImageReadyq%C9e%3C%00%00%04%F8IDATx%DA%EC%DD%D1n%E2%3A%00E%D1%80%F8%FF%EF%E2%AF2%95%D0D4%0E%C1%14%B0%8Fa-%E9%3E%CC%9C%87n%B9%81%A6W0%1C%A6i%9A%E7y%0As8%1CT%A9R%A5J%95*U%AAT%A9R%A5J%95*U%AAT%A9R%A5J%95*U%AAT%A9R%A5J%95*U%AAT%A9R%A5J%95*U%AAT%A9R%A5J%95*U%AAT%A9R%A5J%95*U%AATE9%FE%FCw%3E%9F%AF%2B%2F%BA%97%FDT%1D~K(%5C%9D%D5%EA%1B%5C%86%B5%A9%BDU%B5y%80%ED%AB*%03%FAV9%AB%E1%CEj%E7%82%EF%FB%18%BC%AEJ8%AB%FA'%D2%BEU9%D7U%ECc0%E1%A2r%5DynwVi%CFW%7F%BB%17%7Dy%EACU%CD%0E%F0%FA%3BX%FEbV%FEM%9B%2B%AD%BE%AA%E5%95v%AB%AA%E3E5%DCu%15rV9%07%B5%7F%B5w%FCm%BA%BE%AA%FBY%3D%14%F0%EE%C7%60%0EU%AAT%A9R%A5J%95*U%AAT%A9R%A5J%95*U%AAT%A9R%A5J%95*U%AAT%A9R%A5J%95*U%AAT%A9R%A5JU%88%D3%F5%1F%AE%DF%3B%1B%F2%3E%DAUCNa%F92%D02%AC%7Dm%F9%3A%D4%F2%8B6%AE*%BF%5C%C2Ym~9g5%D0Y%95%17%7C%C8c%B0%7C%18%26%9CU%CD%13i%F7%AA%90%B3Z%7D%95%B4%C7%60%E6E%B5%BC%05%B4%FBY%95U%9E%DB%FD%1C%FC%E0%9F%83%7F%BE%17%7DkjMU%E3%03%AC%7CWj%DF%83%9An%BCG%AE%F1%95%96yQ%0Dq%5Dy%00%3Et%B5'%FC6%5DS%95pV%95%01%81%FF'%07%00%00%00%00%00%00%00%00%00%F8x%C7%F0%BE%9COp%5D%C9%7C%AD%E7%E6%EBV%FB%1E%E0(%07%E5%AC%C6%3A%ABi%9C%8F%C6%0E9%AB%C0'%D2%8E%9F%F99%D0E%B5%99%14%F5%0D%CD%7F%24%C6%DEH%B8%E9rV%DFs%DB%D0%F7%00k%FE%1D%84%84%83J%B8%E3%BA%FB%EF%20%84%1C%D7%AD%B0%8E%D7U%C8Y%05%1E%D4t%EF%AD%95Q%BF8w%BF%E9%0A%BF%EB%03%00%00%00%00%00%00%00%00%00%B8vJ%8E%BB%F5%B1u%8Cx%80%E1o%5E%CA9%AB%CB%CB%8E%03%DF%1D%B7T%25%9C%D5(%EFJM8%AB%CC'%D2%B2*%A4s%E7c6%FB%3E%FA%A2%1E%80~%0E%3E%DA%10x%5D%95Uig%15u%15%ED%7C%14%B6%87%A1%3B%FCo8%A8%D8o%D3%ADO%01%EDx%83%1A~%1B%9FpP%A3%DC%C6'%9C%95gK%00%00%00%00%00%00%00%00%00%20%D9%C9%11%D0%C0%40%AF%3F%EE%EE%92%94%D6%16X%B5%BCMH%15%2F%BF%D4%A7%C87%F1%8E%F2%81%AE%AAvzr%DA2%ABV%17%7C%E63%83%E7I%DC%C6%0Bs%1B%EF6%1E%00%00%00%00%00%00%00%00%00%80cr%9CW%FF%7F%C6%01%0E%F1%CE%A5%84%B3%CA%BC%E0%CB%AA%84%CE%F9%BF)%EC%13%08WU%AE%AB%B1%AE%2BO%EC%8E%CBYe%FE%8CN%ABr%5Dy%60~%CFA%0D%F4%AE%D4%BE%C75%CA%EDVB%EA(%B7%F1%09g%E5%D9%12%00%00%00%00%00%00%00%00%00H%F6%EB%13S%E7y%5E%5E%FB%98%F0%22%D1%B2'%A7%F0%92%B1%BC%24z3%AC%7Dm%60%D5%92%B4%7CEUO%5E%F0%AA*%3BU%B9%AE%3E%A0j%94%07%A0%C7%A0%AB%FD%B5%3F%A0%F7%03T%3Dy%D7%F7%D6%D4%C0%AAU%D2%E6%DFt%3F%A8%CC%AA%F2%86%B9%D7%F5%1F%18%E6%01%F8%CC%D5%9E%F0%F3z%88%AA%90%EF%20%00%00%00%00%00%00%00%00%00%C0%A6%D3%EA%CFi%AFb%2C%7BB%0A%2B%C3%1A%D7%06V%D5%07%A8r%5D%3D%D9%A6%CAu%F5%25%CF%A2%99%97zNX%60%95%AB%5DUZ%D5%FBR%03%AB%1C%D4k%9F%3F%BB%5C%FF%81a%AE%AB'%7F%F3%EA%FE%F3z%94%AA%D8%DF%5B%01%00%00%00%00%00%00%00%00%00%8E%FB%F3%F2%B1%1B%8DWU%AAT%A9R%A5J%95*U%AAT%A9R%A5J%95*U%AAT%A9R%A5J%95*U%AAT%A9R%A5J%95*U%AAT%A9R%A5J%95*U%AAT%A9R%A5J%95*U%AAT%A9R%A5J%95*UiU%C7%BBe%E7%F3%B9%CB%AAJ%95*U%AAT%A9R%A5J%95*U%AAT%A9R%A5J%95*U%AAT%A9R%A5J%95*U%AAT%A9R%A5J%95*U%AAT%A9R%A5J%95*U%AAT%A9R%A5J%95*U%AAT%A9R%A5*%AAj%FD%C6%D4%5Eo%90%B5Z%ADV%AB%D5j%B5Z%ADV%AB%D5j%B5Z%ADV%AB%D5j%B5Z%ADV%AB%D5j%B5Z%ADV%AB%D5j%B5Z%ADV%AB%D5j%B5Z%ADV%AB%D5j%B5%86%AF%1B%9F%98%DA%EBm%BBV%AB%D5j%B5Z%ADV%AB%D5j%B5Z%ADV%AB%D5j%B5Z%ADV%AB%D5j%B5Z%ADV%AB%D5j%B5Z%ADV%AB%D5j%B5Z%ADV%AB%D5j%B5Z%AD%D6%E4%F58%01%00%00%00%00%00%00%00%00%00%00%00%00%00%40%85%7F%02%0C%008%C2%D0H%16j%8FX%00%00%00%00IEND%AEB%60%82") repeat-x !important;
    border-top: 1px solid #BBBBBB !important;
    border-right: 1px dashed #BBBBBB !important;
    border-bottom: 1px solid #000000 !important;
}

.firebugRulerV {
    top: 0 !important;
    left: -15px !important;
    width: 14px !important;
    height: 100% !important;
    background: url("data:image/png,%89PNG%0D%0A%1A%0A%00%00%00%0DIHDR%00%00%00%0E%00%00%13%88%08%02%00%00%00%0E%F5%CB%10%00%00%00%04gAMA%00%00%D6%D8%D4OX2%00%00%00%19tEXtSoftware%00Adobe%20ImageReadyq%C9e%3C%00%00%06~IDATx%DA%EC%DD%D1v%A20%14%40Qt%F1%FF%FF%E4%97%D9%07%3BT%19%92%DC%40(%90%EEy%9A5%CB%B6%E8%F6%9Ac%A4%CC0%84%FF%DC%9E%CF%E7%E3%F1%88%DE4%F8%5D%C7%9F%2F%BA%DD%5E%7FI%7D%F18%DDn%BA%C5%FB%DF%97%BFk%F2%10%FF%FD%B4%F2M%A7%FB%FD%FD%B3%22%07p%8F%3F%AE%E3%F4S%8A%8F%40%EEq%9D%BE8D%F0%0EY%A1Uq%B7%EA%1F%81%88V%E8X%3F%B4%CEy%B7h%D1%A2E%EBohU%FC%D9%AF2fO%8BBeD%BE%F7X%0C%97%A4%D6b7%2Ck%A5%12%E3%9B%60v%B7r%C7%1AI%8C%BD%2B%23r%00c0%B2v%9B%AD%CA%26%0C%1Ek%05A%FD%93%D0%2B%A1u%8B%16-%95q%5Ce%DCSO%8E%E4M%23%8B%F7%C2%FE%40%BB%BD%8C%FC%8A%B5V%EBu%40%F9%3B%A72%FA%AE%8C%D4%01%CC%B5%DA%13%9CB%AB%E2I%18%24%B0n%A9%0CZ*Ce%9C%A22%8E%D8NJ%1E%EB%FF%8F%AE%CAP%19*%C3%BAEKe%AC%D1%AAX%8C*%DEH%8F%C5W%A1e%AD%D4%B7%5C%5B%19%C5%DB%0D%EF%9F%19%1D%7B%5E%86%BD%0C%95%A12%AC%5B*%83%96%CAP%19%F62T%86%CAP%19*%83%96%CA%B8Xe%BC%FE)T%19%A1%17xg%7F%DA%CBP%19*%C3%BA%A52T%86%CAP%19%F62T%86%CA%B0n%A9%0CZ%1DV%C6%3D%F3%FCH%DE%B4%B8~%7F%5CZc%F1%D6%1F%AF%84%F9%0F6%E6%EBVt9%0E~%BEr%AF%23%B0%97%A12T%86%CAP%19%B4T%86%CA%B8Re%D8%CBP%19*%C3%BA%A52huX%19%AE%CA%E5%BC%0C%7B%19*CeX%B7h%A9%0C%95%E1%BC%0C%7B%19*CeX%B7T%06%AD%CB%5E%95%2B%BF.%8F%C5%97%D5%E4%7B%EE%82%D6%FB%CF-%9C%FD%B9%CF%3By%7B%19%F62T%86%CA%B0n%D1R%19*%A3%D3%CA%B0%97%A12T%86uKe%D0%EA%B02*%3F1%99%5DB%2B%A4%B5%F8%3A%7C%BA%2B%8Co%7D%5C%EDe%A8%0C%95a%DDR%19%B4T%C66%82fA%B2%ED%DA%9FC%FC%17GZ%06%C9%E1%B3%E5%2C%1A%9FoiB%EB%96%CA%A0%D5qe4%7B%7D%FD%85%F7%5B%ED_%E0s%07%F0k%951%ECr%0D%B5C%D7-g%D1%A8%0C%EB%96%CA%A0%A52T%C6)*%C3%5E%86%CAP%19%D6-%95A%EB*%95q%F8%BB%E3%F9%AB%F6%E21%ACZ%B7%22%B7%9B%3F%02%85%CB%A2%5B%B7%BA%5E%B7%9C%97%E1%BC%0C%EB%16-%95%A12z%AC%0C%BFc%A22T%86uKe%D0%EA%B02V%DD%AD%8A%2B%8CWhe%5E%AF%CF%F5%3B%26%CE%CBh%5C%19%CE%CB%B0%F3%A4%095%A1%CAP%19*Ce%A8%0C%3BO*Ce%A8%0C%95%A12%3A%AD%8C%0A%82%7B%F0v%1F%2FD%A9%5B%9F%EE%EA%26%AF%03%CA%DF9%7B%19*Ce%A8%0C%95%A12T%86%CA%B8Ze%D8%CBP%19*Ce%A8%0C%95%D1ae%EC%F7%89I%E1%B4%D7M%D7P%8BjU%5C%BB%3E%F2%20%D8%CBP%19*Ce%A8%0C%95%A12T%C6%D5*%C3%5E%86%CAP%19*Ce%B4O%07%7B%F0W%7Bw%1C%7C%1A%8C%B3%3B%D1%EE%AA%5C%D6-%EBV%83%80%5E%D0%CA%10%5CU%2BD%E07YU%86%CAP%19*%E3%9A%95%91%D9%A0%C8%AD%5B%EDv%9E%82%FFKOee%E4%8FUe%A8%0C%95%A12T%C6%1F%A9%8C%C8%3D%5B%A5%15%FD%14%22r%E7B%9F%17l%F8%BF%ED%EAf%2B%7F%CF%ECe%D8%CBP%19*Ce%A8%0C%95%E1%93~%7B%19%F62T%86%CAP%19*Ce%A8%0C%E7%13%DA%CBP%19*Ce%A8%0CZf%8B%16-Z%B4h%D1R%19f%8B%16-Z%B4h%D1R%19%B4%CC%16-Z%B4h%D1R%19%B4%CC%16-Z%B4h%D1%A2%A52%CC%16-Z%B4h%D1%A2%A52h%99-Z%B4h%D1%A2%A52h%99-Z%B4h%D1%A2EKe%98-Z%B4h%D1%A2EKe%D02%5B%B4h%D1%A2EKe%D02%5B%B4h%D1%A2E%8B%96%CA0%5B%B4h%D1%A2E%8B%96%CA%A0e%B6h%D1%A2E%8B%96%CA%A0e%B6h%D1%A2E%8B%16-%95a%B6h%D1%A2E%8B%16-%95A%CBl%D1%A2E%8B%16-%95A%CBl%D1%A2E%8B%16-Z*%C3l%D1%A2E%8B%16-Z*%83%96%D9%A2E%8B%16-Z*%83%96%D9%A2E%8B%16-Z%B4T%86%D9%A2E%8B%16-Z%B4T%06-%B3E%8B%16-Z%B4T%06-%B3E%8B%16-Z%B4h%A9%0C%B3E%8B%16-Z%B4h%A9%0CZf%8B%16-Z%B4h%A9%0CZf%8B%16-Z%B4h%D1R%19f%8B%16-Z%B4h%D1R%19%B4%CC%16-Z%B4h%D1R%19%B4%CC%16-Z%B4h%D1%A2%A52%CC%16-Z%B4h%D1%A2%A52h%99-Z%B4h%D1%A2%A52h%99-Z%B4h%D1%A2EKe%98-Z%B4h%D1%A2EKe%D02%5B%B4h%D1%A2EKe%D02%5B%B4h%D1%A2E%8B%96%CA0%5B%B4h%D1%A2E%8B%96%CA%A0e%B6h%D1%A2E%8B%96%CA%A0e%B6h%D1%A2E%8B%16-%95a%B6h%D1%A2E%8B%16-%95A%CBl%D1%A2E%8B%16-%95A%CBl%D1%A2E%8B%16-Z*%C3l%D1%A2E%8B%16-Z*%83%96%D9%A2E%8B%16-Z*%83%96%D9%A2E%8B%16-Z%B4T%86%D9%A2E%8B%16-Z%B4T%06-%B3E%8B%16-Z%B4T%06-%B3E%8B%16-Z%B4h%A9%0C%B3E%8B%16-Z%B4h%A9%0CZf%8B%16-Z%B4h%A9%0CZf%8B%16-Z%B4h%D1R%19f%8B%16-Z%B4h%D1R%19%B4%CC%16-Z%B4h%D1R%19%B4%CC%16-Z%B4h%D1%A2%A52%CC%16-Z%B4h%D1%A2%A52h%99-Z%B4h%D1%A2%A52h%99-Z%B4h%D1%A2EKe%98-Z%B4h%D1%A2EKe%D02%5B%B4h%D1%A2EKe%D02%5B%B4h%D1%A2E%8B%96%CA0%5B%B4h%D1%A2E%8B%96%CA%A0e%B6h%D1%A2E%8B%96%CA%A0e%B6h%D1%A2E%8B%16-%95a%B6h%D1%A2E%8B%16-%95A%CBl%D1%A2E%8B%16-%95A%CBl%D1%A2E%8B%16-Z*%C3l%D1%A2E%8B%16-Z*%83%96%D9%A2E%8B%16-Z*%83%96%D9%A2E%8B%16-Z%B4T%86%D9%A2E%8B%16-Z%B4T%06-%B3E%8B%16-Z%B4%AE%A4%F5%25%C0%00%DE%BF%5C'%0F%DA%B8q%00%00%00%00IEND%AEB%60%82") repeat-y !important;
    border-left: 1px solid #BBBBBB !important;
    border-right: 1px solid #000000 !important;
    border-bottom: 1px dashed #BBBBBB !important;
}

.overflowRulerX &gt; .firebugRulerV {
    left: 0 !important;
}

.overflowRulerY &gt; .firebugRulerH {
    top: 0 !important;
}

/* * * * * * * * * * * * * * * * * * * * * * * * * * * * * * * * * * * * * * * * * * * * * * * * */
.fbProxyElement {
    position: fixed !important;
    pointer-events: auto !important;
}
</style><div xmlns="http://www.w3.org/1999/xhtml" class="firebugResetStyles firebugBlockBackgroundColor firebugLayoutBox firebugLayoutBoxOffset" style="left: 31.05px ! important; top: 64.3833px ! important;"><div class="firebugResetStyles firebugLayoutBox" style="padding: 0px ! important; background-color: rgb(237, 255, 100) ! important;"><div class="firebugResetStyles firebugLayoutBox" style="padding: 0px ! important; background-color: rgb(68, 68, 68) ! important;"><div class="firebugResetStyles firebugLayoutBox" style="padding: 0px ! important; background-color: SlateBlue ! important;"><div class="firebugResetStyles firebugLayoutBox" style="width: 34.5px ! important; height: 68.7833px ! important; background-color: SkyBlue ! important;"/></div></div></div></div></svg>