<?xml version="1.0" encoding="UTF-8"?>
<!-- Generator: Adobe Illustrator 15.1.0, SVG Export Plug-In . SVG Version: 6.00 Build 0)  -->
<!DOCTYPE svg PUBLIC "-//W3C//DTD SVG 1.1//EN" "http://www.w3.org/Graphics/SVG/1.1/DTD/svg11.dtd">
<svg version="1.1" id="Ebene_1" xmlns="http://www.w3.org/2000/svg" xmlns:xlink="http://www.w3.org/1999/xlink" x="0px" y="0px" width="141.732px" height="141.732px" viewBox="0 0 141.732 141.732" enable-background="new 0 0 141.732 141.732" xml:space="preserve">
<g>
	<path fill="#EC1F39" d="M4.887,100.367l1.138,1.241l-5.533,4.874l2.465,3.089l8.15-7.183L7.458,98.1L4.887,100.367z"/>
	<path fill="#EC1F39" d="M16.76,123.39l3.265,2.229l2.029-3.278l2.378,1.621l1.505-2.435l-2.377-1.622l0.6-0.969l2.71,1.848   l1.658-2.686l-5.974-4.075L16.76,123.39z M9.337,111.738c-0.729-0.767-1.954-1.068-2.753-0.231   c-0.788,0.827-0.479,2.095,0.249,2.861c0.728,0.763,1.936,1.088,2.723,0.26C10.355,113.789,10.067,112.502,9.337,111.738"/>
	<path fill="#EC1F39" d="M56.069,140.941l3.734,0.203l0.688-4.737c0.063-0.443,0.115-0.897,0.167-1.341l0.126,0.008   c0.006,0.476,0.083,0.922,0.171,1.403l1.144,4.796l2.256,0.122l1.785-4.915c0.13-0.35,0.22-0.729,0.31-1.097l0.069,0.006   l0.216,6.141l3.734,0.202l-1.19-11.248l-3.93-0.216l-1.418,4.313c-0.149,0.463-0.246,0.979-0.342,1.462l-0.097-0.005l-1.176-5.938   l-3.972-0.22L56.069,140.941z M45.371,126.303l-2.909,4.32c-0.317,0.466-0.593,0.943-0.77,1.478l-0.079-0.028   c0.176-0.533,0.238-1.09,0.262-1.661l0.242-5.287l-3.816-1.378l0.431,11.971l3.098,1.118l7.356-9.151L45.371,126.303z    M25.083,128.039c0.774,1.152,1.972,2.259,3.156,2.918c2.029,1.133,4.662,1.109,5.854-1.243c0.848-1.675,0.212-3.069-1.061-4.218   l-0.681-0.615c-0.229-0.211-0.625-0.499-0.441-0.864c0.206-0.408,0.702-0.282,1-0.112c0.735,0.408,1.23,1.104,1.604,1.851   l2.199-2.01c-0.623-1.104-1.468-1.929-2.54-2.524c-2.042-1.142-4.736-0.967-5.921,1.373c-0.782,1.544-0.077,2.994,1.13,3.987   l0.618,0.512c0.278,0.24,0.707,0.53,0.481,0.975c-0.225,0.446-0.833,0.29-1.169,0.103c-0.786-0.438-1.315-1.252-1.674-2.09   l-0.102-0.243L25.083,128.039z"/>
	<path fill="#EC1F39" d="M77.636,137.292l0.479-3.452l0.142-0.01c0.102,0.467,0.204,0.949,0.35,1.413l0.581,1.933L77.636,137.292z    M77.125,139.985l2.912-0.213l0.445,1.362l4.082-0.299l-4.529-10.866l-4.266,0.312l-2.945,11.413l4.083-0.301L77.125,139.985z"/>
	<polygon fill="#EC1F39" points="87.708,140.04 91.474,139.126 89.082,128.241 85.313,129.155  "/>
	<path fill="#EC1F39" d="M94.908,138.602l3.494-1.266l-1.126-3.433c-0.229-0.699-0.561-1.35-0.92-2.031l0.107-0.04l5.033,4.387   l3.495-1.264l-3.464-10.563l-3.495,1.265l1.037,3.167c0.296,0.896,0.754,1.749,1.19,2.577l-0.107,0.04l-5.201-4.669l-3.51,1.271   L94.908,138.602z"/>
	<path fill="#EC1F39" d="M103.811,123.415l1.461,3.008l2.576-1.377c0.289-0.155,0.527-0.348,0.759-0.555l0.069,0.013   c-0.108,0.558-0.219,1.08-0.257,1.65l-0.596,7.65l9.229-4.938l-1.493-3.077l-2.866,1.534c-0.265,0.142-0.525,0.314-0.777,0.485   l-0.063-0.033l0.786-9.084L103.811,123.415z"/>
	<path fill="#EC1F39" d="M125.216,112.841c0.844-0.827,1.904,0.021,2.502,0.691c0.558,0.628,1.38,2.011,0.585,2.788   c-0.793,0.776-2.049-0.181-2.607-0.809C125.097,114.84,124.369,113.67,125.216,112.841 M122.963,110.307   c-2.354,2.304-2.097,5.458-0.037,7.777c2.174,2.45,5.118,3.007,7.523,0.653c2.403-2.354,2.077-5.48-0.096-7.93   C128.295,108.491,125.316,108.004,122.963,110.307"/>
	<path fill="#EC1F39" d="M129.667,103.372l4.22,4.996c0.335-0.925,0.842-1.812,1.459-2.584c0.39-0.487,1.521-1.581,2.178-0.999   c0.641,0.561,0.023,1.701-0.395,2.224c-0.562,0.703-1.887,1.624-2.71,1.962l1.933,2.286c1.021-0.476,2.674-1.94,3.39-2.837   c1.45-1.816,2.333-4.926,0.332-6.688c-1.556-1.369-3.637-0.886-4.89,0.68c-0.344,0.434-0.856,1.237-0.728,1.833l-0.064,0.08   c-0.174-0.402-0.455-0.768-0.722-1.102l2.928-3.668l-2.28-2.008L129.667,103.372z"/>
	<g>
		<path fill="#EC1F39" d="M90.435,80.071c-2.291,1.674-2.944,2.062-4.688,2.892l2.891,8.382c0.343-0.183,0.628-0.367,0.896-0.562    c0.869-0.642,1.5-1.396,3.067-2.538c12.625-9.229,19.15-22.861,17.298-32.75c-0.301-1.61-0.846-2.941-1.568-4.009    c-2.569-3.801-7.52-4.094-12.929-0.138c-0.518,0.377-0.913,0.68-1.271,0.959c-0.672,0.525-1.153,0.939-1.662,1.408l-0.098-7.079    l10.574-8.356l0.127-7.371l0.057-3.304L83.169,44.711l-0.065,24.051c0.604-0.654,1.167-1.248,1.715-1.813    c1.958-2.012,3.724-3.578,6.283-5.45c3.19-2.332,5.437-1.151,6.65,0.966c0.434,0.757,0.739,1.632,0.905,2.513    C99.576,69.888,96.375,75.726,90.435,80.071z"/>
		<path fill="#EC1F39" d="M134.591,59.438c0-14.916-5.845-28.561-15.518-39.122C109.798,10.19,97.002,2.898,82.425,0.07    C82.149,0.024,81.882,0,81.59,0c-2.45,0-4.438,1.726-4.438,3.855c0,1.361,0.817,2.55,2.042,3.236    c0.234,0.13,0.478,0.249,0.737,0.341c5.354,1.062,10.395,2.889,14.991,5.339l-0.721,0.611L69.176,35.149L45.587,14.463    l-1.915-1.68c4.604-2.457,9.648-4.286,15.008-5.35c1.629-0.571,2.778-1.958,2.778-3.577c0-0.511-0.119-0.995-0.328-1.441    C60.472,1,58.884,0.001,57.02,0.001c-0.292,0-0.559,0.023-0.834,0.071C26.409,5.851,4.021,30.222,4.021,59.438    c0,15.776,6.528,30.137,17.214,40.929c6.041,6.1,13.402,11.063,21.68,14.485l5.492-15.423l0.315-0.886    c-6.534-2.663-12.343-6.552-17.138-11.324c-8.641-8.6-13.941-20.113-13.941-32.764c0-14.458,6.878-27.418,17.788-36.233    l1.882,1.656l25.793,22.688v46.961c0,0-1.355,14.288-9.768,28.8c0.78,0.179,1.604,0.336,2.424,0.495    c0.339,0.064,0.661,0.143,1.004,0.204c4.013,0.739,8.327,1.221,12.407,1.24v0.01c0.043,0,0.09-0.006,0.132-0.006    c0.043,0,0.089,0.006,0.132,0.006c0.001,0,0.001,0,0.001,0v-0.01c5.272-0.024,10.957-0.816,15.836-1.939    c-8.41-14.512-9.768-28.8-9.768-28.8V42.565l27.673-24.34c2.05,1.656,3.957,3.461,5.704,5.395    c7.545,8.347,12.079,19.099,12.079,30.837c0,19.671-12.767,36.628-31.077,44.088l5.806,16.311    c0.312-0.129,0.617-0.269,0.927-0.401C119.042,104.79,134.591,83.793,134.591,59.438z"/>
		<path fill="#EC1F39" d="M57.147,60.267c-0.799-8.411-3.711-15.75-7.632-20.445c-3.062-3.667-6.743-5.725-10.513-5.421    C30.399,35.096,24.579,47.801,26,62.782c0.911,9.588,4.571,17.762,9.34,22.238c2.681,2.518,5.709,3.875,8.804,3.628    C52.748,87.955,58.568,75.249,57.147,60.267z M33.965,60.825c-0.705-7.436,2.095-13.734,6.251-14.07    c1.937-0.156,3.822,1.021,5.361,3.066c1.761,2.341,3.062,5.819,3.438,9.79c0.706,7.437-2.091,13.733-6.248,14.07    c-1.267,0.102-2.512-0.367-3.653-1.271C36.51,70.347,34.457,65.994,33.965,60.825z"/>
	</g>
</g>
</svg>