<?xml version="1.0" encoding="UTF-8"?>
<!-- Generator: Adobe Illustrator 15.1.0, SVG Export Plug-In . SVG Version: 6.00 Build 0)  -->
<!DOCTYPE svg PUBLIC "-//W3C//DTD SVG 1.1//EN" "http://www.w3.org/Graphics/SVG/1.1/DTD/svg11.dtd">
<svg version="1.1" id="Ebene_1" xmlns="http://www.w3.org/2000/svg" xmlns:xlink="http://www.w3.org/1999/xlink" x="0px" y="0px" width="141.732px" height="141.732px" viewBox="0 0 141.732 141.732" enable-background="new 0 0 141.732 141.732" xml:space="preserve">
<g>
	<g>
		<defs>
			<rect id="SVGID_1_" x="10.63" y="0" width="120.474" height="141.732"/>
		</defs>
		<clipPath id="SVGID_2_">
			<use xlink:href="#SVGID_1_" overflow="visible"/>
		</clipPath>
		<path clip-path="url(#SVGID_2_)" fill="none" stroke="#FFFFFF" stroke-width="5.7062" d="M70.865,137.981    c0,0-6.07-11.258-30.349-17.615c-24.279-6.357-28.141-33.07-28.103-33.07c34.172-36.333,3.823-60.555,3.823-60.555l6.07-14.972    c0,0,24.278,14.972,48.558-9.25c24.278,24.222,48.558,9.25,48.558,9.25l6.069,14.972c0,0-30.35,24.222,3.823,60.555    c0.142,0-3.823,26.66-28.103,33.07C76.934,126.777,70.865,137.981,70.865,137.981L70.865,137.981z"/>
	</g>
</g>
<path fill="#FFFFFF" d="M70.865,137.978c0,0-6.07-11.259-30.347-17.615c-24.278-6.357-28.14-33.067-28.103-33.067  c34.171-36.332,3.823-60.553,3.823-60.553l6.069-14.972c0,0,24.277,14.972,48.556-9.25c24.278,24.221,48.555,9.25,48.555,9.25  l6.069,14.972c0,0-30.347,24.221,3.823,60.553c0.141,0-3.823,26.657-28.102,33.067C76.934,126.772,70.865,137.978,70.865,137.978  L70.865,137.978z"/>
<g>
	<g>
		<defs>
			<rect id="SVGID_3_" x="10.63" y="0" width="120.474" height="141.732"/>
		</defs>
		<clipPath id="SVGID_4_">
			<use xlink:href="#SVGID_3_" overflow="visible"/>
		</clipPath>
		<path clip-path="url(#SVGID_4_)" fill="none" stroke="#0066B3" stroke-width="1.9021" d="M70.865,137.978    c0,0-6.07-11.259-30.347-17.615c-24.278-6.357-28.14-33.067-28.103-33.067c34.171-36.332,3.823-60.553,3.823-60.553l6.069-14.972    c0,0,24.277,14.972,48.556-9.25c24.278,24.221,48.555,9.25,48.555,9.25l6.069,14.972c0,0-30.347,24.221,3.823,60.553    c0.141,0-3.823,26.657-28.102,33.067C76.934,126.772,70.865,137.978,70.865,137.978L70.865,137.978z"/>
	</g>
</g>
<path fill="#0066B3" d="M34.261,117.781c-19.979-8.354-21.879-30.488-21.844-30.488c34.169-36.33,3.823-60.551,3.823-60.551  l6.069-14.971c0,0,24.276,14.971,48.555-9.25c24.277,24.22,48.554,9.25,48.554,9.25l1.714,3.499"/>
<g>
	<g>
		<defs>
			<rect id="SVGID_5_" x="10.63" y="0" width="120.474" height="141.732"/>
		</defs>
		<clipPath id="SVGID_6_">
			<use xlink:href="#SVGID_5_" overflow="visible"/>
		</clipPath>
		<path clip-path="url(#SVGID_6_)" fill="none" stroke="#0066B3" stroke-width="1.9021" d="M70.865,137.978    c0,0-6.07-11.259-30.347-17.615c-24.278-6.357-28.14-33.067-28.103-33.067c34.171-36.332,3.823-60.553,3.823-60.553l6.069-14.972    c0,0,24.277,14.972,48.556-9.25c24.278,24.221,48.555,9.25,48.555,9.25l6.069,14.972c0,0-30.347,24.221,3.823,60.553    c0.141,0-3.823,26.657-28.102,33.067C76.934,126.772,70.865,137.978,70.865,137.978L70.865,137.978z"/>
	</g>
</g>
<path fill="#FFFFFF" d="M47.058,95.807l1.572-1.87l-7.243-6.064l2.167-2.576l-1.441-1.207l-5.907,7.023l1.442,1.206l2.167-2.576  L47.058,95.807L47.058,95.807z M48.486,88.486c0.851,0.69,3.01,2.457,5.802-0.862c2.017-2.396,1.844-4.747,0.282-6.055  c-1.694-1.419-3.342-0.286-4.962,0.911c-1.361,0.983-2.039,1.499-2.844,0.825c-0.708-0.595-0.704-1.55,0.021-2.412  c1.079-1.282,2.18-0.522,2.5-0.296l1.502-1.786c-0.289-0.241-0.984-0.824-2.022-0.855c-1.362-0.036-2.463,0.858-3.22,1.758  c-2.025,2.409-1.622,4.483-0.191,5.682c1.502,1.257,3.062,0.644,5.312-0.986c1.191-0.881,1.777-1.31,2.546-0.666  c0.733,0.613,0.68,1.651-0.168,2.657c-1.34,1.595-2.558,0.534-2.966,0.191L48.486,88.486L48.486,88.486z M58.821,69.626  c-0.479-0.38-1.193-0.917-2.338-0.895c-1.355,0.028-2.635,0.918-3.573,2.033c-2.208,2.625-2.175,5.92,0.901,8.494  c0.913,0.766,2.444,1.741,4.211,1.564c1.247-0.119,2.584-0.735,4.248-2.714c1.462-1.738,1.908-2.876,2.181-3.565l-4.337-3.631  l-2.974,3.535l1.44,1.207l1.411-1.678l1.826,1.527c-0.111,0.254-0.265,0.656-1.021,1.557c-0.866,1.029-1.614,1.384-2.458,1.413  c-1.219,0.062-2.346-0.739-2.935-1.231c-1.333-1.116-2.951-3.185-1.177-5.294c0.343-0.408,1.014-1.011,1.893-0.888  c0.519,0.065,0.84,0.314,1.079,0.494L58.821,69.626L58.821,69.626z M63.781,64.874c0.394-1.223,0.546-2.28,0.574-2.849l6.522,5.461  l1.522-1.811l-8.386-7.02l-1.301,1.546c-0.08,1.117-0.284,2.212-0.604,3.273L63.781,64.874L63.781,64.874z M70.435,59.104  c-0.154,0.401-0.356,0.886-0.304,1.626c0.047,0.65,0.304,1.294,0.952,1.838c1.347,1.126,3.428,0.867,4.858-0.835  c1.381-1.643,1.68-3.822,0.142-5.109c-0.408-0.342-0.922-0.607-1.57-0.663c-0.998-0.08-1.616,0.363-1.994,0.618  c0.583-0.961,0.552-2.336-0.457-3.181c-1.311-1.097-3.249-0.738-4.66,0.939c-1.713,2.038-1.108,3.995-0.086,4.85  C68.611,60.274,69.95,59.413,70.435,59.104L70.435,59.104z M70.829,57.249c-0.554,0.659-1.399,0.667-1.988,0.173  c-0.637-0.532-0.632-1.365-0.128-1.965c0.475-0.562,1.299-0.812,1.982-0.24C71.368,55.78,71.343,56.637,70.829,57.249L70.829,57.249  z M74.757,60.537c-0.483,0.575-1.414,0.878-2.268,0.165c-0.708-0.593-0.813-1.539-0.229-2.234c0.533-0.635,1.465-0.815,2.222-0.183  C75.419,59.069,75.181,60.034,74.757,60.537L74.757,60.537z M77.174,55.862c2.199,1.84,3.983-0.281,4.377-0.749  c1.702-2.025,1.701-4.069-1.843-7.036c-1.345-1.126-4.144-3.347-6.562-0.471c-1.554,1.846-1.301,3.956,0.262,5.263  c0.997,0.835,3.073,1.675,4.797-0.375c0.312-0.372,0.73-0.941,0.693-1.993c1.185,0.931,2.4,2.112,1.353,3.358  c-0.424,0.503-1.008,0.564-1.553,0.19L77.174,55.862L77.174,55.862z M77.095,51.016c-0.879,1.043-1.981,0.262-2.271,0.021  c-0.637-0.533-1.06-1.418-0.344-2.269c0.615-0.731,1.479-0.662,2.211-0.049C77.281,49.211,77.841,50.129,77.095,51.016  L77.095,51.016z M82.981,48.958c2.197,1.841,3.98-0.281,4.375-0.748c1.704-2.024,1.702-4.068-1.841-7.036  c-1.348-1.126-4.146-3.347-6.565-0.471c-1.552,1.846-1.3,3.956,0.262,5.263c0.997,0.835,3.074,1.676,4.799-0.375  c0.312-0.372,0.729-0.94,0.692-1.992c1.185,0.929,2.4,2.11,1.353,3.357c-0.423,0.503-1.008,0.565-1.554,0.191L82.981,48.958  L82.981,48.958z M82.9,44.112c-0.876,1.042-1.979,0.262-2.271,0.021c-0.636-0.532-1.058-1.418-0.343-2.269  c0.615-0.731,1.479-0.662,2.211-0.048C83.087,42.308,83.646,43.226,82.9,44.112L82.9,44.112z"/>
<path fill="#0066B3" d="M60.936,108.521l-3.965-3.319l2.551-3.032l3.964,3.319l0.928-1.104l-8.673-7.261l-0.928,1.103l3.749,3.139  l-2.551,3.032l-3.748-3.139l-0.928,1.104l8.673,7.261L60.936,108.521L60.936,108.521z M66.722,100.253  c-0.857,1.02-1.777,0.678-3.748-0.973c-1.658-1.388-1.585-2.205-0.95-2.96s1.429-0.969,3.087,0.419  C67.082,98.389,67.579,99.234,66.722,100.253L66.722,100.253z M67.527,100.927c1.079-1.281,1.551-2.622-1.128-4.865  c-1.778-1.488-3.415-2.513-5.179-0.414c-1.765,2.098-0.471,3.527,1.308,5.017C65.208,102.906,66.448,102.209,67.527,100.927  L67.527,100.927z M63.951,92.643l0.745,0.624l0.786-0.936l5.322,4.455l0.826-0.982l-5.321-4.455l1.027-1.223l-0.745-0.624  l-1.027,1.224l-1.033-0.865c-0.493-0.412-0.786-0.964,0.163-1.946l-0.708-0.594c-0.146,0.124-0.258,0.234-0.429,0.438  c-0.736,0.875-1.222,1.939,0.004,2.966l1.177,0.985L63.951,92.643L63.951,92.643z M66.753,89.311l0.745,0.624L68.284,89l5.322,4.455  l0.826-0.982l-5.321-4.454l1.028-1.224l-0.745-0.623l-1.028,1.223l-1.033-0.864c-0.492-0.413-0.786-0.965,0.163-1.947l-0.708-0.594  c-0.145,0.124-0.258,0.234-0.429,0.438c-0.736,0.874-1.221,1.938,0.004,2.965l1.177,0.985L66.753,89.311L66.753,89.311z   M73.402,86.688c-1.672-1.42-1.539-2.188-1.015-2.811c0.604-0.72,1.233-1.029,3.001,0.448L73.402,86.688L73.402,86.688z   M77.011,83.907l-0.519-0.433c-2.006-1.681-3.318-2.042-4.769-0.316c-1.766,2.098-0.472,3.528,1.308,5.017  c2.679,2.242,3.92,1.547,4.999,0.265c1.068-1.271,1.151-2.61-0.185-3.749l-0.907,1.078c0.583,0.549,0.83,1.35,0.267,2.021  c-0.646,0.769-1.365,0.94-3.06-0.478L77.011,83.907L77.011,83.907z M84.482,80.523l-4.204-3.521  c-1.201-1.006-2.255-1.336-3.344-0.041c-0.654,0.779-0.821,1.415-0.459,2.372l-0.04,0.048l-0.781-0.652l-0.878,1.043  c0.452,0.315,0.893,0.644,1.312,0.996l4.807,4.021l0.827-0.981L78.128,80.8c-0.829-0.693-1.658-1.654-0.752-2.732  c0.705-0.839,1.427-0.625,2.075-0.081l4.204,3.52L84.482,80.523L84.482,80.523z M89.321,74.77L85.02,71.17  c-1.369-1.146-2.37-1.003-3.237,0.027c-0.665,0.791-0.854,1.407-0.479,2.396l-0.04,0.049l-3.389-2.836l-0.826,0.982l8.674,7.261  l0.825-0.981l-3.566-2.987c-1.021-0.854-1.603-1.771-0.775-2.753c0.705-0.839,1.437-0.636,2.181-0.013l4.108,3.438L89.321,74.77  L89.321,74.77z M87.716,69.669c-1.671-1.42-1.537-2.187-1.014-2.811c0.605-0.719,1.233-1.029,3,0.449L87.716,69.669L87.716,69.669z   M91.324,66.889l-0.518-0.434c-2.006-1.679-3.317-2.042-4.77-0.315c-1.765,2.098-0.471,3.527,1.31,5.017  c2.678,2.243,3.919,1.545,4.998,0.263c1.067-1.27,1.15-2.609-0.185-3.749l-0.907,1.079c0.582,0.549,0.83,1.35,0.267,2.021  c-0.646,0.767-1.364,0.94-3.06-0.478L91.324,66.889L91.324,66.889z M89.947,61.733l-0.826,0.982l6.067,5.079l0.826-0.982  L89.947,61.733L89.947,61.733z M87.522,61.479l0.926-1.104l-1.057-0.885l-0.928,1.103L87.522,61.479L87.522,61.479z M100.772,61.155  l-4.084-3.419c-0.229-0.191-0.789-0.742-0.787-1.23c0.006-0.444,0.084-0.562,0.396-0.934c0.665-0.791,1.371-0.486,1.983,0.027  l4.205,3.52l0.827-0.981L98.7,54.273c-1.43-1.196-2.431-0.298-2.965,0.337c-0.464,0.551-0.795,1.213-0.429,2.092  c-0.745-0.235-1.508,0.209-1.972,0.761c-0.596,0.707-0.801,1.414-0.393,2.244l-0.021,0.024l-0.757-0.634l-0.877,1.043  c0.45,0.315,0.893,0.644,1.312,0.995l4.806,4.022l0.826-0.983l-4.084-3.419c-0.229-0.19-0.549-0.541-0.697-0.972  c-0.107-0.334,0.055-0.893,0.307-1.193c0.665-0.791,1.37-0.485,1.983,0.027l4.205,3.521L100.772,61.155L100.772,61.155z"/>
<style xmlns="http://www.w3.org/1999/xhtml" charset="utf-8" type="text/css" class="firebugResetStyles">/* See license.txt for terms of usage */
/** reset styling **/
.firebugResetStyles {
    z-index: 2147483646 !important;
    top: 0 !important;
    left: 0 !important;
    display: block !important;
    border: 0 none !important;
    margin: 0 !important;
    padding: 0 !important;
    outline: 0 !important;
    min-width: 0 !important;
    max-width: none !important;
    min-height: 0 !important;
    max-height: none !important;
    position: fixed !important;
    transform: rotate(0deg) !important;
    transform-origin: 50% 50% !important;
    border-radius: 0 !important;
    box-shadow: none !important;
    background: transparent none !important;
    pointer-events: none !important;
    white-space: normal !important;
}
style.firebugResetStyles {
    display: none !important;
}

.firebugBlockBackgroundColor {
    background-color: transparent !important;
}

.firebugResetStyles:before, .firebugResetStyles:after {
    content: "" !important;
}
/**actual styling to be modified by firebug theme**/
.firebugCanvas {
    display: none !important;
}

/* * * * * * * * * * * * * * * * * * * * * * * * * * * * * * * * * * * * * * * * * * * * * * * * */
.firebugLayoutBox {
    width: auto !important;
    position: static !important;
}

.firebugLayoutBoxOffset {
    opacity: 0.8 !important;
    position: fixed !important;
}

.firebugLayoutLine {
    opacity: 0.4 !important;
    background-color: #000000 !important;
}

.firebugLayoutLineLeft, .firebugLayoutLineRight {
    width: 1px !important;
    height: 100% !important;
}

.firebugLayoutLineTop, .firebugLayoutLineBottom {
    width: 100% !important;
    height: 1px !important;
}

.firebugLayoutLineTop {
    margin-top: -1px !important;
    border-top: 1px solid #999999 !important;
}

.firebugLayoutLineRight {
    border-right: 1px solid #999999 !important;
}

.firebugLayoutLineBottom {
    border-bottom: 1px solid #999999 !important;
}

.firebugLayoutLineLeft {
    margin-left: -1px !important;
    border-left: 1px solid #999999 !important;
}

/* * * * * * * * * * * * * * * * * * * * * * * * * * * * * * * * * * * * * * * * * * * * * * * * */
.firebugLayoutBoxParent {
    border-top: 0 none !important;
    border-right: 1px dashed #E00 !important;
    border-bottom: 1px dashed #E00 !important;
    border-left: 0 none !important;
    position: fixed !important;
    width: auto !important;
}

.firebugRuler{
    position: absolute !important;
}

.firebugRulerH {
    top: -15px !important;
    left: 0 !important;
    width: 100% !important;
    height: 14px !important;
    background: url("data:image/png,%89PNG%0D%0A%1A%0A%00%00%00%0DIHDR%00%00%13%88%00%00%00%0E%08%02%00%00%00L%25a%0A%00%00%00%04gAMA%00%00%D6%D8%D4OX2%00%00%00%19tEXtSoftware%00Adobe%20ImageReadyq%C9e%3C%00%00%04%F8IDATx%DA%EC%DD%D1n%E2%3A%00E%D1%80%F8%FF%EF%E2%AF2%95%D0D4%0E%C1%14%B0%8Fa-%E9%3E%CC%9C%87n%B9%81%A6W0%1C%A6i%9A%E7y%0As8%1CT%A9R%A5J%95*U%AAT%A9R%A5J%95*U%AAT%A9R%A5J%95*U%AAT%A9R%A5J%95*U%AAT%A9R%A5J%95*U%AAT%A9R%A5J%95*U%AAT%A9R%A5J%95*U%AATE9%FE%FCw%3E%9F%AF%2B%2F%BA%97%FDT%1D~K(%5C%9D%D5%EA%1B%5C%86%B5%A9%BDU%B5y%80%ED%AB*%03%FAV9%AB%E1%CEj%E7%82%EF%FB%18%BC%AEJ8%AB%FA'%D2%BEU9%D7U%ECc0%E1%A2r%5DynwVi%CFW%7F%BB%17%7Dy%EACU%CD%0E%F0%FA%3BX%FEbV%FEM%9B%2B%AD%BE%AA%E5%95v%AB%AA%E3E5%DCu%15rV9%07%B5%7F%B5w%FCm%BA%BE%AA%FBY%3D%14%F0%EE%C7%60%0EU%AAT%A9R%A5J%95*U%AAT%A9R%A5J%95*U%AAT%A9R%A5J%95*U%AAT%A9R%A5J%95*U%AAT%A9R%A5JU%88%D3%F5%1F%AE%DF%3B%1B%F2%3E%DAUCNa%F92%D02%AC%7Dm%F9%3A%D4%F2%8B6%AE*%BF%5C%C2Ym~9g5%D0Y%95%17%7C%C8c%B0%7C%18%26%9CU%CD%13i%F7%AA%90%B3Z%7D%95%B4%C7%60%E6E%B5%BC%05%B4%FBY%95U%9E%DB%FD%1C%FC%E0%9F%83%7F%BE%17%7DkjMU%E3%03%AC%7CWj%DF%83%9An%BCG%AE%F1%95%96yQ%0Dq%5Dy%00%3Et%B5'%FC6%5DS%95pV%95%01%81%FF'%07%00%00%00%00%00%00%00%00%00%F8x%C7%F0%BE%9COp%5D%C9%7C%AD%E7%E6%EBV%FB%1E%E0(%07%E5%AC%C6%3A%ABi%9C%8F%C6%0E9%AB%C0'%D2%8E%9F%F99%D0E%B5%99%14%F5%0D%CD%7F%24%C6%DEH%B8%E9rV%DFs%DB%D0%F7%00k%FE%1D%84%84%83J%B8%E3%BA%FB%EF%20%84%1C%D7%AD%B0%8E%D7U%C8Y%05%1E%D4t%EF%AD%95Q%BF8w%BF%E9%0A%BF%EB%03%00%00%00%00%00%00%00%00%00%B8vJ%8E%BB%F5%B1u%8Cx%80%E1o%5E%CA9%AB%CB%CB%8E%03%DF%1D%B7T%25%9C%D5(%EFJM8%AB%CC'%D2%B2*%A4s%E7c6%FB%3E%FA%A2%1E%80~%0E%3E%DA%10x%5D%95Uig%15u%15%ED%7C%14%B6%87%A1%3B%FCo8%A8%D8o%D3%ADO%01%EDx%83%1A~%1B%9FpP%A3%DC%C6'%9C%95gK%00%00%00%00%00%00%00%00%00%20%D9%C9%11%D0%C0%40%AF%3F%EE%EE%92%94%D6%16X%B5%BCMH%15%2F%BF%D4%A7%C87%F1%8E%F2%81%AE%AAvzr%DA2%ABV%17%7C%E63%83%E7I%DC%C6%0Bs%1B%EF6%1E%00%00%00%00%00%00%00%00%00%80cr%9CW%FF%7F%C6%01%0E%F1%CE%A5%84%B3%CA%BC%E0%CB%AA%84%CE%F9%BF)%EC%13%08WU%AE%AB%B1%AE%2BO%EC%8E%CBYe%FE%8CN%ABr%5Dy%60~%CFA%0D%F4%AE%D4%BE%C75%CA%EDVB%EA(%B7%F1%09g%E5%D9%12%00%00%00%00%00%00%00%00%00H%F6%EB%13S%E7y%5E%5E%FB%98%F0%22%D1%B2'%A7%F0%92%B1%BC%24z3%AC%7Dm%60%D5%92%B4%7CEUO%5E%F0%AA*%3BU%B9%AE%3E%A0j%94%07%A0%C7%A0%AB%FD%B5%3F%A0%F7%03T%3Dy%D7%F7%D6%D4%C0%AAU%D2%E6%DFt%3F%A8%CC%AA%F2%86%B9%D7%F5%1F%18%E6%01%F8%CC%D5%9E%F0%F3z%88%AA%90%EF%20%00%00%00%00%00%00%00%00%00%C0%A6%D3%EA%CFi%AFb%2C%7BB%0A%2B%C3%1A%D7%06V%D5%07%A8r%5D%3D%D9%A6%CAu%F5%25%CF%A2%99%97zNX%60%95%AB%5DUZ%D5%FBR%03%AB%1C%D4k%9F%3F%BB%5C%FF%81a%AE%AB'%7F%F3%EA%FE%F3z%94%AA%D8%DF%5B%01%00%00%00%00%00%00%00%00%00%8E%FB%F3%F2%B1%1B%8DWU%AAT%A9R%A5J%95*U%AAT%A9R%A5J%95*U%AAT%A9R%A5J%95*U%AAT%A9R%A5J%95*U%AAT%A9R%A5J%95*U%AAT%A9R%A5J%95*U%AAT%A9R%A5J%95*UiU%C7%BBe%E7%F3%B9%CB%AAJ%95*U%AAT%A9R%A5J%95*U%AAT%A9R%A5J%95*U%AAT%A9R%A5J%95*U%AAT%A9R%A5J%95*U%AAT%A9R%A5J%95*U%AAT%A9R%A5J%95*U%AAT%A9R%A5*%AAj%FD%C6%D4%5Eo%90%B5Z%ADV%AB%D5j%B5Z%ADV%AB%D5j%B5Z%ADV%AB%D5j%B5Z%ADV%AB%D5j%B5Z%ADV%AB%D5j%B5Z%ADV%AB%D5j%B5Z%ADV%AB%D5j%B5%86%AF%1B%9F%98%DA%EBm%BBV%AB%D5j%B5Z%ADV%AB%D5j%B5Z%ADV%AB%D5j%B5Z%ADV%AB%D5j%B5Z%ADV%AB%D5j%B5Z%ADV%AB%D5j%B5Z%ADV%AB%D5j%B5Z%AD%D6%E4%F58%01%00%00%00%00%00%00%00%00%00%00%00%00%00%40%85%7F%02%0C%008%C2%D0H%16j%8FX%00%00%00%00IEND%AEB%60%82") repeat-x !important;
    border-top: 1px solid #BBBBBB !important;
    border-right: 1px dashed #BBBBBB !important;
    border-bottom: 1px solid #000000 !important;
}

.firebugRulerV {
    top: 0 !important;
    left: -15px !important;
    width: 14px !important;
    height: 100% !important;
    background: url("data:image/png,%89PNG%0D%0A%1A%0A%00%00%00%0DIHDR%00%00%00%0E%00%00%13%88%08%02%00%00%00%0E%F5%CB%10%00%00%00%04gAMA%00%00%D6%D8%D4OX2%00%00%00%19tEXtSoftware%00Adobe%20ImageReadyq%C9e%3C%00%00%06~IDATx%DA%EC%DD%D1v%A20%14%40Qt%F1%FF%FF%E4%97%D9%07%3BT%19%92%DC%40(%90%EEy%9A5%CB%B6%E8%F6%9Ac%A4%CC0%84%FF%DC%9E%CF%E7%E3%F1%88%DE4%F8%5D%C7%9F%2F%BA%DD%5E%7FI%7D%F18%DDn%BA%C5%FB%DF%97%BFk%F2%10%FF%FD%B4%F2M%A7%FB%FD%FD%B3%22%07p%8F%3F%AE%E3%F4S%8A%8F%40%EEq%9D%BE8D%F0%0EY%A1Uq%B7%EA%1F%81%88V%E8X%3F%B4%CEy%B7h%D1%A2E%EBohU%FC%D9%AF2fO%8BBeD%BE%F7X%0C%97%A4%D6b7%2Ck%A5%12%E3%9B%60v%B7r%C7%1AI%8C%BD%2B%23r%00c0%B2v%9B%AD%CA%26%0C%1Ek%05A%FD%93%D0%2B%A1u%8B%16-%95q%5Ce%DCSO%8E%E4M%23%8B%F7%C2%FE%40%BB%BD%8C%FC%8A%B5V%EBu%40%F9%3B%A72%FA%AE%8C%D4%01%CC%B5%DA%13%9CB%AB%E2I%18%24%B0n%A9%0CZ*Ce%9C%A22%8E%D8NJ%1E%EB%FF%8F%AE%CAP%19*%C3%BAEKe%AC%D1%AAX%8C*%DEH%8F%C5W%A1e%AD%D4%B7%5C%5B%19%C5%DB%0D%EF%9F%19%1D%7B%5E%86%BD%0C%95%A12%AC%5B*%83%96%CAP%19%F62T%86%CAP%19*%83%96%CA%B8Xe%BC%FE)T%19%A1%17xg%7F%DA%CBP%19*%C3%BA%A52T%86%CAP%19%F62T%86%CA%B0n%A9%0CZ%1DV%C6%3D%F3%FCH%DE%B4%B8~%7F%5CZc%F1%D6%1F%AF%84%F9%0F6%E6%EBVt9%0E~%BEr%AF%23%B0%97%A12T%86%CAP%19%B4T%86%CA%B8Re%D8%CBP%19*%C3%BA%A52huX%19%AE%CA%E5%BC%0C%7B%19*CeX%B7h%A9%0C%95%E1%BC%0C%7B%19*CeX%B7T%06%AD%CB%5E%95%2B%BF.%8F%C5%97%D5%E4%7B%EE%82%D6%FB%CF-%9C%FD%B9%CF%3By%7B%19%F62T%86%CA%B0n%D1R%19*%A3%D3%CA%B0%97%A12T%86uKe%D0%EA%B02*%3F1%99%5DB%2B%A4%B5%F8%3A%7C%BA%2B%8Co%7D%5C%EDe%A8%0C%95a%DDR%19%B4T%C66%82fA%B2%ED%DA%9FC%FC%17GZ%06%C9%E1%B3%E5%2C%1A%9FoiB%EB%96%CA%A0%D5qe4%7B%7D%FD%85%F7%5B%ED_%E0s%07%F0k%951%ECr%0D%B5C%D7-g%D1%A8%0C%EB%96%CA%A0%A52T%C6)*%C3%5E%86%CAP%19%D6-%95A%EB*%95q%F8%BB%E3%F9%AB%F6%E21%ACZ%B7%22%B7%9B%3F%02%85%CB%A2%5B%B7%BA%5E%B7%9C%97%E1%BC%0C%EB%16-%95%A12z%AC%0C%BFc%A22T%86uKe%D0%EA%B02V%DD%AD%8A%2B%8CWhe%5E%AF%CF%F5%3B%26%CE%CBh%5C%19%CE%CB%B0%F3%A4%095%A1%CAP%19*Ce%A8%0C%3BO*Ce%A8%0C%95%A12%3A%AD%8C%0A%82%7B%F0v%1F%2FD%A9%5B%9F%EE%EA%26%AF%03%CA%DF9%7B%19*Ce%A8%0C%95%A12T%86%CA%B8Ze%D8%CBP%19*Ce%A8%0C%95%D1ae%EC%F7%89I%E1%B4%D7M%D7P%8BjU%5C%BB%3E%F2%20%D8%CBP%19*Ce%A8%0C%95%A12T%C6%D5*%C3%5E%86%CAP%19*Ce%B4O%07%7B%F0W%7Bw%1C%7C%1A%8C%B3%3B%D1%EE%AA%5C%D6-%EBV%83%80%5E%D0%CA%10%5CU%2BD%E07YU%86%CAP%19*%E3%9A%95%91%D9%A0%C8%AD%5B%EDv%9E%82%FFKOee%E4%8FUe%A8%0C%95%A12T%C6%1F%A9%8C%C8%3D%5B%A5%15%FD%14%22r%E7B%9F%17l%F8%BF%ED%EAf%2B%7F%CF%ECe%D8%CBP%19*Ce%A8%0C%95%E1%93~%7B%19%F62T%86%CAP%19*Ce%A8%0C%E7%13%DA%CBP%19*Ce%A8%0CZf%8B%16-Z%B4h%D1R%19f%8B%16-Z%B4h%D1R%19%B4%CC%16-Z%B4h%D1R%19%B4%CC%16-Z%B4h%D1%A2%A52%CC%16-Z%B4h%D1%A2%A52h%99-Z%B4h%D1%A2%A52h%99-Z%B4h%D1%A2EKe%98-Z%B4h%D1%A2EKe%D02%5B%B4h%D1%A2EKe%D02%5B%B4h%D1%A2E%8B%96%CA0%5B%B4h%D1%A2E%8B%96%CA%A0e%B6h%D1%A2E%8B%96%CA%A0e%B6h%D1%A2E%8B%16-%95a%B6h%D1%A2E%8B%16-%95A%CBl%D1%A2E%8B%16-%95A%CBl%D1%A2E%8B%16-Z*%C3l%D1%A2E%8B%16-Z*%83%96%D9%A2E%8B%16-Z*%83%96%D9%A2E%8B%16-Z%B4T%86%D9%A2E%8B%16-Z%B4T%06-%B3E%8B%16-Z%B4T%06-%B3E%8B%16-Z%B4h%A9%0C%B3E%8B%16-Z%B4h%A9%0CZf%8B%16-Z%B4h%A9%0CZf%8B%16-Z%B4h%D1R%19f%8B%16-Z%B4h%D1R%19%B4%CC%16-Z%B4h%D1R%19%B4%CC%16-Z%B4h%D1%A2%A52%CC%16-Z%B4h%D1%A2%A52h%99-Z%B4h%D1%A2%A52h%99-Z%B4h%D1%A2EKe%98-Z%B4h%D1%A2EKe%D02%5B%B4h%D1%A2EKe%D02%5B%B4h%D1%A2E%8B%96%CA0%5B%B4h%D1%A2E%8B%96%CA%A0e%B6h%D1%A2E%8B%96%CA%A0e%B6h%D1%A2E%8B%16-%95a%B6h%D1%A2E%8B%16-%95A%CBl%D1%A2E%8B%16-%95A%CBl%D1%A2E%8B%16-Z*%C3l%D1%A2E%8B%16-Z*%83%96%D9%A2E%8B%16-Z*%83%96%D9%A2E%8B%16-Z%B4T%86%D9%A2E%8B%16-Z%B4T%06-%B3E%8B%16-Z%B4T%06-%B3E%8B%16-Z%B4h%A9%0C%B3E%8B%16-Z%B4h%A9%0CZf%8B%16-Z%B4h%A9%0CZf%8B%16-Z%B4h%D1R%19f%8B%16-Z%B4h%D1R%19%B4%CC%16-Z%B4h%D1R%19%B4%CC%16-Z%B4h%D1%A2%A52%CC%16-Z%B4h%D1%A2%A52h%99-Z%B4h%D1%A2%A52h%99-Z%B4h%D1%A2EKe%98-Z%B4h%D1%A2EKe%D02%5B%B4h%D1%A2EKe%D02%5B%B4h%D1%A2E%8B%96%CA0%5B%B4h%D1%A2E%8B%96%CA%A0e%B6h%D1%A2E%8B%96%CA%A0e%B6h%D1%A2E%8B%16-%95a%B6h%D1%A2E%8B%16-%95A%CBl%D1%A2E%8B%16-%95A%CBl%D1%A2E%8B%16-Z*%C3l%D1%A2E%8B%16-Z*%83%96%D9%A2E%8B%16-Z*%83%96%D9%A2E%8B%16-Z%B4T%86%D9%A2E%8B%16-Z%B4T%06-%B3E%8B%16-Z%B4%AE%A4%F5%25%C0%00%DE%BF%5C'%0F%DA%B8q%00%00%00%00IEND%AEB%60%82") repeat-y !important;
    border-left: 1px solid #BBBBBB !important;
    border-right: 1px solid #000000 !important;
    border-bottom: 1px dashed #BBBBBB !important;
}

.overflowRulerX &gt; .firebugRulerV {
    left: 0 !important;
}

.overflowRulerY &gt; .firebugRulerH {
    top: 0 !important;
}

/* * * * * * * * * * * * * * * * * * * * * * * * * * * * * * * * * * * * * * * * * * * * * * * * */
.fbProxyElement {
    position: fixed !important;
    pointer-events: auto !important;
}
</style><div xmlns="http://www.w3.org/1999/xhtml" class="firebugResetStyles firebugBlockBackgroundColor firebugLayoutBox firebugLayoutBoxOffset" style="left: 4.8px ! important; top: -5.11667px ! important;"><div class="firebugResetStyles firebugLayoutBox" style="padding: 0px ! important; background-color: rgb(237, 255, 100) ! important;"><div class="firebugResetStyles firebugLayoutBox" style="padding: 0px ! important; background-color: rgb(68, 68, 68) ! important;"><div class="firebugResetStyles firebugLayoutBox" style="padding: 0px ! important; background-color: SlateBlue ! important;"><div class="firebugResetStyles firebugLayoutBox" style="width: 132.15px ! important; height: 150.733px ! important; background-color: SkyBlue ! important;"/></div></div></div></div></svg>